{"glyphs":{"0":{"ha":853,"x_min":75,"x_max":778,"o":"m 778 407 q 751 238 778 315 q 678 105 725 161 q 566 17 631 49 q 426 -14 501 -14 q 285 17 350 -14 q 174 105 221 49 q 101 238 128 161 q 75 407 75 315 q 101 576 75 499 q 174 709 128 653 q 285 797 221 765 q 426 829 350 829 q 566 797 501 829 q 678 709 631 765 q 751 576 725 653 q 778 407 778 499 m 654 407 q 638 532 654 475 q 590 630 621 589 q 518 693 560 671 q 426 715 476 715 q 333 693 375 715 q 260 630 290 671 q 214 532 231 589 q 197 407 197 475 q 214 281 197 338 q 260 185 231 225 q 333 122 290 144 q 426 100 375 100 q 518 122 476 100 q 590 185 560 144 q 638 281 621 225 q 654 407 654 338 z "},"1":{"ha":625,"x_min":64,"x_max":592,"o":"m 592 111 l 592 0 l 93 0 l 93 111 l 290 111 l 290 653 q 251 617 278 636 q 192 583 225 599 q 125 556 160 567 q 64 544 90 544 l 64 661 q 132 678 94 661 q 203 719 169 696 q 262 763 238 742 q 290 793 286 785 l 415 793 l 415 111 l 592 111 z "},"2":{"ha":743,"x_min":60,"x_max":678,"o":"m 60 0 q 69 104 60 56 q 103 197 78 153 q 172 282 128 242 q 286 363 215 322 q 371 406 328 385 q 449 452 414 428 q 508 504 485 476 q 531 569 531 532 q 519 617 531 593 q 488 658 508 640 q 435 688 467 676 q 364 699 404 699 q 288 687 322 699 q 228 658 254 675 q 182 621 201 640 q 150 586 163 601 l 71 675 q 108 709 82 688 q 175 753 135 731 q 268 791 215 775 q 386 807 321 807 q 501 790 450 807 q 588 742 553 772 q 643 670 624 711 q 663 583 663 629 q 639 489 663 529 q 581 418 615 449 q 508 366 547 388 q 439 329 469 344 q 370 292 408 314 q 297 244 332 271 q 237 183 263 217 q 204 111 211 150 l 678 111 l 678 0 l 60 0 z "},"3":{"ha":750,"x_min":49,"x_max":690,"o":"m 497 328 q 638 246 586 313 q 690 81 690 179 q 667 -36 690 17 q 599 -126 643 -89 q 494 -184 556 -164 q 358 -204 433 -204 q 173 -165 253 -204 q 49 -53 93 -125 l 131 29 q 217 -60 163 -28 q 358 -93 271 -93 q 509 -50 454 -93 q 564 81 564 -7 q 505 220 564 168 q 333 272 446 272 l 297 272 l 297 375 l 336 375 q 490 423 436 375 q 543 544 543 471 q 492 654 543 618 q 363 690 440 690 q 228 658 286 690 q 139 567 171 625 l 64 644 q 113 708 82 679 q 185 757 144 736 q 274 789 226 778 q 375 800 322 800 q 495 782 440 800 q 590 732 550 764 q 651 654 629 700 q 672 553 672 608 q 660 474 672 511 q 626 406 649 436 q 570 355 603 375 q 497 328 538 335 z "},"4":{"ha":775,"x_min":33,"x_max":724,"o":"m 479 -176 l 479 58 l 33 58 l 33 167 l 518 793 l 601 793 l 601 169 l 724 169 l 724 58 l 601 58 l 601 -176 l 479 -176 m 160 169 l 492 169 l 492 604 l 160 169 z "},"5":{"ha":761,"x_min":46,"x_max":713,"o":"m 390 436 q 517 413 458 436 q 619 349 576 390 q 688 249 663 307 q 713 121 713 190 q 685 -13 713 47 q 611 -117 658 -74 q 500 -183 564 -160 q 364 -207 436 -207 q 174 -157 258 -207 q 46 -24 89 -107 l 122 43 q 226 -60 161 -21 q 365 -99 290 -99 q 453 -83 413 -99 q 524 -38 494 -67 q 571 31 554 -10 q 588 119 588 71 q 571 204 588 165 q 526 271 554 243 q 458 314 497 299 q 375 329 419 329 q 263 303 315 329 q 178 228 211 276 l 68 228 q 75 263 69 235 q 89 333 81 292 q 107 424 97 374 q 126 525 117 474 q 179 793 150 644 l 658 793 l 658 681 l 269 681 l 210 367 q 286 417 240 399 q 390 436 332 436 z "},"6":{"ha":842,"x_min":71,"x_max":781,"o":"m 781 326 q 753 194 781 256 q 678 85 726 132 q 567 13 631 39 q 428 -14 503 -14 q 283 15 349 -14 q 169 99 217 44 q 97 233 122 154 q 71 411 71 311 q 97 666 71 557 q 172 848 124 775 q 289 957 221 921 q 440 993 357 993 q 615 947 536 993 q 738 818 693 901 l 663 744 q 572 848 632 810 q 439 886 513 886 q 336 860 382 886 q 257 785 290 835 q 206 663 224 735 q 186 500 188 592 q 285 615 217 572 q 440 658 353 658 q 574 633 511 658 q 682 562 636 607 q 754 456 728 517 q 781 326 781 396 m 429 92 q 519 110 476 92 q 594 161 563 129 q 645 235 626 193 q 664 326 664 278 q 645 417 664 374 q 594 491 626 460 q 519 541 563 522 q 429 560 476 560 q 338 541 381 560 q 264 491 296 522 q 213 417 232 460 q 194 326 194 374 q 213 235 194 278 q 264 161 232 193 q 338 110 296 129 q 429 92 381 92 z "},"7":{"ha":743,"x_min":38,"x_max":738,"o":"m 544 697 l 38 697 l 38 810 l 738 810 l 242 -176 l 103 -176 l 544 697 z "},"8":{"ha":831,"x_min":68,"x_max":763,"o":"m 763 279 q 734 159 763 213 q 658 68 706 106 q 547 10 610 31 q 413 -11 483 -11 q 276 12 339 -11 q 167 74 213 35 q 94 168 121 114 q 68 285 68 222 q 85 369 68 331 q 127 439 101 408 q 186 492 153 469 q 253 528 219 515 q 194 560 222 540 q 146 606 167 581 q 113 663 125 632 q 101 728 101 693 q 130 838 101 790 q 203 919 158 886 q 304 969 249 953 q 415 986 360 986 q 527 969 471 986 q 628 920 583 953 q 702 840 674 888 q 731 729 731 792 q 685 607 731 660 q 576 528 639 554 q 648 489 614 513 q 707 434 682 465 q 747 364 732 403 q 763 279 763 325 m 639 288 q 619 367 639 332 q 567 427 599 403 q 494 464 535 451 q 414 476 454 476 q 333 463 372 476 q 262 425 293 450 q 212 365 231 400 q 193 286 193 329 q 213 207 193 242 q 265 149 233 172 q 337 112 297 125 q 417 99 376 99 q 498 113 458 99 q 569 151 538 126 q 619 211 600 176 q 639 288 639 246 m 225 724 q 242 658 225 686 q 288 610 260 629 q 349 581 315 590 q 415 571 382 571 q 482 581 449 571 q 543 611 515 592 q 588 660 571 631 q 606 726 606 689 q 590 789 606 761 q 547 836 574 817 q 486 866 521 856 q 414 876 451 876 q 342 866 376 876 q 283 835 308 856 q 241 787 257 815 q 225 724 225 758 z "},"9":{"ha":818,"x_min":50,"x_max":760,"o":"m 50 453 q 77 585 50 524 q 152 694 104 647 q 264 767 200 740 q 403 793 328 793 q 548 764 482 793 q 661 680 614 735 q 734 547 708 625 q 760 368 760 468 q 733 113 760 222 q 658 -69 707 4 q 542 -178 610 -142 q 390 -214 474 -214 q 216 -168 294 -214 q 93 -39 138 -122 l 168 35 q 258 -69 199 -31 q 392 -107 318 -107 q 574 -6 506 -107 q 644 279 642 96 q 546 164 614 207 q 390 121 478 121 q 257 147 319 121 q 149 217 194 172 q 76 322 103 261 q 50 453 50 383 m 401 688 q 310 669 353 688 q 236 618 268 650 q 185 544 204 586 q 167 453 167 501 q 185 362 167 404 q 236 288 204 319 q 310 238 268 257 q 401 219 353 219 q 492 238 450 219 q 567 288 535 257 q 617 362 599 319 q 636 453 636 404 q 617 543 636 500 q 567 618 599 586 q 492 669 535 650 q 401 688 449 688 z "}," ":{"ha":351,"x_min":0,"x_max":0,"o":""},"Ǽ":{"ha":1335,"x_min":-35,"x_max":1285,"o":"m 760 1104 l 679 1132 l 760 1272 l 882 1272 l 760 1104 m 594 986 l 1272 986 l 1272 875 l 751 875 l 751 558 l 1197 558 l 1197 447 l 751 447 l 751 111 l 1285 111 l 1285 0 l 628 0 l 628 289 l 282 289 l 101 0 l -35 0 l 594 986 m 619 400 l 619 840 l 338 400 l 619 400 z "},"´":{"ha":322,"x_min":67,"x_max":269,"o":"m 147 846 l 67 874 l 147 1014 l 269 1014 l 147 846 z "},"Á":{"ha":940,"x_min":14,"x_max":926,"o":"m 418 986 l 524 986 l 926 0 l 793 0 l 676 289 l 263 289 l 147 0 l 14 0 l 418 986 m 649 386 l 471 842 l 288 386 l 649 386 m 492 1104 l 411 1132 l 492 1272 l 614 1272 l 492 1104 z "},"Ă":{"ha":940,"x_min":14,"x_max":926,"o":"m 418 986 l 524 986 l 926 0 l 793 0 l 676 289 l 263 289 l 147 0 l 14 0 l 418 986 m 649 386 l 471 842 l 288 386 l 649 386 m 471 1178 q 524 1205 501 1178 q 551 1272 547 1232 l 621 1272 q 609 1211 621 1239 q 577 1163 597 1183 q 530 1130 557 1142 q 471 1118 503 1118 q 412 1130 439 1118 q 365 1163 385 1142 q 333 1211 344 1183 q 321 1272 321 1239 l 392 1272 q 415 1206 392 1235 q 471 1178 439 1178 z "},"˘":{"ha":411,"x_min":56,"x_max":356,"o":"m 206 919 q 259 947 236 919 q 286 1014 282 974 l 356 1014 q 344 953 356 981 q 312 904 332 925 q 265 872 292 883 q 206 860 238 860 q 147 872 174 860 q 99 904 119 883 q 67 953 79 925 q 56 1014 56 981 l 126 1014 q 150 948 126 976 q 206 919 174 919 z "},"Â":{"ha":940,"x_min":14,"x_max":926,"o":"m 418 986 l 524 986 l 926 0 l 793 0 l 676 289 l 263 289 l 147 0 l 14 0 l 418 986 m 649 386 l 471 842 l 288 386 l 649 386 m 286 1147 l 426 1272 l 515 1272 l 656 1147 l 589 1114 l 471 1201 l 353 1114 l 286 1147 z "},"ˆ":{"ha":475,"x_min":53,"x_max":422,"o":"m 53 889 l 193 1014 l 282 1014 l 422 889 l 356 856 l 238 943 l 119 856 l 53 889 z "},"Ä":{"ha":940,"x_min":14,"x_max":926,"o":"m 418 986 l 524 986 l 926 0 l 793 0 l 676 289 l 263 289 l 147 0 l 14 0 l 418 986 m 649 386 l 471 842 l 288 386 l 649 386 m 307 1126 l 307 1268 l 410 1268 l 410 1126 l 307 1126 m 532 1126 l 532 1268 l 635 1268 l 635 1126 l 532 1126 z "},"¨":{"ha":511,"x_min":92,"x_max":419,"o":"m 92 867 l 92 1008 l 194 1008 l 194 867 l 92 867 m 317 867 l 317 1008 l 419 1008 l 419 867 l 317 867 z "},"À":{"ha":940,"x_min":14,"x_max":926,"o":"m 418 986 l 524 986 l 926 0 l 793 0 l 676 289 l 263 289 l 147 0 l 14 0 l 418 986 m 649 386 l 471 842 l 288 386 l 649 386 m 326 1274 l 447 1274 l 529 1133 l 450 1106 l 326 1274 z "},"`":{"ha":322,"x_min":67,"x_max":269,"o":"m 67 1014 l 188 1014 l 269 874 l 190 846 l 67 1014 z "},"Ā":{"ha":940,"x_min":14,"x_max":926,"o":"m 418 986 l 524 986 l 926 0 l 793 0 l 676 289 l 263 289 l 147 0 l 14 0 l 418 986 m 649 386 l 471 842 l 288 386 l 649 386 m 268 1167 l 268 1247 l 674 1247 l 674 1167 l 268 1167 z "},"¯":{"ha":560,"x_min":78,"x_max":483,"o":"m 78 908 l 78 989 l 483 989 l 483 908 l 78 908 z "},"Ą":{"ha":939,"x_min":14,"x_max":926,"o":"m 858 -251 q 771 -212 800 -240 q 742 -144 742 -183 q 767 -72 742 -108 q 849 0 793 -36 l 793 0 l 676 289 l 263 289 l 147 0 l 14 0 l 418 986 l 524 986 l 926 0 q 839 -67 865 -37 q 813 -128 813 -97 q 889 -187 813 -179 l 858 -251 m 649 386 l 471 842 l 288 386 l 649 386 z "},"˛":{"ha":354,"x_min":81,"x_max":265,"o":"m 197 -251 q 110 -212 139 -240 q 81 -144 81 -183 q 116 -61 81 -103 q 229 25 151 -19 l 265 0 q 178 -67 204 -37 q 151 -128 151 -97 q 228 -187 151 -179 l 197 -251 l 197 -251 z "},"Å":{"ha":940,"x_min":14,"x_max":926,"o":"m 418 986 l 524 986 l 926 0 l 793 0 l 676 289 l 263 289 l 147 0 l 14 0 l 418 986 m 649 386 l 471 842 l 288 386 l 649 386 m 357 1176 q 389 1247 357 1221 q 469 1272 421 1272 q 551 1247 519 1272 q 582 1176 582 1221 q 551 1106 582 1132 q 469 1081 519 1081 q 389 1106 421 1081 q 357 1176 357 1132 m 469 1229 q 430 1215 446 1229 q 414 1176 414 1200 q 430 1139 414 1154 q 469 1124 446 1124 q 509 1138 492 1124 q 526 1176 526 1153 q 510 1215 526 1200 q 469 1229 493 1229 z "},"˚":{"ha":350,"x_min":63,"x_max":288,"o":"m 63 918 q 94 988 63 963 q 175 1014 126 1014 q 256 988 225 1014 q 288 918 288 963 q 256 848 288 874 q 175 822 225 822 q 94 848 126 822 q 63 918 63 874 m 175 971 q 135 956 151 971 q 119 918 119 942 q 135 881 119 896 q 175 865 151 865 q 215 880 197 865 q 232 918 232 894 q 215 956 232 942 q 175 971 199 971 z "},"Ǻ":{"ha":940,"x_min":14,"x_max":926,"o":"m 510 1129 q 563 1096 543 1119 q 582 1039 582 1072 q 569 990 582 1011 q 535 958 557 969 l 926 0 l 793 0 l 676 289 l 263 289 l 147 0 l 14 0 l 406 957 q 357 1039 357 983 q 380 1100 357 1075 q 439 1132 403 1125 l 500 1275 l 622 1275 l 510 1129 m 649 386 l 471 842 l 288 386 l 649 386 m 469 1092 q 430 1077 446 1092 q 414 1039 414 1063 q 430 1001 414 1017 q 469 986 446 986 q 509 1001 492 986 q 526 1039 526 1015 q 510 1077 526 1063 q 469 1092 493 1092 z "},"Ã":{"ha":940,"x_min":14,"x_max":926,"o":"m 418 986 l 524 986 l 926 0 l 793 0 l 676 289 l 263 289 l 147 0 l 14 0 l 418 986 m 649 386 l 471 842 l 288 386 l 649 386 m 557 1129 q 502 1138 525 1129 q 459 1158 479 1147 q 419 1178 439 1169 q 378 1188 400 1188 q 341 1178 354 1188 q 321 1156 328 1168 q 312 1133 314 1144 q 310 1121 310 1122 l 238 1121 q 244 1153 238 1129 q 265 1201 250 1176 q 307 1245 281 1226 q 375 1264 333 1264 q 426 1255 404 1264 q 469 1234 449 1246 q 509 1213 489 1222 q 554 1204 529 1204 q 596 1214 581 1204 q 619 1236 611 1224 q 630 1259 628 1249 q 632 1272 632 1269 l 704 1272 q 698 1241 704 1264 q 675 1193 692 1218 q 630 1149 658 1168 q 557 1129 601 1129 z "},"˜":{"ha":576,"x_min":56,"x_max":522,"o":"m 375 871 q 320 880 343 871 q 277 900 297 889 q 238 920 257 911 q 196 929 218 929 q 159 919 172 929 q 139 898 146 910 q 130 875 132 886 q 128 863 128 864 l 56 863 q 62 894 56 871 q 83 943 68 918 q 125 987 99 968 q 193 1006 151 1006 q 244 997 222 1006 q 287 976 267 988 q 327 955 307 964 q 372 946 347 946 q 414 956 399 946 q 438 978 429 965 q 448 1001 446 990 q 450 1014 450 1011 l 522 1014 q 516 983 522 1006 q 493 935 510 960 q 448 890 476 910 q 375 871 419 871 z "},"B":{"ha":932,"x_min":118,"x_max":875,"o":"m 875 254 q 852 150 875 197 q 790 69 829 103 q 698 18 750 36 q 586 0 646 0 l 118 0 l 118 986 l 608 986 q 701 964 660 986 q 772 906 743 942 q 817 826 801 871 q 833 735 833 781 q 797 599 833 661 q 692 506 760 536 q 826 413 776 481 q 875 254 875 346 m 749 276 q 737 341 749 310 q 705 396 725 372 q 657 433 685 419 q 596 447 629 447 l 243 447 l 243 108 l 586 108 q 650 122 621 108 q 701 159 679 136 q 736 213 724 182 q 749 276 749 243 m 243 878 l 243 549 l 557 549 q 618 562 590 549 q 666 597 646 575 q 698 649 686 619 q 710 713 710 679 q 699 778 710 747 q 669 831 688 808 q 623 865 650 853 q 565 878 596 878 l 243 878 z "},"C":{"ha":947,"x_min":54,"x_max":908,"o":"m 54 500 q 85 677 54 589 q 177 835 117 765 q 325 949 238 906 q 524 992 413 992 q 750 932 656 992 q 890 776 844 872 l 792 713 q 738 792 769 760 q 670 843 707 824 q 594 871 633 863 q 518 879 556 879 q 373 845 436 879 q 267 756 310 811 q 202 633 224 701 q 181 494 181 564 q 206 347 181 417 q 278 222 232 276 q 386 136 324 168 q 522 104 449 104 q 602 114 561 104 q 681 145 643 124 q 751 199 718 167 q 804 278 783 232 l 908 221 q 842 123 885 165 q 747 51 800 81 q 633 7 693 22 q 517 -8 574 -8 q 331 36 415 -8 q 184 152 246 81 q 88 315 122 224 q 54 500 54 406 z "},"Ć":{"ha":947,"x_min":54,"x_max":908,"o":"m 543 1104 l 463 1132 l 543 1272 l 665 1272 l 543 1104 m 54 500 q 85 677 54 589 q 177 835 117 765 q 325 949 238 906 q 524 992 413 992 q 750 932 656 992 q 890 776 844 872 l 792 713 q 738 792 769 760 q 670 843 707 824 q 594 871 633 863 q 518 879 556 879 q 373 845 436 879 q 267 756 310 811 q 202 633 224 701 q 181 494 181 564 q 206 347 181 417 q 278 222 232 276 q 386 136 324 168 q 522 104 449 104 q 602 114 561 104 q 681 145 643 124 q 751 199 718 167 q 804 278 783 232 l 908 221 q 842 123 885 165 q 747 51 800 81 q 633 7 693 22 q 517 -8 574 -8 q 331 36 415 -8 q 184 152 246 81 q 88 315 122 224 q 54 500 54 406 z "},"Č":{"ha":947,"x_min":54,"x_max":908,"o":"m 404 1272 l 522 1185 l 640 1272 l 707 1239 l 567 1114 l 478 1114 l 338 1239 l 404 1272 m 54 500 q 85 677 54 589 q 177 835 117 765 q 325 949 238 906 q 524 992 413 992 q 750 932 656 992 q 890 776 844 872 l 792 713 q 738 792 769 760 q 670 843 707 824 q 594 871 633 863 q 518 879 556 879 q 373 845 436 879 q 267 756 310 811 q 202 633 224 701 q 181 494 181 564 q 206 347 181 417 q 278 222 232 276 q 386 136 324 168 q 522 104 449 104 q 602 114 561 104 q 681 145 643 124 q 751 199 718 167 q 804 278 783 232 l 908 221 q 842 123 885 165 q 747 51 800 81 q 633 7 693 22 q 517 -8 574 -8 q 331 36 415 -8 q 184 152 246 81 q 88 315 122 224 q 54 500 54 406 z "},"ˇ":{"ha":475,"x_min":53,"x_max":422,"o":"m 119 1014 l 238 926 l 356 1014 l 422 981 l 282 856 l 193 856 l 53 981 l 119 1014 z "},"Ç":{"ha":943,"x_min":50,"x_max":904,"o":"m 406 -175 q 458 -193 424 -185 q 528 -201 492 -201 q 586 -190 565 -201 q 607 -153 607 -179 q 588 -115 607 -125 q 536 -104 568 -104 q 475 -110 507 -104 q 425 -122 443 -117 l 486 -7 q 310 44 390 -1 q 172 161 229 90 q 82 321 114 232 q 50 500 50 410 q 81 677 50 589 q 173 835 113 765 q 321 949 233 906 q 519 992 408 992 q 746 932 651 992 q 886 776 840 872 l 788 713 q 734 792 765 760 q 666 843 703 824 q 590 871 629 863 q 514 879 551 879 q 369 845 432 879 q 263 756 306 811 q 198 633 219 701 q 176 494 176 564 q 202 347 176 417 q 274 222 228 276 q 382 136 319 168 q 518 104 444 104 q 598 114 557 104 q 676 145 639 124 q 747 199 714 167 q 800 278 779 232 l 904 221 q 844 129 882 169 q 758 60 806 89 q 656 14 710 31 q 549 -7 603 -3 l 511 -67 q 536 -61 522 -62 q 561 -60 550 -60 q 640 -82 610 -60 q 671 -149 671 -104 q 632 -225 671 -197 q 518 -253 593 -253 q 441 -245 476 -253 q 378 -226 406 -237 l 406 -175 z "},"¸":{"ha":411,"x_min":31,"x_max":324,"o":"m 58 -175 q 110 -193 76 -185 q 181 -201 144 -201 q 239 -190 218 -201 q 260 -153 260 -179 q 240 -115 260 -125 q 189 -104 221 -104 q 128 -110 160 -104 q 78 -122 96 -117 l 158 29 l 213 10 l 164 -67 q 189 -61 175 -62 q 214 -60 203 -60 q 293 -82 263 -60 q 324 -149 324 -104 q 285 -225 324 -197 q 171 -253 246 -253 q 94 -245 129 -253 q 31 -226 58 -237 l 58 -175 z "},"Ĉ":{"ha":947,"x_min":54,"x_max":908,"o":"m 338 1147 l 478 1272 l 567 1272 l 707 1147 l 640 1114 l 522 1201 l 404 1114 l 338 1147 m 54 500 q 85 677 54 589 q 177 835 117 765 q 325 949 238 906 q 524 992 413 992 q 750 932 656 992 q 890 776 844 872 l 792 713 q 738 792 769 760 q 670 843 707 824 q 594 871 633 863 q 518 879 556 879 q 373 845 436 879 q 267 756 310 811 q 202 633 224 701 q 181 494 181 564 q 206 347 181 417 q 278 222 232 276 q 386 136 324 168 q 522 104 449 104 q 602 114 561 104 q 681 145 643 124 q 751 199 718 167 q 804 278 783 232 l 908 221 q 842 123 885 165 q 747 51 800 81 q 633 7 693 22 q 517 -8 574 -8 q 331 36 415 -8 q 184 152 246 81 q 88 315 122 224 q 54 500 54 406 z "},"Ċ":{"ha":947,"x_min":54,"x_max":908,"o":"m 54 500 q 85 677 54 589 q 177 835 117 765 q 325 949 238 906 q 524 992 413 992 q 750 932 656 992 q 890 776 844 872 l 792 713 q 738 792 769 760 q 670 843 707 824 q 594 871 633 863 q 518 879 556 879 q 373 845 436 879 q 267 756 310 811 q 202 633 224 701 q 181 494 181 564 q 206 347 181 417 q 278 222 232 276 q 386 136 324 168 q 522 104 449 104 q 602 114 561 104 q 681 145 643 124 q 751 199 718 167 q 804 278 783 232 l 908 221 q 842 123 885 165 q 747 51 800 81 q 633 7 693 22 q 517 -8 574 -8 q 331 36 415 -8 q 184 152 246 81 q 88 315 122 224 q 54 500 54 406 m 467 1125 l 467 1272 l 578 1272 l 578 1125 l 467 1125 z "},"˙":{"ha":250,"x_min":69,"x_max":181,"o":"m 69 867 l 69 1014 l 181 1014 l 181 867 l 69 867 z "},"D":{"ha":994,"x_min":118,"x_max":936,"o":"m 118 0 l 118 986 l 460 986 q 667 947 578 986 q 817 842 757 908 q 906 685 876 775 q 936 494 936 596 q 903 291 936 382 q 807 135 869 200 q 656 35 744 71 q 460 0 568 0 l 118 0 m 810 494 q 787 648 810 578 q 719 768 764 718 q 608 847 674 818 q 460 875 543 875 l 243 875 l 243 111 l 460 111 q 610 140 544 111 q 720 221 676 169 q 787 342 764 272 q 810 494 810 413 z "},"Ď":{"ha":994,"x_min":118,"x_max":936,"o":"m 354 1272 l 472 1185 l 590 1272 l 657 1239 l 517 1114 l 428 1114 l 288 1239 l 354 1272 m 118 0 l 118 986 l 460 986 q 667 947 578 986 q 817 842 757 908 q 906 685 876 775 q 936 494 936 596 q 903 291 936 382 q 807 135 869 200 q 656 35 744 71 q 460 0 568 0 l 118 0 m 810 494 q 787 648 810 578 q 719 768 764 718 q 608 847 674 818 q 460 875 543 875 l 243 875 l 243 111 l 460 111 q 610 140 544 111 q 720 221 676 169 q 787 342 764 272 q 810 494 810 413 z "},"Đ":{"ha":1003,"x_min":47,"x_max":944,"o":"m 126 0 l 126 449 l 47 449 l 47 543 l 126 543 l 126 986 l 468 986 q 676 947 586 986 q 825 842 765 908 q 915 685 885 775 q 944 494 944 596 q 911 291 944 382 q 815 135 878 200 q 665 35 753 71 q 468 0 576 0 l 126 0 m 818 494 q 795 648 818 578 q 727 768 772 718 q 617 847 682 818 q 468 875 551 875 l 251 875 l 251 543 l 475 543 l 475 449 l 251 449 l 251 111 l 468 111 q 619 140 553 111 q 728 221 685 169 q 795 342 772 272 q 818 494 818 413 z "},"E":{"ha":840,"x_min":118,"x_max":788,"o":"m 788 111 l 788 0 l 118 0 l 118 986 l 775 986 l 775 875 l 243 875 l 243 556 l 706 556 l 706 451 l 243 451 l 243 111 l 788 111 z "},"É":{"ha":840,"x_min":118,"x_max":788,"o":"m 485 1104 l 404 1132 l 485 1272 l 607 1272 l 485 1104 m 788 111 l 788 0 l 118 0 l 118 986 l 775 986 l 775 875 l 243 875 l 243 556 l 706 556 l 706 451 l 243 451 l 243 111 l 788 111 z "},"Ĕ":{"ha":840,"x_min":118,"x_max":788,"o":"m 788 111 l 788 0 l 118 0 l 118 986 l 775 986 l 775 875 l 243 875 l 243 556 l 706 556 l 706 451 l 243 451 l 243 111 l 788 111 m 464 1178 q 517 1205 494 1178 q 544 1272 540 1232 l 614 1272 q 602 1211 614 1239 q 570 1163 590 1183 q 523 1130 550 1142 q 464 1118 496 1118 q 405 1130 432 1118 q 358 1163 378 1142 q 326 1211 338 1183 q 314 1272 314 1239 l 385 1272 q 408 1206 385 1235 q 464 1178 432 1178 z "},"Ě":{"ha":840,"x_min":118,"x_max":788,"o":"m 346 1272 l 464 1185 l 582 1272 l 649 1239 l 508 1114 l 419 1114 l 279 1239 l 346 1272 m 788 111 l 788 0 l 118 0 l 118 986 l 775 986 l 775 875 l 243 875 l 243 556 l 706 556 l 706 451 l 243 451 l 243 111 l 788 111 z "},"Ê":{"ha":840,"x_min":118,"x_max":788,"o":"m 279 1147 l 419 1272 l 508 1272 l 649 1147 l 582 1114 l 464 1201 l 346 1114 l 279 1147 m 788 111 l 788 0 l 118 0 l 118 986 l 775 986 l 775 875 l 243 875 l 243 556 l 706 556 l 706 451 l 243 451 l 243 111 l 788 111 z "},"Ë":{"ha":840,"x_min":118,"x_max":788,"o":"m 300 1126 l 300 1268 l 403 1268 l 403 1126 l 300 1126 m 525 1126 l 525 1268 l 628 1268 l 628 1126 l 525 1126 m 788 111 l 788 0 l 118 0 l 118 986 l 775 986 l 775 875 l 243 875 l 243 556 l 706 556 l 706 451 l 243 451 l 243 111 l 788 111 z "},"Ė":{"ha":840,"x_min":118,"x_max":788,"o":"m 788 111 l 788 0 l 118 0 l 118 986 l 775 986 l 775 875 l 243 875 l 243 556 l 706 556 l 706 451 l 243 451 l 243 111 l 788 111 m 408 1125 l 408 1272 l 519 1272 l 519 1125 l 408 1125 z "},"È":{"ha":840,"x_min":118,"x_max":788,"o":"m 788 111 l 788 0 l 118 0 l 118 986 l 775 986 l 775 875 l 243 875 l 243 556 l 706 556 l 706 451 l 243 451 l 243 111 l 788 111 m 319 1274 l 440 1274 l 522 1133 l 443 1106 l 319 1274 z "},"Ē":{"ha":840,"x_min":118,"x_max":788,"o":"m 788 111 l 788 0 l 118 0 l 118 986 l 775 986 l 775 875 l 243 875 l 243 556 l 706 556 l 706 451 l 243 451 l 243 111 l 788 111 m 263 1167 l 263 1247 l 668 1247 l 668 1167 l 263 1167 z "},"Ŋ":{"ha":1058,"x_min":118,"x_max":940,"o":"m 243 750 l 243 0 l 118 0 l 118 986 l 214 986 l 815 224 l 815 985 l 940 985 l 940 -28 q 922 -122 940 -79 q 871 -194 903 -164 q 798 -242 839 -225 q 714 -258 757 -258 q 624 -244 667 -258 q 549 -200 582 -231 l 606 -118 q 650 -143 625 -136 q 700 -150 675 -150 q 744 -141 722 -150 q 782 -117 765 -132 q 808 -79 799 -101 q 818 -32 818 -57 l 818 21 l 243 750 z "},"Ę":{"ha":840,"x_min":118,"x_max":788,"o":"m 788 111 l 788 0 q 700 -67 726 -37 q 674 -128 674 -97 q 750 -187 674 -179 l 719 -251 q 632 -212 661 -240 q 603 -144 603 -183 q 628 -72 603 -108 q 710 0 654 -36 l 118 0 l 118 986 l 775 986 l 775 875 l 243 875 l 243 556 l 706 556 l 706 451 l 243 451 l 243 111 l 788 111 z "},"Ð":{"ha":1003,"x_min":47,"x_max":944,"o":"m 126 0 l 126 449 l 47 449 l 47 543 l 126 543 l 126 986 l 468 986 q 676 947 586 986 q 825 842 765 908 q 915 685 885 775 q 944 494 944 596 q 911 291 944 382 q 815 135 878 200 q 665 35 753 71 q 468 0 576 0 l 126 0 m 818 494 q 795 648 818 578 q 727 768 772 718 q 617 847 682 818 q 468 875 551 875 l 251 875 l 251 543 l 475 543 l 475 449 l 251 449 l 251 111 l 468 111 q 619 140 553 111 q 728 221 685 169 q 795 342 772 272 q 818 494 818 413 z "},"Ẽ":{"ha":840,"x_min":118,"x_max":788,"o":"m 788 111 l 788 0 l 118 0 l 118 986 l 775 986 l 775 875 l 243 875 l 243 556 l 706 556 l 706 451 l 243 451 l 243 111 l 788 111 m 550 1129 q 495 1138 518 1129 q 452 1158 472 1147 q 413 1178 432 1169 q 371 1188 393 1188 q 334 1178 347 1188 q 314 1156 321 1168 q 305 1133 307 1144 q 303 1121 303 1122 l 231 1121 q 237 1153 231 1129 q 258 1201 243 1176 q 300 1245 274 1226 q 368 1264 326 1264 q 419 1255 397 1264 q 462 1234 442 1246 q 502 1213 482 1222 q 547 1204 522 1204 q 589 1214 574 1204 q 613 1236 604 1224 q 623 1259 621 1249 q 625 1272 625 1269 l 697 1272 q 691 1241 697 1264 q 668 1193 685 1218 q 623 1149 651 1168 q 550 1129 594 1129 z "},"€":{"ha":1104,"x_min":46,"x_max":1035,"o":"m 188 586 q 238 738 201 665 q 334 867 275 811 q 472 958 393 924 q 650 992 551 992 q 876 932 782 992 q 1017 776 971 872 l 918 713 q 865 792 896 760 q 797 843 833 824 q 721 871 760 863 q 644 879 682 879 q 520 855 575 879 q 424 790 465 831 q 355 697 382 750 q 315 586 328 644 l 753 586 l 722 514 l 307 514 l 307 494 q 311 432 307 461 l 704 432 l 674 360 l 328 360 q 376 258 346 306 q 449 177 407 211 q 541 124 490 143 q 649 104 592 104 q 728 114 688 104 q 807 145 769 124 q 877 199 844 167 q 931 278 910 232 l 1035 221 q 969 123 1011 165 q 873 51 926 81 q 760 7 819 22 q 643 -8 700 -8 q 488 22 560 -8 q 360 101 417 51 q 262 218 303 151 q 200 360 221 285 l 46 360 l 76 432 l 185 432 q 181 500 181 465 l 181 514 l 79 514 l 110 586 l 188 586 z "},"F":{"ha":810,"x_min":118,"x_max":769,"o":"m 118 0 l 118 986 l 769 986 l 769 875 l 243 875 l 243 546 l 686 546 l 686 442 l 243 442 l 243 0 l 118 0 z "},"G":{"ha":992,"x_min":54,"x_max":919,"o":"m 814 133 q 514 -7 683 -7 q 331 36 415 -7 q 186 149 247 79 q 90 310 125 219 q 54 496 54 400 q 89 685 54 596 q 185 844 124 775 q 331 953 246 913 q 514 993 415 993 q 749 933 657 993 q 890 778 842 874 l 794 711 q 676 839 750 797 q 511 881 603 881 q 375 848 436 881 q 271 762 314 815 q 204 638 228 708 q 181 493 181 568 q 207 344 181 414 q 279 220 233 274 q 388 136 325 167 q 524 106 450 106 q 814 261 685 106 l 814 397 l 601 397 l 601 492 l 919 492 l 919 0 l 814 0 l 814 133 z "},"Ğ":{"ha":992,"x_min":54,"x_max":919,"o":"m 814 133 q 514 -7 683 -7 q 331 36 415 -7 q 186 149 247 79 q 90 310 125 219 q 54 496 54 400 q 89 685 54 596 q 185 844 124 775 q 331 953 246 913 q 514 993 415 993 q 749 933 657 993 q 890 778 842 874 l 794 711 q 676 839 750 797 q 511 881 603 881 q 375 848 436 881 q 271 762 314 815 q 204 638 228 708 q 181 493 181 568 q 207 344 181 414 q 279 220 233 274 q 388 136 325 167 q 524 106 450 106 q 814 261 685 106 l 814 397 l 601 397 l 601 492 l 919 492 l 919 0 l 814 0 l 814 133 m 513 1178 q 566 1205 543 1178 q 593 1272 589 1232 l 663 1272 q 651 1211 663 1239 q 619 1163 639 1183 q 572 1130 599 1142 q 513 1118 544 1118 q 453 1130 481 1118 q 406 1163 426 1142 q 374 1211 386 1183 q 363 1272 363 1239 l 433 1272 q 457 1206 433 1235 q 513 1178 481 1178 z "},"Ĝ":{"ha":992,"x_min":54,"x_max":919,"o":"m 328 1147 l 468 1272 l 557 1272 l 697 1147 l 631 1114 l 513 1201 l 394 1114 l 328 1147 m 814 133 q 514 -7 683 -7 q 331 36 415 -7 q 186 149 247 79 q 90 310 125 219 q 54 496 54 400 q 89 685 54 596 q 185 844 124 775 q 331 953 246 913 q 514 993 415 993 q 749 933 657 993 q 890 778 842 874 l 794 711 q 676 839 750 797 q 511 881 603 881 q 375 848 436 881 q 271 762 314 815 q 204 638 228 708 q 181 493 181 568 q 207 344 181 414 q 279 220 233 274 q 388 136 325 167 q 524 106 450 106 q 814 261 685 106 l 814 397 l 601 397 l 601 492 l 919 492 l 919 0 l 814 0 l 814 133 z "},"Ģ":{"ha":992,"x_min":54,"x_max":919,"o":"m 468 -296 l 496 -183 l 461 -183 l 461 -67 l 569 -67 l 569 -183 l 528 -296 l 468 -296 m 814 133 q 514 -7 683 -7 q 331 36 415 -7 q 186 149 247 79 q 90 310 125 219 q 54 496 54 400 q 89 685 54 596 q 185 844 124 775 q 331 953 246 913 q 514 993 415 993 q 749 933 657 993 q 890 778 842 874 l 794 711 q 676 839 750 797 q 511 881 603 881 q 375 848 436 881 q 271 762 314 815 q 204 638 228 708 q 181 493 181 568 q 207 344 181 414 q 279 220 233 274 q 388 136 325 167 q 524 106 450 106 q 814 261 685 106 l 814 397 l 601 397 l 601 492 l 919 492 l 919 0 l 814 0 l 814 133 z "},"":{"ha":233,"x_min":81,"x_max":189,"o":"m 88 -296 l 115 -183 l 81 -183 l 81 -67 l 189 -67 l 189 -183 l 147 -296 l 88 -296 z "},"Ġ":{"ha":992,"x_min":54,"x_max":919,"o":"m 814 133 q 514 -7 683 -7 q 331 36 415 -7 q 186 149 247 79 q 90 310 125 219 q 54 496 54 400 q 89 685 54 596 q 185 844 124 775 q 331 953 246 913 q 514 993 415 993 q 749 933 657 993 q 890 778 842 874 l 794 711 q 676 839 750 797 q 511 881 603 881 q 375 848 436 881 q 271 762 314 815 q 204 638 228 708 q 181 493 181 568 q 207 344 181 414 q 279 220 233 274 q 388 136 325 167 q 524 106 450 106 q 814 261 685 106 l 814 397 l 601 397 l 601 492 l 919 492 l 919 0 l 814 0 l 814 133 m 457 1125 l 457 1272 l 568 1272 l 568 1125 l 457 1125 z "},"H":{"ha":1029,"x_min":118,"x_max":911,"o":"m 911 986 l 911 0 l 786 0 l 786 449 l 243 449 l 243 0 l 118 0 l 118 986 l 243 986 l 243 560 l 786 560 l 786 986 l 911 986 z "},"Ħ":{"ha":1043,"x_min":56,"x_max":988,"o":"m 918 986 l 918 826 l 988 826 l 988 761 l 918 761 l 918 0 l 793 0 l 793 449 l 250 449 l 250 0 l 125 0 l 125 761 l 56 761 l 56 826 l 125 826 l 125 986 l 250 986 l 250 826 l 793 826 l 793 986 l 918 986 m 793 560 l 793 761 l 250 761 l 250 560 l 793 560 z "},"Ĥ":{"ha":1029,"x_min":118,"x_max":911,"o":"m 333 1147 l 474 1272 l 563 1272 l 703 1147 l 636 1114 l 518 1201 l 400 1114 l 333 1147 m 911 986 l 911 0 l 786 0 l 786 449 l 243 449 l 243 0 l 118 0 l 118 986 l 243 986 l 243 560 l 786 560 l 786 986 l 911 986 z "},"I":{"ha":361,"x_min":118,"x_max":243,"o":"m 118 0 l 118 986 l 243 986 l 243 0 l 118 0 z "},"Ĳ":{"ha":1035,"x_min":118,"x_max":928,"o":"m 118 0 l 118 986 l 243 986 l 243 0 l 118 0 m 410 147 q 485 113 438 128 q 592 97 532 97 q 704 122 663 97 q 767 197 746 147 q 796 318 789 246 q 803 485 803 390 l 803 986 l 928 986 l 928 485 q 917 280 928 372 q 872 122 907 188 q 770 21 836 57 q 592 -15 704 -15 q 378 46 467 -15 l 410 147 z "},"J":{"ha":674,"x_min":17,"x_max":567,"o":"m 49 147 q 124 113 76 128 q 231 97 171 97 q 343 122 301 97 q 406 197 385 147 q 435 318 428 246 q 442 485 442 390 l 442 986 l 567 986 l 567 485 q 556 280 567 372 q 510 122 546 188 q 409 21 475 57 q 231 -15 343 -15 q 17 46 106 -15 l 49 147 z "},"Í":{"ha":361,"x_min":118,"x_max":324,"o":"m 118 0 l 118 986 l 243 986 l 243 0 l 118 0 m 201 1104 l 121 1132 l 201 1272 l 324 1272 l 201 1104 z "},"Ĭ":{"ha":361,"x_min":31,"x_max":331,"o":"m 118 0 l 118 986 l 243 986 l 243 0 l 118 0 m 181 1178 q 234 1205 211 1178 q 261 1272 257 1232 l 331 1272 q 319 1211 331 1239 q 287 1163 307 1183 q 240 1130 267 1142 q 181 1118 213 1118 q 122 1130 149 1118 q 74 1163 94 1142 q 42 1211 54 1183 q 31 1272 31 1239 l 101 1272 q 125 1206 101 1235 q 181 1178 149 1178 z "},"Î":{"ha":361,"x_min":-4,"x_max":365,"o":"m 118 0 l 118 986 l 243 986 l 243 0 l 118 0 m -4 1147 l 136 1272 l 225 1272 l 365 1147 l 299 1114 l 181 1201 l 63 1114 l -4 1147 z "},"Ï":{"ha":361,"x_min":17,"x_max":344,"o":"m 118 0 l 118 986 l 243 986 l 243 0 l 118 0 m 17 1126 l 17 1268 l 119 1268 l 119 1126 l 17 1126 m 242 1126 l 242 1268 l 344 1268 l 344 1126 l 242 1126 z "},"İ":{"ha":361,"x_min":118,"x_max":243,"o":"m 118 0 l 118 986 l 243 986 l 243 0 l 118 0 m 125 1125 l 125 1272 l 236 1272 l 236 1125 l 125 1125 z "},"Ì":{"ha":361,"x_min":36,"x_max":243,"o":"m 118 0 l 118 986 l 243 986 l 243 0 l 118 0 m 36 1274 l 157 1274 l 239 1133 l 160 1106 l 36 1274 z "},"Ī":{"ha":361,"x_min":-21,"x_max":385,"o":"m 118 0 l 118 986 l 243 986 l 243 0 l 118 0 m -21 1167 l -21 1247 l 385 1247 l 385 1167 l -21 1167 z "},"Į":{"ha":361,"x_min":58,"x_max":243,"o":"m 175 -251 q 88 -212 117 -240 q 58 -144 58 -183 q 84 -72 58 -108 q 165 0 110 -36 l 118 0 l 118 986 l 243 986 l 243 0 q 156 -67 182 -37 q 129 -128 129 -97 q 206 -187 129 -179 l 175 -251 l 175 -251 z "},"Ĩ":{"ha":361,"x_min":-53,"x_max":414,"o":"m 118 0 l 118 986 l 243 986 l 243 0 l 118 0 m 267 1129 q 212 1138 235 1129 q 169 1158 189 1147 q 129 1178 149 1169 q 88 1188 110 1188 q 51 1178 64 1188 q 31 1156 38 1168 q 22 1133 24 1144 q 19 1121 19 1122 l -53 1121 q -47 1153 -53 1129 q -25 1201 -40 1176 q 17 1245 -10 1226 q 85 1264 43 1264 q 136 1255 114 1264 q 178 1234 158 1246 q 219 1213 199 1222 q 264 1204 239 1204 q 306 1214 290 1204 q 329 1236 321 1224 q 340 1259 338 1249 q 342 1272 342 1269 l 414 1272 q 408 1241 414 1264 q 385 1193 401 1218 q 340 1149 368 1168 q 267 1129 311 1129 z "},"Ĵ":{"ha":674,"x_min":17,"x_max":690,"o":"m 321 1147 l 461 1272 l 550 1272 l 690 1147 l 624 1114 l 506 1201 l 388 1114 l 321 1147 m 49 147 q 124 113 76 128 q 231 97 171 97 q 343 122 301 97 q 406 197 385 147 q 435 318 428 246 q 442 485 442 390 l 442 986 l 567 986 l 567 485 q 556 280 567 372 q 510 122 546 188 q 409 21 475 57 q 231 -15 343 -15 q 17 46 106 -15 l 49 147 z "},"K":{"ha":906,"x_min":118,"x_max":908,"o":"m 118 0 l 118 985 l 243 985 l 243 440 l 751 986 l 886 986 l 490 551 l 908 0 l 772 0 l 414 479 l 243 301 l 243 0 l 118 0 z "},"Ķ":{"ha":906,"x_min":118,"x_max":908,"o":"m 417 -296 l 444 -183 l 410 -183 l 410 -67 l 518 -67 l 518 -183 l 476 -296 l 417 -296 m 118 0 l 118 985 l 243 985 l 243 440 l 751 986 l 886 986 l 490 551 l 908 0 l 772 0 l 414 479 l 243 301 l 243 0 l 118 0 z "},"L":{"ha":811,"x_min":118,"x_max":793,"o":"m 118 0 l 118 986 l 243 986 l 243 111 l 793 111 l 793 0 l 118 0 z "},"Ĺ":{"ha":811,"x_min":118,"x_max":793,"o":"m 504 1104 l 424 1132 l 504 1272 l 626 1272 l 504 1104 m 118 0 l 118 986 l 243 986 l 243 111 l 793 111 l 793 0 l 118 0 z "},"Ľ":{"ha":811,"x_min":118,"x_max":793,"o":"m 543 846 l 463 874 l 543 1014 l 665 1014 l 543 846 m 118 0 l 118 986 l 243 986 l 243 111 l 793 111 l 793 0 l 118 0 z "},"Ļ":{"ha":811,"x_min":118,"x_max":793,"o":"m 413 -296 l 440 -183 l 406 -183 l 406 -67 l 514 -67 l 514 -183 l 472 -296 l 413 -296 m 118 0 l 118 986 l 243 986 l 243 111 l 793 111 l 793 0 l 118 0 z "},"Ŀ":{"ha":811,"x_min":118,"x_max":793,"o":"m 118 0 l 118 986 l 243 986 l 243 111 l 793 111 l 793 0 l 118 0 m 508 476 l 508 649 l 611 649 l 611 476 l 508 476 z "},"·":{"ha":281,"x_min":89,"x_max":192,"o":"m 89 340 l 89 513 l 192 513 l 192 340 l 89 340 z "},"Ł":{"ha":821,"x_min":14,"x_max":803,"o":"m 128 0 l 128 383 l 50 324 l 14 393 l 128 479 l 128 986 l 253 986 l 253 575 l 450 726 l 485 658 l 253 479 l 253 111 l 803 111 l 803 0 l 128 0 z "},"M":{"ha":1214,"x_min":118,"x_max":1096,"o":"m 971 0 l 971 763 l 643 178 l 572 178 l 243 763 l 243 0 l 118 0 l 118 986 l 250 986 l 607 346 l 965 986 l 1096 986 l 1096 0 l 971 0 z "},"N":{"ha":1069,"x_min":118,"x_max":951,"o":"m 243 753 l 243 0 l 118 0 l 118 986 l 215 986 l 826 218 l 826 985 l 951 985 l 951 0 l 846 0 l 243 753 z "},"A":{"ha":940,"x_min":14,"x_max":926,"o":"m 418 986 l 524 986 l 926 0 l 793 0 l 676 289 l 263 289 l 147 0 l 14 0 l 418 986 m 649 386 l 471 842 l 288 386 l 649 386 z "},"Ń":{"ha":1069,"x_min":118,"x_max":951,"o":"m 558 1104 l 478 1132 l 558 1272 l 681 1272 l 558 1104 m 243 753 l 243 0 l 118 0 l 118 986 l 215 986 l 826 218 l 826 985 l 951 985 l 951 0 l 846 0 l 243 753 z "},"Ň":{"ha":1069,"x_min":118,"x_max":951,"o":"m 419 1272 l 538 1185 l 656 1272 l 722 1239 l 582 1114 l 493 1114 l 353 1239 l 419 1272 m 243 753 l 243 0 l 118 0 l 118 986 l 215 986 l 826 218 l 826 985 l 951 985 l 951 0 l 846 0 l 243 753 z "},"Ņ":{"ha":1069,"x_min":118,"x_max":951,"o":"m 486 -296 l 514 -183 l 479 -183 l 479 -67 l 588 -67 l 588 -183 l 546 -296 l 486 -296 m 243 753 l 243 0 l 118 0 l 118 986 l 215 986 l 826 218 l 826 985 l 951 985 l 951 0 l 846 0 l 243 753 z "},"Ṅ":{"ha":1069,"x_min":118,"x_max":951,"o":"m 482 1125 l 482 1272 l 593 1272 l 593 1125 l 482 1125 m 243 753 l 243 0 l 118 0 l 118 986 l 215 986 l 826 218 l 826 985 l 951 985 l 951 0 l 846 0 l 243 753 z "},"Ñ":{"ha":1069,"x_min":118,"x_max":951,"o":"m 243 753 l 243 0 l 118 0 l 118 986 l 215 986 l 826 218 l 826 985 l 951 985 l 951 0 l 846 0 l 243 753 m 624 1129 q 569 1138 592 1129 q 526 1158 546 1147 q 486 1178 506 1169 q 444 1188 467 1188 q 408 1178 421 1188 q 388 1156 394 1168 q 378 1133 381 1144 q 376 1121 376 1122 l 304 1121 q 310 1153 304 1129 q 332 1201 317 1176 q 374 1245 347 1226 q 442 1264 400 1264 q 493 1255 471 1264 q 535 1234 515 1246 q 576 1213 556 1222 q 621 1204 596 1204 q 663 1214 647 1204 q 686 1236 678 1224 q 697 1259 694 1249 q 699 1272 699 1269 l 771 1272 q 765 1241 771 1264 q 742 1193 758 1218 q 697 1149 725 1168 q 624 1129 668 1129 z "},"O":{"ha":1039,"x_min":54,"x_max":983,"o":"m 518 -7 q 328 35 414 -7 q 182 148 243 78 q 88 308 121 218 q 54 493 54 399 q 90 682 54 592 q 188 842 125 772 q 335 952 250 911 q 521 993 421 993 q 710 949 625 993 q 856 835 794 906 q 950 674 917 764 q 983 492 983 585 q 948 303 983 393 q 851 144 913 213 q 703 34 789 75 q 518 -7 618 -7 m 181 493 q 205 348 181 418 q 274 224 229 278 q 381 138 318 169 q 519 106 443 106 q 661 140 599 106 q 767 228 724 174 q 834 353 811 283 q 857 493 857 422 q 833 638 857 568 q 763 762 808 708 q 656 847 718 815 q 519 879 594 879 q 378 846 440 879 q 272 758 315 813 q 204 635 228 704 q 181 493 181 565 z "},"Œ":{"ha":1571,"x_min":54,"x_max":1519,"o":"m 1519 111 l 1519 0 l 861 0 l 861 218 q 803 128 838 169 q 724 58 768 88 q 628 10 679 28 q 519 -7 576 -7 q 330 35 415 -7 q 183 148 244 78 q 88 308 122 218 q 54 493 54 399 q 90 682 54 592 q 188 842 125 772 q 335 952 250 911 q 521 993 421 993 q 631 976 579 993 q 726 928 683 958 q 803 856 769 897 q 861 768 838 815 l 861 986 l 1507 986 l 1507 875 l 986 875 l 986 558 l 1432 558 l 1432 447 l 986 447 l 986 111 l 1519 111 m 519 106 q 661 139 599 106 q 767 227 724 172 q 834 352 811 282 q 857 494 857 422 q 833 639 857 569 q 763 763 808 708 q 656 849 718 817 q 519 881 594 881 q 378 847 440 881 q 272 759 315 814 q 204 635 228 704 q 181 493 181 565 q 205 348 181 418 q 274 224 229 278 q 381 138 318 169 q 519 106 443 106 z "},"Ó":{"ha":1039,"x_min":54,"x_max":983,"o":"m 542 1104 l 461 1132 l 542 1272 l 664 1272 l 542 1104 m 518 -7 q 328 35 414 -7 q 182 148 243 78 q 88 308 121 218 q 54 493 54 399 q 90 682 54 592 q 188 842 125 772 q 335 952 250 911 q 521 993 421 993 q 710 949 625 993 q 856 835 794 906 q 950 674 917 764 q 983 492 983 585 q 948 303 983 393 q 851 144 913 213 q 703 34 789 75 q 518 -7 618 -7 m 181 493 q 205 348 181 418 q 274 224 229 278 q 381 138 318 169 q 519 106 443 106 q 661 140 599 106 q 767 228 724 174 q 834 353 811 283 q 857 493 857 422 q 833 638 857 568 q 763 762 808 708 q 656 847 718 815 q 519 879 594 879 q 378 846 440 879 q 272 758 315 813 q 204 635 228 704 q 181 493 181 565 z "},"Ŏ":{"ha":1039,"x_min":54,"x_max":983,"o":"m 518 -7 q 328 35 414 -7 q 182 148 243 78 q 88 308 121 218 q 54 493 54 399 q 90 682 54 592 q 188 842 125 772 q 335 952 250 911 q 521 993 421 993 q 710 949 625 993 q 856 835 794 906 q 950 674 917 764 q 983 492 983 585 q 948 303 983 393 q 851 144 913 213 q 703 34 789 75 q 518 -7 618 -7 m 181 493 q 205 348 181 418 q 274 224 229 278 q 381 138 318 169 q 519 106 443 106 q 661 140 599 106 q 767 228 724 174 q 834 353 811 283 q 857 493 857 422 q 833 638 857 568 q 763 762 808 708 q 656 847 718 815 q 519 879 594 879 q 378 846 440 879 q 272 758 315 813 q 204 635 228 704 q 181 493 181 565 m 521 1178 q 574 1205 551 1178 q 601 1272 597 1232 l 671 1272 q 659 1211 671 1239 q 627 1163 647 1183 q 580 1130 607 1142 q 521 1118 553 1118 q 462 1130 489 1118 q 415 1163 435 1142 q 383 1211 394 1183 q 371 1272 371 1239 l 442 1272 q 465 1206 442 1235 q 521 1178 489 1178 z "},"Ô":{"ha":1039,"x_min":54,"x_max":983,"o":"m 336 1147 l 476 1272 l 565 1272 l 706 1147 l 639 1114 l 521 1201 l 403 1114 l 336 1147 m 518 -7 q 328 35 414 -7 q 182 148 243 78 q 88 308 121 218 q 54 493 54 399 q 90 682 54 592 q 188 842 125 772 q 335 952 250 911 q 521 993 421 993 q 710 949 625 993 q 856 835 794 906 q 950 674 917 764 q 983 492 983 585 q 948 303 983 393 q 851 144 913 213 q 703 34 789 75 q 518 -7 618 -7 m 181 493 q 205 348 181 418 q 274 224 229 278 q 381 138 318 169 q 519 106 443 106 q 661 140 599 106 q 767 228 724 174 q 834 353 811 283 q 857 493 857 422 q 833 638 857 568 q 763 762 808 708 q 656 847 718 815 q 519 879 594 879 q 378 846 440 879 q 272 758 315 813 q 204 635 228 704 q 181 493 181 565 z "},"Ö":{"ha":1039,"x_min":54,"x_max":983,"o":"m 357 1126 l 357 1268 l 460 1268 l 460 1126 l 357 1126 m 582 1126 l 582 1268 l 685 1268 l 685 1126 l 582 1126 m 518 -7 q 328 35 414 -7 q 182 148 243 78 q 88 308 121 218 q 54 493 54 399 q 90 682 54 592 q 188 842 125 772 q 335 952 250 911 q 521 993 421 993 q 710 949 625 993 q 856 835 794 906 q 950 674 917 764 q 983 492 983 585 q 948 303 983 393 q 851 144 913 213 q 703 34 789 75 q 518 -7 618 -7 m 181 493 q 205 348 181 418 q 274 224 229 278 q 381 138 318 169 q 519 106 443 106 q 661 140 599 106 q 767 228 724 174 q 834 353 811 283 q 857 493 857 422 q 833 638 857 568 q 763 762 808 708 q 656 847 718 815 q 519 879 594 879 q 378 846 440 879 q 272 758 315 813 q 204 635 228 704 q 181 493 181 565 z "},"Ò":{"ha":1039,"x_min":54,"x_max":983,"o":"m 518 -7 q 328 35 414 -7 q 182 148 243 78 q 88 308 121 218 q 54 493 54 399 q 90 682 54 592 q 188 842 125 772 q 335 952 250 911 q 521 993 421 993 q 710 949 625 993 q 856 835 794 906 q 950 674 917 764 q 983 492 983 585 q 948 303 983 393 q 851 144 913 213 q 703 34 789 75 q 518 -7 618 -7 m 181 493 q 205 348 181 418 q 274 224 229 278 q 381 138 318 169 q 519 106 443 106 q 661 140 599 106 q 767 228 724 174 q 834 353 811 283 q 857 493 857 422 q 833 638 857 568 q 763 762 808 708 q 656 847 718 815 q 519 879 594 879 q 378 846 440 879 q 272 758 315 813 q 204 635 228 704 q 181 493 181 565 m 376 1274 l 497 1274 l 579 1133 l 500 1106 l 376 1274 z "},"Ő":{"ha":1039,"x_min":54,"x_max":983,"o":"m 433 1106 l 369 1133 l 444 1274 l 550 1274 l 433 1106 m 622 1106 l 558 1133 l 633 1274 l 739 1274 l 622 1106 m 518 -7 q 328 35 414 -7 q 182 148 243 78 q 88 308 121 218 q 54 493 54 399 q 90 682 54 592 q 188 842 125 772 q 335 952 250 911 q 521 993 421 993 q 710 949 625 993 q 856 835 794 906 q 950 674 917 764 q 983 492 983 585 q 948 303 983 393 q 851 144 913 213 q 703 34 789 75 q 518 -7 618 -7 m 181 493 q 205 348 181 418 q 274 224 229 278 q 381 138 318 169 q 519 106 443 106 q 661 140 599 106 q 767 228 724 174 q 834 353 811 283 q 857 493 857 422 q 833 638 857 568 q 763 762 808 708 q 656 847 718 815 q 519 879 594 879 q 378 846 440 879 q 272 758 315 813 q 204 635 228 704 q 181 493 181 565 z "},"˝":{"ha":469,"x_min":56,"x_max":425,"o":"m 119 846 l 56 874 l 131 1014 l 236 1014 l 119 846 m 308 846 l 244 874 l 319 1014 l 425 1014 l 308 846 z "},"Ō":{"ha":1039,"x_min":54,"x_max":983,"o":"m 319 1167 l 319 1247 l 725 1247 l 725 1167 l 319 1167 m 518 -7 q 328 35 414 -7 q 182 148 243 78 q 88 308 121 218 q 54 493 54 399 q 90 682 54 592 q 188 842 125 772 q 335 952 250 911 q 521 993 421 993 q 710 949 625 993 q 856 835 794 906 q 950 674 917 764 q 983 492 983 585 q 948 303 983 393 q 851 144 913 213 q 703 34 789 75 q 518 -7 618 -7 m 181 493 q 205 348 181 418 q 274 224 229 278 q 381 138 318 169 q 519 106 443 106 q 661 140 599 106 q 767 228 724 174 q 834 353 811 283 q 857 493 857 422 q 833 638 857 568 q 763 762 808 708 q 656 847 718 815 q 519 879 594 879 q 378 846 440 879 q 272 758 315 813 q 204 635 228 704 q 181 493 181 565 z "},"Ǫ":{"ha":1039,"x_min":54,"x_max":983,"o":"m 485 -254 q 397 -215 426 -243 q 368 -147 368 -186 q 393 -76 368 -111 q 472 -4 418 -40 q 301 51 378 6 q 169 165 224 96 q 84 318 114 233 q 54 493 54 403 q 90 682 54 592 q 188 842 125 772 q 335 952 250 911 q 521 993 421 993 q 710 949 625 993 q 856 835 794 906 q 950 674 917 764 q 983 492 983 585 q 951 310 983 397 q 860 154 918 222 q 722 43 801 86 q 547 -6 642 0 q 464 -71 489 -42 q 439 -131 439 -100 q 515 -190 439 -182 l 485 -254 m 181 493 q 205 348 181 418 q 274 224 229 278 q 381 138 318 169 q 519 106 443 106 q 661 140 599 106 q 767 228 724 174 q 834 353 811 283 q 857 493 857 422 q 833 638 857 568 q 763 762 808 708 q 656 847 718 815 q 519 879 594 879 q 378 846 440 879 q 272 758 315 813 q 204 635 228 704 q 181 493 181 565 z "},"Ø":{"ha":1039,"x_min":54,"x_max":983,"o":"m 921 986 l 835 858 q 944 688 906 785 q 983 492 983 592 q 948 303 983 393 q 851 144 913 213 q 703 34 789 75 q 518 -7 618 -7 q 397 9 454 -7 q 292 56 340 25 l 254 0 l 118 0 l 203 126 q 93 293 132 197 q 54 493 54 389 q 90 682 54 592 q 188 842 125 772 q 335 952 250 911 q 521 993 421 993 q 640 976 583 993 q 744 929 696 960 l 783 986 l 921 986 m 857 493 q 833 636 857 568 q 767 757 810 704 l 356 151 q 519 106 429 106 q 661 140 599 106 q 767 228 724 174 q 834 353 811 283 q 857 493 857 422 m 181 493 q 203 349 181 418 q 271 226 226 279 l 681 833 q 519 879 607 879 q 378 846 440 879 q 272 758 315 813 q 204 635 228 704 q 181 493 181 565 z "},"/":{"ha":879,"x_min":38,"x_max":840,"o":"m 840 986 l 174 0 l 38 0 l 703 986 l 840 986 z "},"Ǿ":{"ha":1039,"x_min":54,"x_max":983,"o":"m 921 986 l 835 858 q 944 688 906 785 q 983 492 983 592 q 948 303 983 393 q 851 144 913 213 q 703 34 789 75 q 518 -7 618 -7 q 397 9 454 -7 q 292 56 340 25 l 254 0 l 118 0 l 203 126 q 93 293 132 197 q 54 493 54 389 q 90 682 54 592 q 188 842 125 772 q 335 952 250 911 q 521 993 421 993 q 640 976 583 993 q 744 929 696 960 l 783 986 l 921 986 m 857 493 q 833 636 857 568 q 767 757 810 704 l 356 151 q 519 106 429 106 q 661 140 599 106 q 767 228 724 174 q 834 353 811 283 q 857 493 857 422 m 181 493 q 203 349 181 418 q 271 226 226 279 l 681 833 q 519 879 607 879 q 378 846 440 879 q 272 758 315 813 q 204 635 228 704 q 181 493 181 565 m 542 1104 l 461 1132 l 542 1272 l 664 1272 l 542 1104 z "},"Õ":{"ha":1039,"x_min":54,"x_max":983,"o":"m 518 -7 q 328 35 414 -7 q 182 148 243 78 q 88 308 121 218 q 54 493 54 399 q 90 682 54 592 q 188 842 125 772 q 335 952 250 911 q 521 993 421 993 q 710 949 625 993 q 856 835 794 906 q 950 674 917 764 q 983 492 983 585 q 948 303 983 393 q 851 144 913 213 q 703 34 789 75 q 518 -7 618 -7 m 181 493 q 205 348 181 418 q 274 224 229 278 q 381 138 318 169 q 519 106 443 106 q 661 140 599 106 q 767 228 724 174 q 834 353 811 283 q 857 493 857 422 q 833 638 857 568 q 763 762 808 708 q 656 847 718 815 q 519 879 594 879 q 378 846 440 879 q 272 758 315 813 q 204 635 228 704 q 181 493 181 565 m 607 1129 q 552 1138 575 1129 q 509 1158 529 1147 q 469 1178 489 1169 q 428 1188 450 1188 q 391 1178 404 1188 q 371 1156 378 1168 q 362 1133 364 1144 q 360 1121 360 1122 l 288 1121 q 294 1153 288 1129 q 315 1201 300 1176 q 357 1245 331 1226 q 425 1264 383 1264 q 476 1255 454 1264 q 519 1234 499 1246 q 559 1213 539 1222 q 604 1204 579 1204 q 646 1214 631 1204 q 669 1236 661 1224 q 680 1259 678 1249 q 682 1272 682 1269 l 754 1272 q 748 1241 754 1264 q 725 1193 742 1218 q 680 1149 708 1168 q 607 1129 651 1129 z "},"P":{"ha":865,"x_min":118,"x_max":828,"o":"m 118 0 l 118 986 l 529 986 q 649 959 594 986 q 744 887 704 932 q 806 785 783 842 q 828 671 828 729 q 807 553 828 610 q 748 451 786 496 q 656 381 710 407 q 538 354 603 354 l 243 354 l 243 0 l 118 0 m 243 465 l 531 465 q 601 481 569 465 q 654 526 632 497 q 689 592 676 554 q 701 671 701 629 q 687 751 701 714 q 648 817 672 789 q 591 860 624 844 q 522 875 558 875 l 243 875 l 243 465 z "},"Q":{"ha":1036,"x_min":54,"x_max":983,"o":"m 782 81 q 660 17 726 40 q 518 -7 593 -7 q 328 36 414 -7 q 182 149 243 79 q 88 308 121 218 q 54 493 54 399 q 90 682 54 592 q 188 842 125 772 q 335 952 250 911 q 521 993 421 993 q 710 949 625 993 q 856 835 794 906 q 950 674 917 764 q 983 492 983 585 q 948 302 983 392 q 850 143 913 213 l 974 0 l 851 0 l 782 81 m 519 106 q 621 122 574 106 q 707 168 668 139 l 575 322 l 697 322 l 772 235 q 835 356 813 289 q 857 493 857 422 q 833 638 857 568 q 763 763 808 708 q 656 849 718 817 q 519 881 594 881 q 378 847 440 881 q 272 759 315 814 q 204 635 228 704 q 181 493 181 565 q 205 348 181 418 q 274 224 229 278 q 381 138 318 169 q 519 106 443 106 z "},"R":{"ha":913,"x_min":118,"x_max":871,"o":"m 118 0 l 118 986 l 540 986 q 660 959 606 986 q 755 887 715 932 q 817 785 794 842 q 839 671 839 729 q 824 572 839 619 q 783 485 810 524 q 717 418 756 446 q 632 378 679 390 l 871 0 l 729 0 l 504 354 l 243 354 l 243 0 l 118 0 m 243 465 l 542 465 q 612 482 581 465 q 665 527 643 499 q 700 593 688 556 q 713 671 713 631 q 698 749 713 713 q 659 815 683 786 q 602 859 635 843 q 533 875 569 875 l 243 875 l 243 465 z "},"Ŕ":{"ha":913,"x_min":118,"x_max":871,"o":"m 464 1107 l 383 1135 l 464 1275 l 586 1275 l 464 1107 m 118 0 l 118 986 l 540 986 q 660 959 606 986 q 755 887 715 932 q 817 785 794 842 q 839 671 839 729 q 824 572 839 619 q 783 485 810 524 q 717 418 756 446 q 632 378 679 390 l 871 0 l 729 0 l 504 354 l 243 354 l 243 0 l 118 0 m 243 465 l 542 465 q 612 482 581 465 q 665 527 643 499 q 700 593 688 556 q 713 671 713 631 q 698 749 713 713 q 659 815 683 786 q 602 859 635 843 q 533 875 569 875 l 243 875 l 243 465 z "},"Ř":{"ha":913,"x_min":118,"x_max":871,"o":"m 324 1275 l 442 1188 l 560 1275 l 626 1242 l 486 1117 l 397 1117 l 257 1242 l 324 1275 m 118 0 l 118 986 l 540 986 q 660 959 606 986 q 755 887 715 932 q 817 785 794 842 q 839 671 839 729 q 824 572 839 619 q 783 485 810 524 q 717 418 756 446 q 632 378 679 390 l 871 0 l 729 0 l 504 354 l 243 354 l 243 0 l 118 0 m 243 465 l 542 465 q 612 482 581 465 q 665 527 643 499 q 700 593 688 556 q 713 671 713 631 q 698 749 713 713 q 659 815 683 786 q 602 859 635 843 q 533 875 569 875 l 243 875 l 243 465 z "},"Ŗ":{"ha":913,"x_min":118,"x_max":871,"o":"m 410 -296 l 438 -183 l 403 -183 l 403 -67 l 511 -67 l 511 -183 l 469 -296 l 410 -296 m 118 0 l 118 986 l 540 986 q 660 959 606 986 q 755 887 715 932 q 817 785 794 842 q 839 671 839 729 q 824 572 839 619 q 783 485 810 524 q 717 418 756 446 q 632 378 679 390 l 871 0 l 729 0 l 504 354 l 243 354 l 243 0 l 118 0 m 243 465 l 542 465 q 612 482 581 465 q 665 527 643 499 q 700 593 688 556 q 713 671 713 631 q 698 749 713 713 q 659 815 683 786 q 602 859 635 843 q 533 875 569 875 l 243 875 l 243 465 z "},"S":{"ha":846,"x_min":40,"x_max":800,"o":"m 697 779 q 653 817 681 799 q 590 849 625 835 q 515 873 556 864 q 429 882 474 882 q 260 839 314 882 q 207 721 207 796 q 222 654 207 681 q 270 609 238 628 q 351 576 303 590 q 467 547 400 563 q 605 509 543 531 q 710 456 667 488 q 777 378 754 424 q 800 265 800 332 q 772 142 800 194 q 697 56 744 90 q 583 6 649 22 q 442 -10 518 -10 q 226 26 328 -10 q 40 129 124 61 l 100 235 q 158 188 122 211 q 238 145 193 164 q 335 115 283 126 q 444 103 388 103 q 608 140 550 103 q 667 253 667 178 q 648 323 667 294 q 593 372 629 351 q 503 409 557 393 q 382 442 450 425 q 250 481 307 460 q 155 531 193 501 q 97 601 117 560 q 78 701 78 643 q 104 826 78 772 q 178 918 131 881 q 290 974 225 956 q 432 993 356 993 q 613 963 532 993 q 756 881 693 932 l 697 779 z "},"Ś":{"ha":846,"x_min":40,"x_max":800,"o":"m 460 1124 l 379 1151 l 460 1292 l 582 1292 l 460 1124 m 697 779 q 653 817 681 799 q 590 849 625 835 q 515 873 556 864 q 429 882 474 882 q 260 839 314 882 q 207 721 207 796 q 222 654 207 681 q 270 609 238 628 q 351 576 303 590 q 467 547 400 563 q 605 509 543 531 q 710 456 667 488 q 777 378 754 424 q 800 265 800 332 q 772 142 800 194 q 697 56 744 90 q 583 6 649 22 q 442 -10 518 -10 q 226 26 328 -10 q 40 129 124 61 l 100 235 q 158 188 122 211 q 238 145 193 164 q 335 115 283 126 q 444 103 388 103 q 608 140 550 103 q 667 253 667 178 q 648 323 667 294 q 593 372 629 351 q 503 409 557 393 q 382 442 450 425 q 250 481 307 460 q 155 531 193 501 q 97 601 117 560 q 78 701 78 643 q 104 826 78 772 q 178 918 131 881 q 290 974 225 956 q 432 993 356 993 q 613 963 532 993 q 756 881 693 932 l 697 779 z "},"Š":{"ha":846,"x_min":40,"x_max":800,"o":"m 321 1292 l 439 1204 l 557 1292 l 624 1258 l 483 1133 l 394 1133 l 254 1258 l 321 1292 m 697 779 q 653 817 681 799 q 590 849 625 835 q 515 873 556 864 q 429 882 474 882 q 260 839 314 882 q 207 721 207 796 q 222 654 207 681 q 270 609 238 628 q 351 576 303 590 q 467 547 400 563 q 605 509 543 531 q 710 456 667 488 q 777 378 754 424 q 800 265 800 332 q 772 142 800 194 q 697 56 744 90 q 583 6 649 22 q 442 -10 518 -10 q 226 26 328 -10 q 40 129 124 61 l 100 235 q 158 188 122 211 q 238 145 193 164 q 335 115 283 126 q 444 103 388 103 q 608 140 550 103 q 667 253 667 178 q 648 323 667 294 q 593 372 629 351 q 503 409 557 393 q 382 442 450 425 q 250 481 307 460 q 155 531 193 501 q 97 601 117 560 q 78 701 78 643 q 104 826 78 772 q 178 918 131 881 q 290 974 225 956 q 432 993 356 993 q 613 963 532 993 q 756 881 693 932 l 697 779 z "},"Ŝ":{"ha":846,"x_min":40,"x_max":800,"o":"m 254 1167 l 394 1292 l 483 1292 l 624 1167 l 557 1133 l 439 1221 l 321 1133 l 254 1167 m 697 779 q 653 817 681 799 q 590 849 625 835 q 515 873 556 864 q 429 882 474 882 q 260 839 314 882 q 207 721 207 796 q 222 654 207 681 q 270 609 238 628 q 351 576 303 590 q 467 547 400 563 q 605 509 543 531 q 710 456 667 488 q 777 378 754 424 q 800 265 800 332 q 772 142 800 194 q 697 56 744 90 q 583 6 649 22 q 442 -10 518 -10 q 226 26 328 -10 q 40 129 124 61 l 100 235 q 158 188 122 211 q 238 145 193 164 q 335 115 283 126 q 444 103 388 103 q 608 140 550 103 q 667 253 667 178 q 648 323 667 294 q 593 372 629 351 q 503 409 557 393 q 382 442 450 425 q 250 481 307 460 q 155 531 193 501 q 97 601 117 560 q 78 701 78 643 q 104 826 78 772 q 178 918 131 881 q 290 974 225 956 q 432 993 356 993 q 613 963 532 993 q 756 881 693 932 l 697 779 z "},"T":{"ha":853,"x_min":24,"x_max":829,"o":"m 829 875 l 489 875 l 489 0 l 364 0 l 364 875 l 24 875 l 24 986 l 829 986 l 829 875 z "},"Ŧ":{"ha":892,"x_min":43,"x_max":849,"o":"m 849 875 l 508 875 l 508 551 l 801 551 l 801 486 l 508 486 l 508 0 l 383 0 l 383 486 l 90 486 l 90 551 l 383 551 l 383 875 l 43 875 l 43 986 l 849 986 l 849 875 z "},"Ť":{"ha":853,"x_min":24,"x_max":829,"o":"m 313 1272 l 431 1185 l 549 1272 l 615 1239 l 475 1114 l 386 1114 l 246 1239 l 313 1272 m 829 875 l 489 875 l 489 0 l 364 0 l 364 875 l 24 875 l 24 986 l 829 986 l 829 875 z "},"Þ":{"ha":839,"x_min":118,"x_max":803,"o":"m 504 796 q 624 769 569 796 q 719 697 679 742 q 781 595 758 651 q 803 481 803 539 q 782 362 803 419 q 723 260 761 304 q 631 190 685 217 q 513 164 578 164 l 243 164 l 243 0 l 118 0 l 118 986 l 243 986 l 243 796 l 504 796 m 507 275 q 578 292 546 275 q 632 338 610 310 q 666 403 654 367 q 678 481 678 440 q 663 559 678 522 q 624 624 649 596 q 567 669 600 653 q 499 685 535 685 l 243 685 l 243 275 l 507 275 z "},"U":{"ha":1049,"x_min":104,"x_max":944,"o":"m 524 106 q 667 139 610 106 q 758 226 724 172 q 806 348 792 279 q 819 488 819 417 l 819 986 l 944 986 l 944 488 q 922 298 944 388 q 849 140 899 208 q 719 33 799 72 q 525 -7 639 -7 q 326 35 407 -7 q 197 145 246 76 q 126 303 147 214 q 104 488 104 393 l 104 986 l 229 986 l 229 488 q 244 345 229 414 q 292 224 258 276 q 383 138 326 171 q 524 106 439 106 z "},"Ú":{"ha":1049,"x_min":104,"x_max":944,"o":"m 546 1104 l 465 1132 l 546 1272 l 668 1272 l 546 1104 m 524 106 q 667 139 610 106 q 758 226 724 172 q 806 348 792 279 q 819 488 819 417 l 819 986 l 944 986 l 944 488 q 922 298 944 388 q 849 140 899 208 q 719 33 799 72 q 525 -7 639 -7 q 326 35 407 -7 q 197 145 246 76 q 126 303 147 214 q 104 488 104 393 l 104 986 l 229 986 l 229 488 q 244 345 229 414 q 292 224 258 276 q 383 138 326 171 q 524 106 439 106 z "},"Ŭ":{"ha":1049,"x_min":104,"x_max":944,"o":"m 524 106 q 667 139 610 106 q 758 226 724 172 q 806 348 792 279 q 819 488 819 417 l 819 986 l 944 986 l 944 488 q 922 298 944 388 q 849 140 899 208 q 719 33 799 72 q 525 -7 639 -7 q 326 35 407 -7 q 197 145 246 76 q 126 303 147 214 q 104 488 104 393 l 104 986 l 229 986 l 229 488 q 244 345 229 414 q 292 224 258 276 q 383 138 326 171 q 524 106 439 106 m 525 1178 q 578 1205 556 1178 q 606 1272 601 1232 l 675 1272 q 663 1211 675 1239 q 631 1163 651 1183 q 584 1130 611 1142 q 525 1118 557 1118 q 466 1130 493 1118 q 419 1163 439 1142 q 387 1211 399 1183 q 375 1272 375 1239 l 446 1272 q 469 1206 446 1235 q 525 1178 493 1178 z "},"Û":{"ha":1049,"x_min":104,"x_max":944,"o":"m 340 1147 l 481 1272 l 569 1272 l 710 1147 l 643 1114 l 525 1201 l 407 1114 l 340 1147 m 524 106 q 667 139 610 106 q 758 226 724 172 q 806 348 792 279 q 819 488 819 417 l 819 986 l 944 986 l 944 488 q 922 298 944 388 q 849 140 899 208 q 719 33 799 72 q 525 -7 639 -7 q 326 35 407 -7 q 197 145 246 76 q 126 303 147 214 q 104 488 104 393 l 104 986 l 229 986 l 229 488 q 244 345 229 414 q 292 224 258 276 q 383 138 326 171 q 524 106 439 106 z "},"Ü":{"ha":1049,"x_min":104,"x_max":944,"o":"m 361 1126 l 361 1268 l 464 1268 l 464 1126 l 361 1126 m 586 1126 l 586 1268 l 689 1268 l 689 1126 l 586 1126 m 524 106 q 667 139 610 106 q 758 226 724 172 q 806 348 792 279 q 819 488 819 417 l 819 986 l 944 986 l 944 488 q 922 298 944 388 q 849 140 899 208 q 719 33 799 72 q 525 -7 639 -7 q 326 35 407 -7 q 197 145 246 76 q 126 303 147 214 q 104 488 104 393 l 104 986 l 229 986 l 229 488 q 244 345 229 414 q 292 224 258 276 q 383 138 326 171 q 524 106 439 106 z "},"Ù":{"ha":1049,"x_min":104,"x_max":944,"o":"m 524 106 q 667 139 610 106 q 758 226 724 172 q 806 348 792 279 q 819 488 819 417 l 819 986 l 944 986 l 944 488 q 922 298 944 388 q 849 140 899 208 q 719 33 799 72 q 525 -7 639 -7 q 326 35 407 -7 q 197 145 246 76 q 126 303 147 214 q 104 488 104 393 l 104 986 l 229 986 l 229 488 q 244 345 229 414 q 292 224 258 276 q 383 138 326 171 q 524 106 439 106 m 381 1274 l 501 1274 l 583 1133 l 504 1106 l 381 1274 z "},"Ű":{"ha":1049,"x_min":104,"x_max":944,"o":"m 524 106 q 667 139 610 106 q 758 226 724 172 q 806 348 792 279 q 819 488 819 417 l 819 986 l 944 986 l 944 488 q 922 298 944 388 q 849 140 899 208 q 719 33 799 72 q 525 -7 639 -7 q 326 35 407 -7 q 197 145 246 76 q 126 303 147 214 q 104 488 104 393 l 104 986 l 229 986 l 229 488 q 244 345 229 414 q 292 224 258 276 q 383 138 326 171 q 524 106 439 106 m 436 1106 l 372 1133 l 447 1274 l 553 1274 l 436 1106 m 625 1106 l 561 1133 l 636 1274 l 742 1274 l 625 1106 z "},"Ū":{"ha":1049,"x_min":104,"x_max":944,"o":"m 524 106 q 667 139 610 106 q 758 226 724 172 q 806 348 792 279 q 819 488 819 417 l 819 986 l 944 986 l 944 488 q 922 298 944 388 q 849 140 899 208 q 719 33 799 72 q 525 -7 639 -7 q 326 35 407 -7 q 197 145 246 76 q 126 303 147 214 q 104 488 104 393 l 104 986 l 229 986 l 229 488 q 244 345 229 414 q 292 224 258 276 q 383 138 326 171 q 524 106 439 106 m 322 1167 l 322 1247 l 728 1247 l 728 1167 l 322 1167 z "},"Ų":{"ha":1049,"x_min":104,"x_max":944,"o":"m 524 106 q 667 139 610 106 q 758 226 724 172 q 806 348 792 279 q 819 488 819 417 l 819 986 l 944 986 l 944 488 q 923 303 944 390 q 854 149 901 215 q 732 40 807 82 q 551 -6 657 -1 q 469 -71 493 -42 q 444 -131 444 -100 q 521 -190 444 -182 l 490 -254 q 403 -215 432 -243 q 374 -147 374 -186 q 399 -76 374 -111 q 478 -4 424 -40 q 302 48 374 4 q 187 160 231 92 q 124 313 143 228 q 104 488 104 397 l 104 986 l 229 986 l 229 488 q 244 345 229 414 q 292 224 258 276 q 383 138 326 171 q 524 106 439 106 z "},"Ů":{"ha":1049,"x_min":104,"x_max":944,"o":"m 411 1176 q 443 1247 411 1221 q 524 1272 475 1272 q 605 1247 574 1272 q 636 1176 636 1221 q 605 1106 636 1132 q 524 1081 574 1081 q 443 1106 475 1081 q 411 1176 411 1132 m 524 1229 q 484 1215 500 1229 q 468 1176 468 1200 q 484 1139 468 1154 q 524 1124 500 1124 q 563 1138 546 1124 q 581 1176 581 1153 q 564 1215 581 1200 q 524 1229 547 1229 m 524 106 q 667 139 610 106 q 758 226 724 172 q 806 348 792 279 q 819 488 819 417 l 819 986 l 944 986 l 944 488 q 922 298 944 388 q 849 140 899 208 q 719 33 799 72 q 525 -7 639 -7 q 326 35 407 -7 q 197 145 246 76 q 126 303 147 214 q 104 488 104 393 l 104 986 l 229 986 l 229 488 q 244 345 229 414 q 292 224 258 276 q 383 138 326 171 q 524 106 439 106 z "},"Ũ":{"ha":1049,"x_min":104,"x_max":944,"o":"m 524 106 q 667 139 610 106 q 758 226 724 172 q 806 348 792 279 q 819 488 819 417 l 819 986 l 944 986 l 944 488 q 922 298 944 388 q 849 140 899 208 q 719 33 799 72 q 525 -7 639 -7 q 326 35 407 -7 q 197 145 246 76 q 126 303 147 214 q 104 488 104 393 l 104 986 l 229 986 l 229 488 q 244 345 229 414 q 292 224 258 276 q 383 138 326 171 q 524 106 439 106 m 611 1129 q 556 1138 579 1129 q 513 1158 533 1147 q 474 1178 493 1169 q 432 1188 454 1188 q 395 1178 408 1188 q 375 1156 382 1168 q 366 1133 368 1144 q 364 1121 364 1122 l 292 1121 q 298 1153 292 1129 q 319 1201 304 1176 q 361 1245 335 1226 q 429 1264 388 1264 q 481 1255 458 1264 q 523 1234 503 1246 q 563 1213 543 1222 q 608 1204 583 1204 q 650 1214 635 1204 q 674 1236 665 1224 q 684 1259 682 1249 q 686 1272 686 1269 l 758 1272 q 752 1241 758 1264 q 729 1193 746 1218 q 684 1149 713 1168 q 611 1129 656 1129 z "},"V":{"ha":944,"x_min":14,"x_max":929,"o":"m 146 986 l 472 157 l 797 986 l 929 986 l 526 0 l 418 0 l 14 986 l 146 986 z "},"W":{"ha":1457,"x_min":13,"x_max":1446,"o":"m 479 981 l 597 981 l 728 638 l 860 981 l 978 981 l 807 551 l 976 144 l 1310 986 l 1446 986 l 1033 0 l 925 0 l 729 465 l 532 0 l 424 0 l 13 986 l 147 986 l 482 144 l 650 551 l 479 981 z "},"Ẃ":{"ha":1457,"x_min":13,"x_max":1446,"o":"m 749 1104 l 668 1132 l 749 1272 l 871 1272 l 749 1104 m 479 981 l 597 981 l 728 638 l 860 981 l 978 981 l 807 551 l 976 144 l 1310 986 l 1446 986 l 1033 0 l 925 0 l 729 465 l 532 0 l 424 0 l 13 986 l 147 986 l 482 144 l 650 551 l 479 981 z "},"Ŵ":{"ha":1457,"x_min":13,"x_max":1446,"o":"m 543 1147 l 683 1272 l 772 1272 l 913 1147 l 846 1114 l 728 1201 l 610 1114 l 543 1147 m 479 981 l 597 981 l 728 638 l 860 981 l 978 981 l 807 551 l 976 144 l 1310 986 l 1446 986 l 1033 0 l 925 0 l 729 465 l 532 0 l 424 0 l 13 986 l 147 986 l 482 144 l 650 551 l 479 981 z "},"Ẅ":{"ha":1457,"x_min":13,"x_max":1446,"o":"m 564 1126 l 564 1268 l 667 1268 l 667 1126 l 564 1126 m 789 1126 l 789 1268 l 892 1268 l 892 1126 l 789 1126 m 479 981 l 597 981 l 728 638 l 860 981 l 978 981 l 807 551 l 976 144 l 1310 986 l 1446 986 l 1033 0 l 925 0 l 729 465 l 532 0 l 424 0 l 13 986 l 147 986 l 482 144 l 650 551 l 479 981 z "},"Ẁ":{"ha":1457,"x_min":13,"x_max":1446,"o":"m 479 981 l 597 981 l 728 638 l 860 981 l 978 981 l 807 551 l 976 144 l 1310 986 l 1446 986 l 1033 0 l 925 0 l 729 465 l 532 0 l 424 0 l 13 986 l 147 986 l 482 144 l 650 551 l 479 981 m 583 1274 l 704 1274 l 786 1133 l 707 1106 l 583 1274 z "},"X":{"ha":885,"x_min":4,"x_max":881,"o":"m 143 986 l 443 575 l 743 986 l 881 986 l 510 486 l 869 0 l 732 0 l 443 397 l 154 0 l 15 0 l 375 486 l 4 986 l 143 986 z "},"Y":{"ha":910,"x_min":18,"x_max":892,"o":"m 156 986 l 454 472 l 756 986 l 892 986 l 517 360 l 517 0 l 392 0 l 392 363 l 18 986 l 156 986 z "},"Ý":{"ha":910,"x_min":18,"x_max":892,"o":"m 156 986 l 454 472 l 756 986 l 892 986 l 517 360 l 517 0 l 392 0 l 392 363 l 18 986 l 156 986 m 475 1104 l 394 1132 l 475 1272 l 597 1272 l 475 1104 z "},"Ŷ":{"ha":910,"x_min":18,"x_max":892,"o":"m 156 986 l 454 472 l 756 986 l 892 986 l 517 360 l 517 0 l 392 0 l 392 363 l 18 986 l 156 986 m 269 1147 l 410 1272 l 499 1272 l 639 1147 l 572 1114 l 454 1201 l 336 1114 l 269 1147 z "},"Ÿ":{"ha":910,"x_min":18,"x_max":892,"o":"m 156 986 l 454 472 l 756 986 l 892 986 l 517 360 l 517 0 l 392 0 l 392 363 l 18 986 l 156 986 m 290 1126 l 290 1268 l 393 1268 l 393 1126 l 290 1126 m 515 1126 l 515 1268 l 618 1268 l 618 1126 l 515 1126 z "},"Ỳ":{"ha":910,"x_min":18,"x_max":892,"o":"m 156 986 l 454 472 l 756 986 l 892 986 l 517 360 l 517 0 l 392 0 l 392 363 l 18 986 l 156 986 m 310 1274 l 431 1274 l 513 1133 l 433 1106 l 310 1274 z "},"Ỹ":{"ha":910,"x_min":18,"x_max":892,"o":"m 156 986 l 454 472 l 756 986 l 892 986 l 517 360 l 517 0 l 392 0 l 392 363 l 18 986 l 156 986 m 540 1129 q 485 1138 508 1129 q 442 1158 463 1147 q 403 1178 422 1169 q 361 1188 383 1188 q 324 1178 338 1188 q 304 1156 311 1168 q 295 1133 297 1144 q 293 1121 293 1122 l 221 1121 q 227 1153 221 1129 q 249 1201 233 1176 q 290 1245 264 1226 q 358 1264 317 1264 q 410 1255 388 1264 q 452 1234 432 1246 q 492 1213 472 1222 q 538 1204 513 1204 q 579 1214 564 1204 q 603 1236 594 1224 q 613 1259 611 1249 q 615 1272 615 1269 l 688 1272 q 681 1241 688 1264 q 658 1193 675 1218 q 613 1149 642 1168 q 540 1129 585 1129 z "},"Z":{"ha":876,"x_min":44,"x_max":826,"o":"m 44 97 l 681 875 l 57 875 l 57 986 l 826 986 l 826 889 l 201 111 l 826 111 l 826 0 l 44 0 l 44 97 z "},"Ź":{"ha":876,"x_min":44,"x_max":826,"o":"m 481 1104 l 400 1132 l 481 1272 l 603 1272 l 481 1104 m 44 97 l 681 875 l 57 875 l 57 986 l 826 986 l 826 889 l 201 111 l 826 111 l 826 0 l 44 0 l 44 97 z "},"Ž":{"ha":876,"x_min":44,"x_max":826,"o":"m 342 1272 l 460 1185 l 578 1272 l 644 1239 l 504 1114 l 415 1114 l 275 1239 l 342 1272 m 44 97 l 681 875 l 57 875 l 57 986 l 826 986 l 826 889 l 201 111 l 826 111 l 826 0 l 44 0 l 44 97 z "},"Ż":{"ha":876,"x_min":44,"x_max":826,"o":"m 44 97 l 681 875 l 57 875 l 57 986 l 826 986 l 826 889 l 201 111 l 826 111 l 826 0 l 44 0 l 44 97 m 404 1125 l 404 1272 l 515 1272 l 515 1125 l 404 1125 z "},"a":{"ha":769,"x_min":42,"x_max":711,"o":"m 285 -14 q 189 3 233 -14 q 112 51 144 21 q 60 123 79 82 q 42 213 42 164 q 64 303 42 263 q 127 374 86 344 q 224 419 168 403 q 347 436 281 436 q 454 426 400 436 q 550 400 508 417 l 550 458 q 500 598 550 547 q 358 649 450 649 q 128 564 249 649 l 88 643 q 369 738 228 738 q 592 661 513 738 q 672 446 672 585 l 672 150 q 711 106 672 107 l 711 0 q 679 -4 692 -3 q 653 -6 667 -6 q 595 16 617 -6 q 569 68 574 38 l 567 119 q 444 20 518 54 q 285 -14 369 -14 m 317 78 q 438 102 382 78 q 524 167 494 126 q 550 221 550 193 l 550 328 q 365 363 461 363 q 216 324 274 363 q 158 222 158 285 q 170 165 158 192 q 203 119 182 139 q 254 89 225 100 q 317 78 283 78 z "},"á":{"ha":769,"x_min":42,"x_max":711,"o":"m 285 -14 q 189 3 233 -14 q 112 51 144 21 q 60 123 79 82 q 42 213 42 164 q 64 303 42 263 q 127 374 86 344 q 224 419 168 403 q 347 436 281 436 q 454 426 400 436 q 550 400 508 417 l 550 458 q 500 598 550 547 q 358 649 450 649 q 128 564 249 649 l 88 643 q 369 738 228 738 q 592 661 513 738 q 672 446 672 585 l 672 150 q 711 106 672 107 l 711 0 q 679 -4 692 -3 q 653 -6 667 -6 q 595 16 617 -6 q 569 68 574 38 l 567 119 q 444 20 518 54 q 285 -14 369 -14 m 317 78 q 438 102 382 78 q 524 167 494 126 q 550 221 550 193 l 550 328 q 365 363 461 363 q 216 324 274 363 q 158 222 158 285 q 170 165 158 192 q 203 119 182 139 q 254 89 225 100 q 317 78 283 78 m 390 846 l 310 874 l 390 1014 l 513 1014 l 390 846 z "},"ă":{"ha":769,"x_min":42,"x_max":711,"o":"m 285 -14 q 189 3 233 -14 q 112 51 144 21 q 60 123 79 82 q 42 213 42 164 q 64 303 42 263 q 127 374 86 344 q 224 419 168 403 q 347 436 281 436 q 454 426 400 436 q 550 400 508 417 l 550 458 q 500 598 550 547 q 358 649 450 649 q 128 564 249 649 l 88 643 q 369 738 228 738 q 592 661 513 738 q 672 446 672 585 l 672 150 q 711 106 672 107 l 711 0 q 679 -4 692 -3 q 653 -6 667 -6 q 595 16 617 -6 q 569 68 574 38 l 567 119 q 444 20 518 54 q 285 -14 369 -14 m 317 78 q 438 102 382 78 q 524 167 494 126 q 550 221 550 193 l 550 328 q 365 363 461 363 q 216 324 274 363 q 158 222 158 285 q 170 165 158 192 q 203 119 182 139 q 254 89 225 100 q 317 78 283 78 m 369 919 q 423 947 400 919 q 450 1014 446 974 l 519 1014 q 508 953 519 981 q 476 904 496 925 q 428 872 456 883 q 369 860 401 860 q 310 872 338 860 q 263 904 283 883 q 231 953 243 925 q 219 1014 219 981 l 290 1014 q 314 948 290 976 q 369 919 338 919 z "},"â":{"ha":769,"x_min":42,"x_max":711,"o":"m 285 -14 q 189 3 233 -14 q 112 51 144 21 q 60 123 79 82 q 42 213 42 164 q 64 303 42 263 q 127 374 86 344 q 224 419 168 403 q 347 436 281 436 q 454 426 400 436 q 550 400 508 417 l 550 458 q 500 598 550 547 q 358 649 450 649 q 128 564 249 649 l 88 643 q 369 738 228 738 q 592 661 513 738 q 672 446 672 585 l 672 150 q 711 106 672 107 l 711 0 q 679 -4 692 -3 q 653 -6 667 -6 q 595 16 617 -6 q 569 68 574 38 l 567 119 q 444 20 518 54 q 285 -14 369 -14 m 317 78 q 438 102 382 78 q 524 167 494 126 q 550 221 550 193 l 550 328 q 365 363 461 363 q 216 324 274 363 q 158 222 158 285 q 170 165 158 192 q 203 119 182 139 q 254 89 225 100 q 317 78 283 78 m 185 889 l 325 1014 l 414 1014 l 554 889 l 488 856 l 369 943 l 251 856 l 185 889 z "},"ä":{"ha":769,"x_min":42,"x_max":711,"o":"m 285 -14 q 189 3 233 -14 q 112 51 144 21 q 60 123 79 82 q 42 213 42 164 q 64 303 42 263 q 127 374 86 344 q 224 419 168 403 q 347 436 281 436 q 454 426 400 436 q 550 400 508 417 l 550 458 q 500 598 550 547 q 358 649 450 649 q 128 564 249 649 l 88 643 q 369 738 228 738 q 592 661 513 738 q 672 446 672 585 l 672 150 q 711 106 672 107 l 711 0 q 679 -4 692 -3 q 653 -6 667 -6 q 595 16 617 -6 q 569 68 574 38 l 567 119 q 444 20 518 54 q 285 -14 369 -14 m 317 78 q 438 102 382 78 q 524 167 494 126 q 550 221 550 193 l 550 328 q 365 363 461 363 q 216 324 274 363 q 158 222 158 285 q 170 165 158 192 q 203 119 182 139 q 254 89 225 100 q 317 78 283 78 m 206 867 l 206 1008 l 308 1008 l 308 867 l 206 867 m 431 867 l 431 1008 l 533 1008 l 533 867 l 431 867 z "},"æ":{"ha":1296,"x_min":42,"x_max":1258,"o":"m 283 -14 q 188 3 232 -14 q 112 51 144 21 q 60 123 79 82 q 42 213 42 164 q 64 303 42 263 q 126 374 86 344 q 223 419 167 403 q 346 436 279 436 q 440 428 393 436 q 525 408 486 421 q 532 456 528 431 q 544 500 536 481 q 485 610 533 571 q 357 649 438 649 q 126 564 249 649 l 86 643 q 368 738 229 738 q 521 703 457 738 q 619 606 585 668 q 735 701 665 665 q 890 738 804 738 q 1040 708 972 738 q 1156 626 1108 678 q 1231 507 1204 575 q 1258 363 1258 439 q 1258 341 1258 354 q 1256 321 1257 328 l 640 321 q 667 222 644 267 q 724 146 689 178 q 803 96 758 114 q 899 78 849 78 q 964 87 932 78 q 1024 111 996 96 q 1073 149 1051 126 q 1106 199 1094 171 l 1211 169 q 1162 96 1193 129 q 1090 38 1131 63 q 999 0 1049 14 q 894 -14 949 -14 q 718 29 796 -14 q 592 143 640 72 q 532 72 568 101 q 454 23 496 42 q 368 -5 413 4 q 283 -14 324 -14 m 315 78 q 438 102 382 78 q 524 167 493 126 q 550 215 547 190 q 533 274 539 239 q 525 336 526 310 q 446 356 488 349 q 364 363 404 363 q 215 324 272 363 q 157 222 157 285 q 169 165 157 192 q 203 119 182 139 q 253 89 224 100 q 315 78 282 78 m 1142 400 q 1117 499 1138 454 q 1063 577 1096 544 q 985 628 1029 610 q 889 646 940 646 q 793 628 838 646 q 715 577 749 610 q 662 499 682 544 q 639 400 642 454 l 1142 400 z "},"ǽ":{"ha":1296,"x_min":42,"x_max":1258,"o":"m 639 846 l 558 874 l 639 1014 l 761 1014 l 639 846 m 283 -14 q 188 3 232 -14 q 112 51 144 21 q 60 123 79 82 q 42 213 42 164 q 64 303 42 263 q 126 374 86 344 q 223 419 167 403 q 346 436 279 436 q 440 428 393 436 q 525 408 486 421 q 532 456 528 431 q 544 500 536 481 q 485 610 533 571 q 357 649 438 649 q 126 564 249 649 l 86 643 q 368 738 229 738 q 521 703 457 738 q 619 606 585 668 q 735 701 665 665 q 890 738 804 738 q 1040 708 972 738 q 1156 626 1108 678 q 1231 507 1204 575 q 1258 363 1258 439 q 1258 341 1258 354 q 1256 321 1257 328 l 640 321 q 667 222 644 267 q 724 146 689 178 q 803 96 758 114 q 899 78 849 78 q 964 87 932 78 q 1024 111 996 96 q 1073 149 1051 126 q 1106 199 1094 171 l 1211 169 q 1162 96 1193 129 q 1090 38 1131 63 q 999 0 1049 14 q 894 -14 949 -14 q 718 29 796 -14 q 592 143 640 72 q 532 72 568 101 q 454 23 496 42 q 368 -5 413 4 q 283 -14 324 -14 m 315 78 q 438 102 382 78 q 524 167 493 126 q 550 215 547 190 q 533 274 539 239 q 525 336 526 310 q 446 356 488 349 q 364 363 404 363 q 215 324 272 363 q 157 222 157 285 q 169 165 157 192 q 203 119 182 139 q 253 89 224 100 q 315 78 282 78 m 1142 400 q 1117 499 1138 454 q 1063 577 1096 544 q 985 628 1029 610 q 889 646 940 646 q 793 628 838 646 q 715 577 749 610 q 662 499 682 544 q 639 400 642 454 l 1142 400 z "},"à":{"ha":769,"x_min":42,"x_max":711,"o":"m 285 -14 q 189 3 233 -14 q 112 51 144 21 q 60 123 79 82 q 42 213 42 164 q 64 303 42 263 q 127 374 86 344 q 224 419 168 403 q 347 436 281 436 q 454 426 400 436 q 550 400 508 417 l 550 458 q 500 598 550 547 q 358 649 450 649 q 128 564 249 649 l 88 643 q 369 738 228 738 q 592 661 513 738 q 672 446 672 585 l 672 150 q 711 106 672 107 l 711 0 q 679 -4 692 -3 q 653 -6 667 -6 q 595 16 617 -6 q 569 68 574 38 l 567 119 q 444 20 518 54 q 285 -14 369 -14 m 317 78 q 438 102 382 78 q 524 167 494 126 q 550 221 550 193 l 550 328 q 365 363 461 363 q 216 324 274 363 q 158 222 158 285 q 170 165 158 192 q 203 119 182 139 q 254 89 225 100 q 317 78 283 78 m 225 1014 l 346 1014 l 428 874 l 349 846 l 225 1014 z "},"ā":{"ha":769,"x_min":42,"x_max":711,"o":"m 285 -14 q 189 3 233 -14 q 112 51 144 21 q 60 123 79 82 q 42 213 42 164 q 64 303 42 263 q 127 374 86 344 q 224 419 168 403 q 347 436 281 436 q 454 426 400 436 q 550 400 508 417 l 550 458 q 500 598 550 547 q 358 649 450 649 q 128 564 249 649 l 88 643 q 369 738 228 738 q 592 661 513 738 q 672 446 672 585 l 672 150 q 711 106 672 107 l 711 0 q 679 -4 692 -3 q 653 -6 667 -6 q 595 16 617 -6 q 569 68 574 38 l 567 119 q 444 20 518 54 q 285 -14 369 -14 m 317 78 q 438 102 382 78 q 524 167 494 126 q 550 221 550 193 l 550 328 q 365 363 461 363 q 216 324 274 363 q 158 222 158 285 q 170 165 158 192 q 203 119 182 139 q 254 89 225 100 q 317 78 283 78 m 167 908 l 167 989 l 572 989 l 572 908 l 167 908 z "},"&":{"ha":946,"x_min":63,"x_max":939,"o":"m 778 0 l 675 107 q 541 17 615 49 q 382 -14 467 -14 q 256 7 314 -14 q 154 65 197 28 q 87 151 111 101 q 63 261 63 201 q 78 351 63 310 q 122 428 94 393 q 183 492 149 463 q 257 549 218 522 q 200 617 224 586 q 162 674 176 647 q 140 726 147 701 q 133 776 133 750 q 153 865 133 824 q 206 935 172 906 q 287 982 240 965 q 388 999 333 999 q 481 985 438 999 q 558 944 525 971 q 609 881 590 918 q 628 797 628 843 q 612 719 628 756 q 569 652 596 683 q 504 593 542 621 q 425 538 467 565 l 676 274 q 717 383 703 324 q 732 508 732 442 l 833 508 q 810 340 832 418 q 749 199 789 263 l 939 0 l 778 0 m 394 83 q 511 108 457 83 q 608 178 565 133 l 328 474 q 222 376 263 426 q 181 260 181 325 q 199 185 181 218 q 247 129 217 151 q 315 95 276 107 q 394 83 353 83 m 246 779 q 251 749 246 764 q 267 716 256 735 q 300 672 279 697 q 354 611 321 646 q 471 699 426 657 q 515 794 515 742 q 479 874 515 843 q 388 906 443 906 q 285 869 325 906 q 246 779 246 832 z "},"ą":{"ha":769,"x_min":42,"x_max":711,"o":"m 643 -251 q 556 -212 585 -240 q 526 -144 526 -183 q 551 -74 526 -108 q 629 -3 576 -39 q 588 24 603 4 q 569 68 572 43 l 567 119 q 444 20 518 54 q 285 -14 369 -14 q 189 3 233 -14 q 112 51 144 21 q 60 123 79 82 q 42 213 42 164 q 64 303 42 263 q 127 374 86 344 q 224 419 168 403 q 347 436 281 436 q 454 426 400 436 q 550 400 508 417 l 550 458 q 500 598 550 547 q 358 649 450 649 q 128 564 249 649 l 88 643 q 369 738 228 738 q 592 661 513 738 q 672 446 672 585 l 672 150 q 711 106 672 107 l 711 0 q 624 -67 650 -37 q 597 -128 597 -97 q 674 -187 597 -179 l 643 -251 m 317 78 q 438 102 382 78 q 524 167 494 126 q 550 221 550 193 l 550 328 q 365 363 461 363 q 216 324 274 363 q 158 222 158 285 q 170 165 158 192 q 203 119 182 139 q 254 89 225 100 q 317 78 283 78 z "},"ʼ":{"ha":754,"x_min":289,"x_max":492,"o":"m 368 846 l 289 874 l 340 961 l 336 1014 l 492 1014 l 368 846 z "},"å":{"ha":769,"x_min":42,"x_max":711,"o":"m 285 -14 q 189 3 233 -14 q 112 51 144 21 q 60 123 79 82 q 42 213 42 164 q 64 303 42 263 q 127 374 86 344 q 224 419 168 403 q 347 436 281 436 q 454 426 400 436 q 550 400 508 417 l 550 458 q 500 598 550 547 q 358 649 450 649 q 128 564 249 649 l 88 643 q 369 738 228 738 q 592 661 513 738 q 672 446 672 585 l 672 150 q 711 106 672 107 l 711 0 q 679 -4 692 -3 q 653 -6 667 -6 q 595 16 617 -6 q 569 68 574 38 l 567 119 q 444 20 518 54 q 285 -14 369 -14 m 317 78 q 438 102 382 78 q 524 167 494 126 q 550 221 550 193 l 550 328 q 365 363 461 363 q 216 324 274 363 q 158 222 158 285 q 170 165 158 192 q 203 119 182 139 q 254 89 225 100 q 317 78 283 78 m 256 918 q 288 988 256 963 q 368 1014 319 1014 q 449 988 418 1014 q 481 918 481 963 q 449 848 481 874 q 368 822 418 822 q 288 848 319 822 q 256 918 256 874 m 368 971 q 328 956 344 971 q 313 918 313 942 q 328 881 313 896 q 368 865 344 865 q 408 880 390 865 q 425 918 425 894 q 408 956 425 942 q 368 971 392 971 z "},"ǻ":{"ha":769,"x_min":42,"x_max":711,"o":"m 285 -14 q 189 3 233 -14 q 112 51 144 21 q 60 123 79 82 q 42 213 42 164 q 64 303 42 263 q 127 374 86 344 q 224 419 168 403 q 347 436 281 436 q 454 426 400 436 q 550 400 508 417 l 550 458 q 500 598 550 547 q 358 649 450 649 q 128 564 249 649 l 88 643 q 369 738 228 738 q 592 661 513 738 q 672 446 672 585 l 672 150 q 711 106 672 107 l 711 0 q 679 -4 692 -3 q 653 -6 667 -6 q 595 16 617 -6 q 569 68 574 38 l 567 119 q 444 20 518 54 q 285 -14 369 -14 m 317 78 q 438 102 382 78 q 524 167 494 126 q 550 221 550 193 l 550 328 q 365 363 461 363 q 216 324 274 363 q 158 222 158 285 q 170 165 158 192 q 203 119 182 139 q 254 89 225 100 q 317 78 283 78 m 390 1063 l 310 1090 l 390 1231 l 513 1231 l 390 1063 m 256 918 q 288 988 256 963 q 368 1014 319 1014 q 449 988 418 1014 q 481 918 481 963 q 449 848 481 874 q 368 822 418 822 q 288 848 319 822 q 256 918 256 874 m 368 971 q 328 956 344 971 q 313 918 313 942 q 328 881 313 896 q 368 865 344 865 q 408 880 390 865 q 425 918 425 894 q 408 956 425 942 q 368 971 392 971 z "},"^":{"ha":768,"x_min":58,"x_max":710,"o":"m 58 421 l 333 986 l 436 986 l 710 421 l 606 421 l 385 876 l 160 421 l 58 421 z "},"~":{"ha":739,"x_min":90,"x_max":650,"o":"m 90 329 q 99 363 90 338 q 126 415 107 388 q 176 463 146 442 q 253 485 207 485 q 315 472 286 485 q 372 445 344 460 q 426 418 399 431 q 482 406 453 406 q 527 416 508 406 q 557 439 546 426 q 573 463 568 451 q 578 478 578 475 l 650 478 q 642 450 650 474 q 614 399 633 426 q 562 351 594 372 q 481 329 529 329 q 415 341 444 329 q 357 367 385 353 q 303 394 329 382 q 251 407 278 407 q 209 395 226 407 q 181 369 192 383 q 167 342 171 354 q 163 329 163 331 l 90 329 l 90 329 z "},"*":{"ha":457,"x_min":82,"x_max":375,"o":"m 117 747 l 178 838 l 82 868 l 100 926 l 197 889 l 193 992 l 264 992 l 260 889 l 357 926 l 375 868 l 279 838 l 342 747 l 289 713 l 229 806 l 168 713 l 117 747 z "},"@":{"ha":1167,"x_min":64,"x_max":1092,"o":"m 582 838 q 777 800 685 838 q 940 694 869 763 q 1051 527 1010 625 q 1092 308 1092 429 q 1090 256 1092 289 q 1081 188 1088 224 q 1060 114 1074 151 q 1024 46 1047 76 q 966 -3 1000 15 q 885 -22 932 -22 q 826 -12 849 -22 q 791 16 804 -1 q 772 56 778 33 q 764 101 767 78 q 663 31 724 60 q 528 3 601 3 q 372 56 426 3 q 317 192 317 110 q 340 283 317 246 q 400 343 363 321 q 484 375 438 365 q 576 385 531 385 q 681 373 636 385 q 747 353 725 361 q 740 437 747 399 q 713 502 732 475 q 662 544 694 529 q 579 560 629 560 q 475 542 524 560 q 388 496 426 525 l 360 564 q 467 616 410 597 q 590 635 525 635 q 718 608 671 635 q 789 540 765 582 q 819 448 813 499 q 825 349 825 397 l 825 183 q 827 126 825 153 q 836 81 829 100 q 858 50 843 61 q 896 39 872 39 q 964 68 938 39 q 1006 140 990 97 q 1028 228 1022 182 q 1033 311 1033 275 q 999 497 1033 411 q 904 646 965 582 q 760 746 843 710 q 579 782 676 782 q 400 747 483 782 q 255 651 317 713 q 158 505 193 590 q 122 319 122 419 q 156 138 122 222 q 249 -10 189 53 q 390 -110 308 -74 q 569 -147 472 -147 q 682 -133 632 -147 q 783 -94 732 -118 l 803 -147 q 687 -189 746 -175 q 568 -203 628 -203 q 372 -164 464 -203 q 212 -56 281 -125 q 103 110 143 14 q 64 319 64 206 q 107 535 64 439 q 222 698 150 631 q 387 801 293 765 q 582 838 481 838 m 661 106 q 731 166 715 131 q 746 238 746 201 l 746 289 q 683 306 728 292 q 575 319 638 319 q 507 313 539 319 q 450 292 475 307 q 410 255 425 278 q 396 197 396 232 q 433 110 396 144 q 533 75 471 75 q 601 84 567 75 q 661 106 635 93 z "},"ã":{"ha":769,"x_min":42,"x_max":711,"o":"m 285 -14 q 189 3 233 -14 q 112 51 144 21 q 60 123 79 82 q 42 213 42 164 q 64 303 42 263 q 127 374 86 344 q 224 419 168 403 q 347 436 281 436 q 454 426 400 436 q 550 400 508 417 l 550 458 q 500 598 550 547 q 358 649 450 649 q 128 564 249 649 l 88 643 q 369 738 228 738 q 592 661 513 738 q 672 446 672 585 l 672 150 q 711 106 672 107 l 711 0 q 679 -4 692 -3 q 653 -6 667 -6 q 595 16 617 -6 q 569 68 574 38 l 567 119 q 444 20 518 54 q 285 -14 369 -14 m 317 78 q 438 102 382 78 q 524 167 494 126 q 550 221 550 193 l 550 328 q 365 363 461 363 q 216 324 274 363 q 158 222 158 285 q 170 165 158 192 q 203 119 182 139 q 254 89 225 100 q 317 78 283 78 m 456 871 q 401 880 424 871 q 358 900 378 889 q 318 920 338 911 q 276 929 299 929 q 240 919 253 929 q 219 898 226 910 q 210 875 213 886 q 208 863 208 864 l 136 863 q 142 894 136 871 q 164 943 149 918 q 206 987 179 968 q 274 1006 232 1006 q 325 997 303 1006 q 367 976 347 988 q 408 955 388 964 q 453 946 428 946 q 494 956 479 946 q 518 978 510 965 q 528 1001 526 990 q 531 1014 531 1011 l 603 1014 q 597 983 603 1006 q 574 935 590 960 q 528 890 557 910 q 456 871 500 871 z "},"b":{"ha":865,"x_min":99,"x_max":814,"o":"m 471 -14 q 317 28 386 -14 q 207 136 247 69 l 207 0 l 99 0 l 99 1014 l 221 1014 l 221 581 q 333 694 267 651 q 489 738 400 738 q 624 706 564 738 q 726 622 683 674 q 791 501 768 569 q 814 360 814 432 q 788 215 814 283 q 715 97 761 147 q 606 16 669 46 q 471 -14 543 -14 m 440 92 q 540 114 494 92 q 619 174 586 136 q 671 259 653 211 q 689 360 689 307 q 672 462 689 413 q 623 549 654 511 q 548 609 592 586 q 451 632 504 632 q 378 618 413 632 q 313 581 343 604 q 260 528 283 558 q 221 463 238 497 l 221 253 q 251 189 228 218 q 305 138 274 160 q 372 104 336 117 q 440 92 407 92 z "},"\\":{"ha":819,"x_min":39,"x_max":781,"o":"m 176 986 l 781 0 l 644 0 l 39 986 l 176 986 z "},"|":{"ha":333,"x_min":114,"x_max":219,"o":"m 114 -181 l 114 1076 l 219 1076 l 219 -181 l 114 -181 z "},"{":{"ha":376,"x_min":65,"x_max":311,"o":"m 235 928 l 235 589 q 226 544 235 569 q 194 500 217 519 q 225 456 215 481 q 235 411 235 431 l 235 57 l 311 57 l 311 -43 l 156 -43 q 134 -34 144 -43 q 124 -1 124 -25 l 124 375 q 108 429 124 406 q 65 457 92 453 l 65 546 q 90 554 79 546 q 109 575 101 563 q 120 601 117 588 q 124 625 124 614 l 124 986 q 136 1020 124 1013 q 156 1028 149 1028 l 311 1028 l 311 928 l 235 928 z "},"}":{"ha":376,"x_min":65,"x_max":311,"o":"m 65 928 l 65 1028 l 221 1028 q 240 1020 228 1028 q 253 986 253 1013 l 253 625 q 256 601 253 614 q 267 575 260 588 q 285 554 275 563 q 311 546 296 546 l 311 457 q 268 429 283 453 q 253 375 253 406 l 253 -1 q 242 -34 253 -25 q 221 -43 231 -43 l 65 -43 l 65 57 l 142 57 l 142 411 q 151 456 142 431 q 182 500 160 481 q 151 544 160 519 q 142 589 142 569 l 142 928 l 65 928 z "},"[":{"ha":375,"x_min":117,"x_max":311,"o":"m 117 -56 l 117 1028 l 311 1028 l 311 928 l 231 928 l 231 44 l 311 44 l 311 -56 l 117 -56 z "},"]":{"ha":375,"x_min":64,"x_max":258,"o":"m 64 -56 l 64 44 l 144 44 l 144 928 l 64 928 l 64 1028 l 258 1028 l 258 -56 l 64 -56 z "},"¦":{"ha":336,"x_min":115,"x_max":221,"o":"m 221 379 l 221 -181 l 115 -181 l 115 379 l 221 379 m 221 1076 l 221 517 l 115 517 l 115 1076 l 221 1076 z "},"•":{"ha":494,"x_min":117,"x_max":378,"o":"m 378 482 q 367 431 378 454 q 340 390 357 407 q 298 362 322 372 q 247 351 274 351 q 197 362 221 351 q 156 390 174 372 q 127 431 138 407 q 117 482 117 454 q 127 532 117 508 q 156 574 138 556 q 197 602 174 592 q 247 613 221 613 q 298 602 274 613 q 340 574 322 592 q 367 532 357 556 q 378 482 378 508 z "},"c":{"ha":769,"x_min":50,"x_max":729,"o":"m 50 364 q 76 508 50 440 q 151 627 103 576 q 267 708 200 678 q 418 738 335 738 q 605 690 526 738 q 724 561 683 642 l 604 524 q 526 603 576 575 q 415 632 476 632 q 321 612 365 632 q 244 556 276 592 q 194 471 213 519 q 175 364 175 422 q 194 257 175 307 q 247 170 214 207 q 323 113 279 133 q 417 92 367 92 q 480 101 449 92 q 537 125 511 110 q 582 160 563 140 q 610 204 601 181 l 729 168 q 683 94 713 128 q 613 38 653 61 q 523 0 572 14 q 419 -14 474 -14 q 269 17 338 -14 q 153 99 201 47 q 77 219 104 150 q 50 364 50 288 z "},"ć":{"ha":769,"x_min":50,"x_max":729,"o":"m 438 846 l 357 874 l 438 1014 l 560 1014 l 438 846 m 50 364 q 76 508 50 440 q 151 627 103 576 q 267 708 200 678 q 418 738 335 738 q 605 690 526 738 q 724 561 683 642 l 604 524 q 526 603 576 575 q 415 632 476 632 q 321 612 365 632 q 244 556 276 592 q 194 471 213 519 q 175 364 175 422 q 194 257 175 307 q 247 170 214 207 q 323 113 279 133 q 417 92 367 92 q 480 101 449 92 q 537 125 511 110 q 582 160 563 140 q 610 204 601 181 l 729 168 q 683 94 713 128 q 613 38 653 61 q 523 0 572 14 q 419 -14 474 -14 q 269 17 338 -14 q 153 99 201 47 q 77 219 104 150 q 50 364 50 288 z "},"č":{"ha":769,"x_min":50,"x_max":729,"o":"m 299 1014 l 417 926 l 535 1014 l 601 981 l 461 856 l 372 856 l 232 981 l 299 1014 m 50 364 q 76 508 50 440 q 151 627 103 576 q 267 708 200 678 q 418 738 335 738 q 605 690 526 738 q 724 561 683 642 l 604 524 q 526 603 576 575 q 415 632 476 632 q 321 612 365 632 q 244 556 276 592 q 194 471 213 519 q 175 364 175 422 q 194 257 175 307 q 247 170 214 207 q 323 113 279 133 q 417 92 367 92 q 480 101 449 92 q 537 125 511 110 q 582 160 563 140 q 610 204 601 181 l 729 168 q 683 94 713 128 q 613 38 653 61 q 523 0 572 14 q 419 -14 474 -14 q 269 17 338 -14 q 153 99 201 47 q 77 219 104 150 q 50 364 50 288 z "},"ç":{"ha":769,"x_min":50,"x_max":729,"o":"m 311 -175 q 363 -193 329 -185 q 433 -201 397 -201 q 492 -190 471 -201 q 513 -153 513 -179 q 493 -115 513 -125 q 442 -104 474 -104 q 381 -110 413 -104 q 331 -122 349 -117 l 389 -12 q 251 25 314 -7 q 144 108 189 57 q 74 225 99 160 q 50 364 50 290 q 76 508 50 440 q 151 627 103 576 q 267 708 200 678 q 418 738 335 738 q 605 690 526 738 q 724 561 683 642 l 604 524 q 526 603 576 575 q 415 632 476 632 q 321 612 365 632 q 244 556 276 592 q 194 471 213 519 q 175 364 175 422 q 194 257 175 307 q 247 170 214 207 q 323 113 279 133 q 417 92 367 92 q 480 101 449 92 q 537 125 511 110 q 582 160 563 140 q 610 204 601 181 l 729 168 q 624 44 699 93 q 451 -12 550 -4 l 417 -67 q 442 -61 428 -62 q 467 -60 456 -60 q 546 -82 515 -60 q 576 -149 576 -104 q 538 -225 576 -197 q 424 -253 499 -253 q 347 -245 382 -253 q 283 -226 311 -237 l 311 -175 z "},"ĉ":{"ha":769,"x_min":50,"x_max":729,"o":"m 232 889 l 372 1014 l 461 1014 l 601 889 l 535 856 l 417 943 l 299 856 l 232 889 m 50 364 q 76 508 50 440 q 151 627 103 576 q 267 708 200 678 q 418 738 335 738 q 605 690 526 738 q 724 561 683 642 l 604 524 q 526 603 576 575 q 415 632 476 632 q 321 612 365 632 q 244 556 276 592 q 194 471 213 519 q 175 364 175 422 q 194 257 175 307 q 247 170 214 207 q 323 113 279 133 q 417 92 367 92 q 480 101 449 92 q 537 125 511 110 q 582 160 563 140 q 610 204 601 181 l 729 168 q 683 94 713 128 q 613 38 653 61 q 523 0 572 14 q 419 -14 474 -14 q 269 17 338 -14 q 153 99 201 47 q 77 219 104 150 q 50 364 50 288 z "},"ċ":{"ha":769,"x_min":50,"x_max":729,"o":"m 50 364 q 76 508 50 440 q 151 627 103 576 q 267 708 200 678 q 418 738 335 738 q 605 690 526 738 q 724 561 683 642 l 604 524 q 526 603 576 575 q 415 632 476 632 q 321 612 365 632 q 244 556 276 592 q 194 471 213 519 q 175 364 175 422 q 194 257 175 307 q 247 170 214 207 q 323 113 279 133 q 417 92 367 92 q 480 101 449 92 q 537 125 511 110 q 582 160 563 140 q 610 204 601 181 l 729 168 q 683 94 713 128 q 613 38 653 61 q 523 0 572 14 q 419 -14 474 -14 q 269 17 338 -14 q 153 99 201 47 q 77 219 104 150 q 50 364 50 288 m 361 867 l 361 1014 l 472 1014 l 472 867 l 361 867 z "},"¢":{"ha":792,"x_min":58,"x_max":739,"o":"m 383 -167 l 383 -12 q 253 27 313 -7 q 150 113 193 61 q 83 228 107 164 q 58 358 58 292 q 81 494 58 429 q 144 609 103 558 q 247 694 186 660 q 383 736 307 728 l 383 896 l 444 896 l 444 736 q 619 688 546 733 q 732 561 692 642 l 614 524 q 542 599 586 574 q 444 628 497 625 l 444 94 q 497 105 469 96 q 549 128 524 114 q 593 161 574 142 q 619 204 613 181 l 739 168 q 687 88 721 122 q 611 31 653 54 q 526 -3 569 8 q 444 -14 482 -14 l 444 -167 l 383 -167 m 183 358 q 198 269 183 313 q 240 192 213 226 q 303 133 267 157 q 383 100 339 108 l 383 624 q 299 593 336 618 q 235 531 261 568 q 197 449 210 494 q 183 358 183 404 z "},":":{"ha":279,"x_min":89,"x_max":190,"o":"m 89 564 l 89 719 l 190 719 l 190 564 l 89 564 m 89 0 l 89 156 l 190 156 l 190 0 l 89 0 z "},",":{"ha":293,"x_min":89,"x_max":204,"o":"m 103 -112 l 131 11 l 89 11 l 89 156 l 204 156 l 204 11 l 163 -112 l 103 -112 z "},"©":{"ha":1161,"x_min":65,"x_max":1096,"o":"m 578 -10 q 373 28 467 -10 q 211 134 279 67 q 104 293 143 201 q 65 493 65 385 q 104 692 65 600 q 211 850 143 783 q 373 955 279 917 q 578 993 467 993 q 784 955 689 993 q 949 850 879 917 q 1057 692 1018 783 q 1096 493 1096 600 q 1057 293 1096 385 q 949 134 1018 201 q 784 28 879 67 q 578 -10 689 -10 m 578 43 q 759 76 675 43 q 906 167 843 108 q 1003 308 968 226 q 1039 490 1039 390 q 1004 669 1039 586 q 908 812 969 751 q 762 906 846 872 q 578 940 678 940 q 396 906 479 940 q 251 812 313 872 q 156 669 190 751 q 121 492 121 588 q 156 314 121 396 q 251 172 190 232 q 396 77 313 111 q 578 43 479 43 m 589 168 q 460 192 521 168 q 355 258 400 215 q 283 361 310 301 q 257 493 257 421 q 277 611 257 553 q 338 716 297 669 q 439 791 378 763 q 582 819 500 819 q 753 778 679 819 q 861 658 828 736 l 743 621 q 710 667 731 649 q 669 695 690 685 q 624 710 647 706 q 582 714 601 714 q 494 695 532 714 q 432 645 457 676 q 394 574 407 614 q 382 493 382 535 q 401 399 382 440 q 449 331 419 358 q 514 288 478 303 q 585 274 550 274 q 681 299 633 274 q 751 371 729 325 l 869 335 q 833 277 858 307 q 772 223 808 247 q 690 183 736 199 q 589 168 643 168 z "},"d":{"ha":874,"x_min":51,"x_max":807,"o":"m 397 -14 q 258 17 322 -14 q 149 99 194 47 q 77 218 103 150 q 51 361 51 286 q 76 506 51 438 q 144 626 100 575 q 248 708 188 678 q 381 738 308 738 q 537 692 468 738 q 646 581 606 646 l 646 1014 l 768 1014 l 768 150 q 807 106 768 107 l 807 0 q 776 -4 788 -3 q 753 -6 764 -6 q 690 19 717 -6 q 663 75 663 43 l 663 136 q 548 26 619 65 q 397 -14 476 -14 m 426 92 q 495 104 460 92 q 562 139 531 117 q 616 191 593 161 q 646 254 639 221 l 646 463 q 608 528 633 497 q 552 583 583 560 q 485 619 521 606 q 415 632 450 632 q 317 609 361 632 q 242 548 274 586 q 194 460 211 510 q 178 360 178 411 q 197 256 178 306 q 250 171 217 207 q 328 113 283 135 q 426 92 374 92 z "},"†":{"ha":585,"x_min":51,"x_max":533,"o":"m 235 -181 l 235 321 l 51 321 l 51 432 l 235 432 l 235 1076 l 351 1076 l 351 432 l 533 432 l 533 321 l 351 321 l 351 -181 l 235 -181 z "},"‡":{"ha":588,"x_min":53,"x_max":535,"o":"m 236 -181 l 236 197 l 53 197 l 53 308 l 236 308 l 236 463 l 53 463 l 53 574 l 236 574 l 236 1076 l 353 1076 l 353 574 l 535 574 l 535 463 l 353 463 l 353 308 l 535 308 l 535 197 l 353 197 l 353 -181 l 236 -181 z "},"ď":{"ha":874,"x_min":51,"x_max":1017,"o":"m 894 846 l 814 874 l 894 1014 l 1017 1014 l 894 846 m 397 -14 q 258 17 322 -14 q 149 99 194 47 q 77 218 103 150 q 51 361 51 286 q 76 506 51 438 q 144 626 100 575 q 248 708 188 678 q 381 738 308 738 q 537 692 468 738 q 646 581 606 646 l 646 1014 l 768 1014 l 768 150 q 807 106 768 107 l 807 0 q 776 -4 788 -3 q 753 -6 764 -6 q 690 19 717 -6 q 663 75 663 43 l 663 136 q 548 26 619 65 q 397 -14 476 -14 m 426 92 q 495 104 460 92 q 562 139 531 117 q 616 191 593 161 q 646 254 639 221 l 646 463 q 608 528 633 497 q 552 583 583 560 q 485 619 521 606 q 415 632 450 632 q 317 609 361 632 q 242 548 274 586 q 194 460 211 510 q 178 360 178 411 q 197 256 178 306 q 250 171 217 207 q 328 113 283 135 q 426 92 374 92 z "},"đ":{"ha":874,"x_min":51,"x_max":863,"o":"m 397 -14 q 258 17 322 -14 q 149 99 194 47 q 77 218 103 150 q 51 361 51 286 q 76 506 51 438 q 144 626 100 575 q 248 708 188 678 q 381 738 308 738 q 537 692 468 738 q 646 581 606 646 l 646 849 l 493 849 l 493 926 l 646 926 l 646 1014 l 768 1014 l 768 926 l 863 926 l 863 849 l 768 849 l 768 150 q 807 106 768 107 l 807 0 q 776 -4 788 -3 q 753 -6 764 -6 q 690 19 717 -6 q 663 75 663 43 l 663 136 q 548 26 619 65 q 397 -14 476 -14 m 426 92 q 495 104 460 92 q 562 139 531 117 q 616 191 593 161 q 646 254 639 221 l 646 463 q 608 528 633 497 q 552 583 583 560 q 485 619 521 606 q 415 632 450 632 q 317 609 361 632 q 242 548 274 586 q 194 460 211 510 q 178 360 178 411 q 197 256 178 306 q 250 171 217 207 q 328 113 283 135 q 426 92 374 92 z "},"°":{"ha":378,"x_min":65,"x_max":313,"o":"m 65 885 q 101 971 65 936 q 189 1006 136 1006 q 277 971 242 1006 q 313 885 313 936 q 277 794 313 829 q 189 758 242 758 q 101 794 136 758 q 65 885 65 831 m 147 924 q 131 882 131 904 q 147 842 131 858 q 189 824 165 824 q 231 842 215 824 q 247 882 247 858 q 231 924 247 904 q 189 940 215 940 q 147 924 164 940 z "},"÷":{"ha":740,"x_min":90,"x_max":650,"o":"m 318 563 l 318 704 l 422 704 l 422 563 l 318 563 m 318 92 l 318 233 l 422 233 l 422 92 l 318 92 m 90 349 l 90 449 l 650 449 l 650 349 l 90 349 z "},"$":{"ha":864,"x_min":49,"x_max":808,"o":"m 706 779 q 664 815 689 797 q 606 847 639 832 q 536 870 574 861 q 457 881 499 879 l 457 551 l 475 547 q 613 509 551 531 q 719 456 675 488 q 785 378 763 424 q 808 265 808 332 q 782 144 808 196 q 710 60 756 93 q 601 9 664 26 q 465 -10 538 -8 l 465 -149 l 404 -149 l 404 -8 q 49 129 201 4 l 108 235 q 160 192 129 214 q 230 153 190 171 q 315 122 269 135 q 411 104 361 108 l 411 436 l 390 442 q 258 481 315 460 q 163 531 201 501 q 106 601 125 560 q 86 701 86 643 q 110 820 86 768 q 176 909 133 872 q 276 967 218 946 q 404 992 335 988 l 404 1132 l 465 1132 l 465 992 q 631 958 557 988 q 764 881 706 929 l 706 779 m 675 253 q 660 315 675 289 q 618 360 646 340 q 550 396 590 381 q 457 425 510 411 l 457 103 q 618 140 561 103 q 675 253 675 178 m 215 721 q 227 661 215 686 q 263 618 239 636 q 324 587 286 600 q 411 561 361 574 l 411 881 q 263 833 310 875 q 215 721 215 792 z "},"ı":{"ha":319,"x_min":99,"x_max":221,"o":"m 99 0 l 99 725 l 221 725 l 221 0 l 99 0 z "},"ȷ":{"ha":319,"x_min":-171,"x_max":221,"o":"m -4 -258 q -95 -244 -53 -258 q -171 -200 -137 -231 l -114 -118 q -69 -143 -94 -136 q -18 -150 -43 -150 q 25 -141 4 -150 q 63 -117 46 -132 q 89 -79 79 -101 q 99 -32 99 -57 l 99 725 l 221 725 l 221 -24 q 202 -118 221 -75 q 152 -192 183 -161 q 81 -241 121 -224 q -4 -258 40 -258 z "},"e":{"ha":821,"x_min":50,"x_max":783,"o":"m 419 -14 q 269 16 338 -14 q 153 97 201 46 q 77 217 104 149 q 50 363 50 286 q 77 507 50 439 q 153 626 104 575 q 271 708 203 678 q 421 738 339 738 q 570 707 503 738 q 685 626 638 676 q 758 508 732 575 q 783 368 783 440 q 783 340 783 353 q 781 321 782 328 l 179 321 q 204 222 183 267 q 258 146 225 178 q 334 96 292 114 q 424 78 376 78 q 489 87 457 78 q 549 111 521 96 q 598 149 576 126 q 631 199 619 171 l 736 169 q 687 96 718 129 q 615 38 656 63 q 524 0 574 14 q 419 -14 474 -14 m 668 411 q 642 506 664 463 q 588 581 621 550 q 513 628 556 611 q 421 646 469 646 q 329 628 372 646 q 253 580 286 611 q 201 506 221 549 q 176 411 181 463 l 668 411 z "},"é":{"ha":821,"x_min":50,"x_max":783,"o":"m 436 846 l 356 874 l 436 1014 l 558 1014 l 436 846 m 419 -14 q 269 16 338 -14 q 153 97 201 46 q 77 217 104 149 q 50 363 50 286 q 77 507 50 439 q 153 626 104 575 q 271 708 203 678 q 421 738 339 738 q 570 707 503 738 q 685 626 638 676 q 758 508 732 575 q 783 368 783 440 q 783 340 783 353 q 781 321 782 328 l 179 321 q 204 222 183 267 q 258 146 225 178 q 334 96 292 114 q 424 78 376 78 q 489 87 457 78 q 549 111 521 96 q 598 149 576 126 q 631 199 619 171 l 736 169 q 687 96 718 129 q 615 38 656 63 q 524 0 574 14 q 419 -14 474 -14 m 668 411 q 642 506 664 463 q 588 581 621 550 q 513 628 556 611 q 421 646 469 646 q 329 628 372 646 q 253 580 286 611 q 201 506 221 549 q 176 411 181 463 l 668 411 z "},"ĕ":{"ha":821,"x_min":50,"x_max":783,"o":"m 419 -14 q 269 16 338 -14 q 153 97 201 46 q 77 217 104 149 q 50 363 50 286 q 77 507 50 439 q 153 626 104 575 q 271 708 203 678 q 421 738 339 738 q 570 707 503 738 q 685 626 638 676 q 758 508 732 575 q 783 368 783 440 q 783 340 783 353 q 781 321 782 328 l 179 321 q 204 222 183 267 q 258 146 225 178 q 334 96 292 114 q 424 78 376 78 q 489 87 457 78 q 549 111 521 96 q 598 149 576 126 q 631 199 619 171 l 736 169 q 687 96 718 129 q 615 38 656 63 q 524 0 574 14 q 419 -14 474 -14 m 668 411 q 642 506 664 463 q 588 581 621 550 q 513 628 556 611 q 421 646 469 646 q 329 628 372 646 q 253 580 286 611 q 201 506 221 549 q 176 411 181 463 l 668 411 m 415 919 q 469 947 446 919 q 496 1014 492 974 l 565 1014 q 553 953 565 981 q 522 904 542 925 q 474 872 501 883 q 415 860 447 860 q 356 872 383 860 q 309 904 329 883 q 277 953 289 925 q 265 1014 265 981 l 336 1014 q 360 948 336 976 q 415 919 383 919 z "},"ě":{"ha":821,"x_min":50,"x_max":783,"o":"m 297 1014 l 415 926 l 533 1014 l 600 981 l 460 856 l 371 856 l 231 981 l 297 1014 m 419 -14 q 269 16 338 -14 q 153 97 201 46 q 77 217 104 149 q 50 363 50 286 q 77 507 50 439 q 153 626 104 575 q 271 708 203 678 q 421 738 339 738 q 570 707 503 738 q 685 626 638 676 q 758 508 732 575 q 783 368 783 440 q 783 340 783 353 q 781 321 782 328 l 179 321 q 204 222 183 267 q 258 146 225 178 q 334 96 292 114 q 424 78 376 78 q 489 87 457 78 q 549 111 521 96 q 598 149 576 126 q 631 199 619 171 l 736 169 q 687 96 718 129 q 615 38 656 63 q 524 0 574 14 q 419 -14 474 -14 m 668 411 q 642 506 664 463 q 588 581 621 550 q 513 628 556 611 q 421 646 469 646 q 329 628 372 646 q 253 580 286 611 q 201 506 221 549 q 176 411 181 463 l 668 411 z "},"ê":{"ha":821,"x_min":50,"x_max":783,"o":"m 231 889 l 371 1014 l 460 1014 l 600 889 l 533 856 l 415 943 l 297 856 l 231 889 m 419 -14 q 269 16 338 -14 q 153 97 201 46 q 77 217 104 149 q 50 363 50 286 q 77 507 50 439 q 153 626 104 575 q 271 708 203 678 q 421 738 339 738 q 570 707 503 738 q 685 626 638 676 q 758 508 732 575 q 783 368 783 440 q 783 340 783 353 q 781 321 782 328 l 179 321 q 204 222 183 267 q 258 146 225 178 q 334 96 292 114 q 424 78 376 78 q 489 87 457 78 q 549 111 521 96 q 598 149 576 126 q 631 199 619 171 l 736 169 q 687 96 718 129 q 615 38 656 63 q 524 0 574 14 q 419 -14 474 -14 m 668 411 q 642 506 664 463 q 588 581 621 550 q 513 628 556 611 q 421 646 469 646 q 329 628 372 646 q 253 580 286 611 q 201 506 221 549 q 176 411 181 463 l 668 411 z "},"ë":{"ha":821,"x_min":50,"x_max":783,"o":"m 251 867 l 251 1008 l 354 1008 l 354 867 l 251 867 m 476 867 l 476 1008 l 579 1008 l 579 867 l 476 867 m 419 -14 q 269 16 338 -14 q 153 97 201 46 q 77 217 104 149 q 50 363 50 286 q 77 507 50 439 q 153 626 104 575 q 271 708 203 678 q 421 738 339 738 q 570 707 503 738 q 685 626 638 676 q 758 508 732 575 q 783 368 783 440 q 783 340 783 353 q 781 321 782 328 l 179 321 q 204 222 183 267 q 258 146 225 178 q 334 96 292 114 q 424 78 376 78 q 489 87 457 78 q 549 111 521 96 q 598 149 576 126 q 631 199 619 171 l 736 169 q 687 96 718 129 q 615 38 656 63 q 524 0 574 14 q 419 -14 474 -14 m 668 411 q 642 506 664 463 q 588 581 621 550 q 513 628 556 611 q 421 646 469 646 q 329 628 372 646 q 253 580 286 611 q 201 506 221 549 q 176 411 181 463 l 668 411 z "},"ė":{"ha":821,"x_min":50,"x_max":783,"o":"m 419 -14 q 269 16 338 -14 q 153 97 201 46 q 77 217 104 149 q 50 363 50 286 q 77 507 50 439 q 153 626 104 575 q 271 708 203 678 q 421 738 339 738 q 570 707 503 738 q 685 626 638 676 q 758 508 732 575 q 783 368 783 440 q 783 340 783 353 q 781 321 782 328 l 179 321 q 204 222 183 267 q 258 146 225 178 q 334 96 292 114 q 424 78 376 78 q 489 87 457 78 q 549 111 521 96 q 598 149 576 126 q 631 199 619 171 l 736 169 q 687 96 718 129 q 615 38 656 63 q 524 0 574 14 q 419 -14 474 -14 m 668 411 q 642 506 664 463 q 588 581 621 550 q 513 628 556 611 q 421 646 469 646 q 329 628 372 646 q 253 580 286 611 q 201 506 221 549 q 176 411 181 463 l 668 411 m 360 867 l 360 1014 l 471 1014 l 471 867 l 360 867 z "},"è":{"ha":821,"x_min":50,"x_max":783,"o":"m 419 -14 q 269 16 338 -14 q 153 97 201 46 q 77 217 104 149 q 50 363 50 286 q 77 507 50 439 q 153 626 104 575 q 271 708 203 678 q 421 738 339 738 q 570 707 503 738 q 685 626 638 676 q 758 508 732 575 q 783 368 783 440 q 783 340 783 353 q 781 321 782 328 l 179 321 q 204 222 183 267 q 258 146 225 178 q 334 96 292 114 q 424 78 376 78 q 489 87 457 78 q 549 111 521 96 q 598 149 576 126 q 631 199 619 171 l 736 169 q 687 96 718 129 q 615 38 656 63 q 524 0 574 14 q 419 -14 474 -14 m 668 411 q 642 506 664 463 q 588 581 621 550 q 513 628 556 611 q 421 646 469 646 q 329 628 372 646 q 253 580 286 611 q 201 506 221 549 q 176 411 181 463 l 668 411 m 271 1014 l 392 1014 l 474 874 l 394 846 l 271 1014 z "},"₈":{"ha":563,"x_min":50,"x_max":511,"o":"m 511 49 q 492 -19 511 11 q 442 -72 474 -50 q 368 -106 410 -93 q 279 -118 326 -118 q 188 -105 229 -118 q 115 -69 146 -92 q 67 -15 85 -46 q 50 51 50 17 q 60 100 50 78 q 88 140 71 122 q 128 170 106 157 q 175 192 151 183 q 103 235 135 207 q 72 306 72 263 q 91 367 72 339 q 139 413 110 394 q 206 442 168 432 q 281 453 243 453 q 356 442 318 453 q 422 413 393 432 q 470 367 451 394 q 489 307 489 340 q 459 236 489 265 q 385 192 429 207 q 475 137 439 172 q 511 49 511 101 m 433 57 q 419 99 433 81 q 384 131 406 118 q 335 150 363 143 q 281 157 307 157 q 224 150 251 157 q 175 129 196 143 q 141 97 154 115 q 128 56 128 78 q 142 14 128 32 q 178 -17 156 -4 q 227 -35 200 -29 q 282 -42 254 -42 q 337 -35 310 -42 q 385 -15 364 -28 q 420 17 407 -1 q 433 57 433 35 m 150 299 q 162 265 150 279 q 192 240 174 250 q 234 225 211 231 q 281 219 257 219 q 326 225 303 219 q 369 241 350 231 q 401 266 389 251 q 413 300 413 281 q 401 333 413 318 q 372 358 390 347 q 329 374 353 368 q 281 379 306 379 q 189 358 228 379 q 150 299 150 336 z "},"⁸":{"ha":563,"x_min":50,"x_max":511,"o":"m 511 721 q 492 653 511 683 q 442 601 474 622 q 368 567 410 579 q 279 554 326 554 q 188 567 229 554 q 115 603 146 581 q 67 658 85 626 q 50 724 50 689 q 60 772 50 750 q 88 812 71 794 q 128 842 106 829 q 175 864 151 856 q 103 907 135 879 q 72 978 72 935 q 91 1039 72 1011 q 139 1085 110 1067 q 206 1115 168 1104 q 281 1125 243 1125 q 356 1115 318 1125 q 422 1085 393 1104 q 470 1040 451 1067 q 489 979 489 1013 q 459 908 489 938 q 385 864 429 879 q 475 809 439 844 q 511 721 511 774 m 433 729 q 419 772 433 753 q 384 803 406 790 q 335 822 363 815 q 281 829 307 829 q 224 822 251 829 q 175 802 196 815 q 141 770 154 789 q 128 729 128 751 q 142 688 128 706 q 178 657 156 669 q 227 638 200 644 q 282 631 254 631 q 337 638 310 631 q 385 658 364 644 q 420 689 407 671 q 433 729 433 707 m 150 972 q 162 938 150 953 q 192 913 174 924 q 234 898 211 903 q 281 893 257 893 q 326 899 303 893 q 369 914 350 904 q 401 938 389 924 q 413 972 413 953 q 401 1006 413 990 q 372 1031 390 1021 q 329 1046 353 1040 q 281 1051 306 1051 q 189 1030 228 1051 q 150 972 150 1008 z "},"…":{"ha":699,"x_min":89,"x_max":610,"o":"m 89 0 l 89 156 l 192 156 l 192 0 l 89 0 m 299 0 l 299 156 l 400 156 l 400 0 l 299 0 m 507 0 l 507 156 l 610 156 l 610 0 l 507 0 z "},"ē":{"ha":821,"x_min":50,"x_max":783,"o":"m 419 -14 q 269 16 338 -14 q 153 97 201 46 q 77 217 104 149 q 50 363 50 286 q 77 507 50 439 q 153 626 104 575 q 271 708 203 678 q 421 738 339 738 q 570 707 503 738 q 685 626 638 676 q 758 508 732 575 q 783 368 783 440 q 783 340 783 353 q 781 321 782 328 l 179 321 q 204 222 183 267 q 258 146 225 178 q 334 96 292 114 q 424 78 376 78 q 489 87 457 78 q 549 111 521 96 q 598 149 576 126 q 631 199 619 171 l 736 169 q 687 96 718 129 q 615 38 656 63 q 524 0 574 14 q 419 -14 474 -14 m 668 411 q 642 506 664 463 q 588 581 621 550 q 513 628 556 611 q 421 646 469 646 q 329 628 372 646 q 253 580 286 611 q 201 506 221 549 q 176 411 181 463 l 668 411 m 213 908 l 213 989 l 618 989 l 618 908 l 213 908 z "},"—":{"ha":1265,"x_min":89,"x_max":1176,"o":"m 89 324 l 89 435 l 1176 435 l 1176 324 l 89 324 z "},"–":{"ha":808,"x_min":89,"x_max":719,"o":"m 89 324 l 89 435 l 719 435 l 719 324 l 89 324 z "},"ŋ":{"ha":819,"x_min":99,"x_max":728,"o":"m 503 -258 q 412 -244 454 -258 q 336 -200 369 -231 l 393 -118 q 438 -143 413 -136 q 489 -150 464 -150 q 532 -141 511 -150 q 569 -117 553 -132 q 596 -79 586 -101 q 606 -32 606 -57 l 606 406 q 570 575 606 522 q 463 628 535 628 q 388 613 425 628 q 317 574 350 599 q 258 514 283 549 q 221 438 233 479 l 221 0 l 99 0 l 99 725 l 210 725 l 210 569 q 334 692 253 646 q 511 738 415 738 q 615 715 574 738 q 682 651 657 692 q 717 554 707 610 q 728 433 728 499 l 728 -24 q 709 -118 728 -75 q 659 -192 690 -161 q 588 -241 628 -224 q 503 -258 547 -258 z "},"ę":{"ha":821,"x_min":50,"x_max":783,"o":"m 418 -258 q 331 -219 360 -247 q 301 -151 301 -190 q 399 -12 301 -82 q 257 22 321 -8 q 147 104 193 53 q 76 222 101 156 q 50 363 50 288 q 77 507 50 439 q 153 626 104 575 q 271 708 203 678 q 421 738 339 738 q 570 707 503 738 q 685 626 638 676 q 758 508 732 575 q 783 368 783 440 q 783 340 783 353 q 781 321 782 328 l 179 321 q 204 222 183 267 q 258 146 225 178 q 334 96 292 114 q 424 78 376 78 q 489 87 457 78 q 549 111 521 96 q 598 149 576 126 q 631 199 619 171 l 736 169 q 638 52 706 100 q 482 -8 571 4 q 398 -74 424 -44 q 372 -135 372 -104 q 449 -194 372 -186 l 418 -258 m 668 411 q 642 506 664 463 q 588 581 621 550 q 513 628 556 611 q 421 646 469 646 q 329 628 372 646 q 253 580 286 611 q 201 506 221 549 q 176 411 181 463 l 668 411 z "},"=":{"ha":610,"x_min":93,"x_max":517,"o":"m 93 249 l 93 332 l 517 332 l 517 249 l 93 249 m 93 435 l 93 518 l 517 518 l 517 435 l 93 435 z "},"ð":{"ha":842,"x_min":54,"x_max":786,"o":"m 701 939 l 593 875 q 684 756 647 818 q 744 633 721 694 q 776 513 767 572 q 786 403 786 454 q 756 228 786 306 q 675 97 726 151 q 556 15 624 43 q 413 -14 488 -14 q 274 13 339 -14 q 160 84 208 39 q 83 191 111 129 q 54 324 54 253 q 81 452 54 392 q 153 558 107 513 q 260 631 199 604 q 393 657 322 657 q 552 617 481 657 q 661 511 624 578 q 611 672 647 594 q 500 828 575 750 l 351 739 l 314 790 l 451 872 q 246 1014 369 944 l 418 1014 q 547 919 489 972 l 664 990 l 701 939 m 179 324 q 198 233 179 275 q 249 159 217 190 q 324 110 281 128 q 417 92 367 92 q 513 111 468 92 q 590 163 557 131 q 642 240 624 196 q 661 332 661 283 q 642 421 661 379 q 591 492 624 463 q 515 540 558 522 q 422 557 472 557 q 326 539 371 557 q 249 489 282 521 q 198 415 217 457 q 179 324 179 372 z "},"ẽ":{"ha":821,"x_min":50,"x_max":783,"o":"m 419 -14 q 269 16 338 -14 q 153 97 201 46 q 77 217 104 149 q 50 363 50 286 q 77 507 50 439 q 153 626 104 575 q 271 708 203 678 q 421 738 339 738 q 570 707 503 738 q 685 626 638 676 q 758 508 732 575 q 783 368 783 440 q 783 340 783 353 q 781 321 782 328 l 179 321 q 204 222 183 267 q 258 146 225 178 q 334 96 292 114 q 424 78 376 78 q 489 87 457 78 q 549 111 521 96 q 598 149 576 126 q 631 199 619 171 l 736 169 q 687 96 718 129 q 615 38 656 63 q 524 0 574 14 q 419 -14 474 -14 m 668 411 q 642 506 664 463 q 588 581 621 550 q 513 628 556 611 q 421 646 469 646 q 329 628 372 646 q 253 580 286 611 q 201 506 221 549 q 176 411 181 463 l 668 411 m 501 871 q 447 880 469 871 q 403 900 424 889 q 364 920 383 911 q 322 929 344 929 q 285 919 299 929 q 265 898 272 910 q 256 875 258 886 q 254 863 254 864 l 182 863 q 188 894 182 871 q 210 943 194 918 q 251 987 225 968 q 319 1006 278 1006 q 371 997 349 1006 q 413 976 393 988 q 453 955 433 964 q 499 946 474 946 q 540 956 525 946 q 564 978 556 965 q 574 1001 572 990 q 576 1014 576 1011 l 649 1014 q 642 983 649 1006 q 619 935 636 960 q 574 890 603 910 q 501 871 546 871 z "},"!":{"ha":364,"x_min":121,"x_max":243,"o":"m 121 333 l 121 996 l 243 996 l 243 333 l 121 333 m 121 0 l 121 172 l 243 172 l 243 0 l 121 0 z "},"¡":{"ha":361,"x_min":119,"x_max":242,"o":"m 242 658 l 242 -4 l 119 -4 l 119 658 l 242 658 m 242 992 l 242 819 l 119 819 l 119 992 l 242 992 z "},"f":{"ha":476,"x_min":39,"x_max":519,"o":"m 138 0 l 138 629 l 39 629 l 39 725 l 138 725 l 138 740 q 197 951 138 875 q 360 1028 257 1028 q 444 1016 403 1028 q 519 983 486 1004 l 489 893 q 441 915 469 907 q 385 924 413 924 q 292 878 324 924 q 260 744 260 832 l 260 725 l 453 725 l 453 629 l 260 629 l 260 0 l 138 0 z "},"ﬀ":{"ha":835,"x_min":39,"x_max":869,"o":"m 738 922 q 672 906 699 922 q 627 865 644 890 q 601 808 610 840 q 593 744 593 776 l 593 725 l 811 725 l 811 629 l 593 629 l 593 0 l 471 0 l 471 629 l 260 629 l 260 0 l 138 0 l 138 629 l 39 629 l 39 725 l 138 725 l 138 731 q 153 822 139 778 q 197 901 168 867 q 267 955 225 935 q 365 975 310 975 q 456 964 415 975 q 529 938 497 953 q 605 1003 560 978 q 715 1028 650 1028 q 812 1010 776 1028 q 869 983 847 993 l 839 893 q 800 913 822 904 q 738 922 778 922 m 471 725 q 476 787 471 751 q 493 844 482 822 q 441 865 471 860 q 388 869 411 869 q 290 828 318 869 q 260 732 261 788 l 260 725 l 471 725 z "},"ﬃ":{"ha":1063,"x_min":39,"x_max":967,"o":"m 138 629 l 39 629 l 39 725 l 138 725 l 138 731 q 152 819 138 775 q 196 897 167 863 q 267 953 225 932 q 365 975 310 975 q 456 964 415 975 q 529 938 497 953 q 615 1003 563 978 q 738 1028 667 1028 q 870 1003 811 1028 q 967 956 929 979 l 914 865 q 842 906 888 889 q 749 922 797 922 q 677 906 707 922 q 628 865 647 890 q 601 808 610 840 q 593 744 593 776 l 593 725 l 964 725 l 964 0 l 842 0 l 842 629 l 593 629 l 593 0 l 471 0 l 471 629 l 260 629 l 260 0 l 138 0 l 138 629 m 471 725 q 476 787 471 751 q 493 844 482 822 q 441 865 471 860 q 388 869 411 869 q 328 858 353 869 q 289 826 304 846 q 267 782 274 807 q 260 732 260 757 l 260 725 l 471 725 z "},"ﬄ":{"ha":1179,"x_min":39,"x_max":1182,"o":"m 1039 -10 q 924 31 965 -10 q 883 129 883 72 l 883 768 q 876 822 883 794 q 853 872 869 850 q 810 908 838 894 q 743 922 783 922 q 676 907 703 922 q 631 865 649 892 q 605 804 613 839 q 597 731 597 769 l 597 725 l 739 725 l 739 629 l 597 629 l 597 0 l 475 0 l 475 629 l 260 629 l 260 0 l 138 0 l 138 629 l 39 629 l 39 725 l 138 725 l 138 731 q 153 822 138 778 q 200 901 169 867 q 274 955 231 935 q 372 975 318 975 q 460 964 424 975 q 529 938 497 953 q 742 1028 599 1028 q 858 1010 808 1028 q 940 962 907 993 q 989 888 972 931 q 1006 794 1006 846 l 1006 185 q 1010 156 1006 171 q 1024 128 1014 140 q 1047 108 1033 115 q 1079 100 1060 100 q 1133 108 1106 100 q 1163 117 1160 117 l 1182 17 q 1169 11 1182 15 q 1135 2 1156 7 q 1090 -6 1115 -3 q 1039 -10 1064 -10 m 475 725 q 478 790 475 754 q 492 846 482 826 q 444 865 469 861 q 396 869 419 869 q 337 858 363 869 q 294 826 311 846 q 268 783 276 807 q 260 735 260 758 l 260 725 l 475 725 z "},"ﬁ":{"ha":729,"x_min":39,"x_max":633,"o":"m 138 629 l 39 629 l 39 725 l 138 725 l 138 740 q 154 846 138 794 q 204 938 171 897 q 288 1003 238 978 q 406 1028 338 1028 q 541 1003 483 1028 q 633 956 599 979 l 581 865 q 508 906 553 889 q 413 922 464 922 q 344 906 372 922 q 297 865 315 890 q 269 808 278 840 q 260 744 260 776 l 260 725 l 631 725 l 631 0 l 508 0 l 508 629 l 260 629 l 260 0 l 138 0 l 138 629 z "},"ﬂ":{"ha":842,"x_min":39,"x_max":846,"o":"m 846 17 q 832 11 844 15 q 799 2 819 7 q 753 -6 778 -3 q 701 -10 728 -10 q 588 31 628 -10 q 547 129 547 72 l 547 768 q 540 822 547 794 q 517 872 533 850 q 474 908 501 894 q 406 922 447 922 q 296 871 329 922 q 260 738 263 819 l 260 725 l 403 725 l 403 629 l 260 629 l 260 0 l 138 0 l 138 629 l 39 629 l 39 725 l 138 725 l 138 750 q 205 952 138 876 q 404 1028 272 1028 q 521 1010 471 1028 q 603 962 571 993 q 653 888 636 931 q 669 794 669 846 l 669 185 q 674 156 669 171 q 688 128 678 140 q 710 108 697 115 q 743 100 724 100 q 797 108 769 100 q 825 117 824 117 l 846 17 z "},"⅝":{"ha":1249,"x_min":49,"x_max":1200,"o":"m 1200 160 q 1181 92 1200 122 q 1131 40 1163 61 q 1057 6 1099 18 q 968 -7 1015 -7 q 876 6 918 -7 q 804 42 835 19 q 756 97 774 65 q 739 163 739 128 q 749 211 739 189 q 777 251 760 233 q 817 281 794 268 q 864 303 840 294 q 792 346 824 318 q 761 417 761 374 q 780 478 761 450 q 828 524 799 506 q 894 553 857 543 q 969 564 932 564 q 1044 553 1007 564 q 1111 524 1082 543 q 1159 478 1140 506 q 1178 418 1178 451 q 1148 347 1178 376 q 1074 303 1118 318 q 1164 248 1128 283 q 1200 160 1200 213 m 1122 168 q 1108 210 1122 192 q 1073 242 1094 229 q 1024 261 1051 254 q 969 268 996 268 q 913 261 940 268 q 864 240 885 254 q 830 208 843 226 q 817 167 817 189 q 831 125 817 143 q 867 94 844 107 q 916 76 889 82 q 971 69 943 69 q 1026 76 999 69 q 1074 97 1053 83 q 1109 128 1096 110 q 1122 168 1122 146 m 839 410 q 851 376 839 390 q 881 351 863 361 q 923 336 900 342 q 969 331 946 331 q 1015 336 992 331 q 1058 352 1039 342 q 1090 377 1078 363 q 1101 411 1101 392 q 1090 444 1101 429 q 1060 469 1079 458 q 1018 485 1042 479 q 969 490 994 490 q 878 469 917 490 q 839 410 839 447 m 276 811 q 362 798 322 811 q 431 761 401 785 q 476 704 460 738 q 493 632 493 671 q 475 556 493 590 q 426 496 457 521 q 351 457 394 471 q 260 443 308 443 q 133 471 189 443 q 49 546 76 499 l 97 593 q 167 537 124 557 q 264 517 210 517 q 371 548 328 517 q 414 633 414 579 q 401 685 414 663 q 368 722 389 707 q 322 744 347 736 q 269 751 296 751 q 191 733 229 751 q 132 686 153 715 l 63 686 q 79 762 68 715 q 102 857 90 808 q 124 949 114 906 q 138 1014 133 992 l 456 1014 l 456 938 l 194 938 l 153 775 q 206 801 175 792 q 276 811 238 811 m 203 46 l 592 514 l 964 993 l 1024 942 l 639 476 l 261 -7 l 203 46 z "},"⁵":{"ha":528,"x_min":40,"x_max":485,"o":"m 268 922 q 353 909 314 922 q 422 872 393 896 q 468 815 451 849 q 485 743 485 782 q 467 667 485 701 q 417 607 449 632 q 343 568 386 582 q 251 554 300 554 q 124 582 181 554 q 40 657 68 610 l 89 704 q 158 648 115 668 q 256 628 201 628 q 363 659 319 628 q 406 744 406 690 q 393 796 406 774 q 360 833 381 818 q 313 855 339 847 q 261 863 288 863 q 183 844 221 863 q 124 797 144 826 l 54 797 q 71 873 60 826 q 94 968 82 919 q 115 1060 106 1017 q 129 1125 125 1103 l 447 1125 l 447 1049 l 186 1049 l 144 886 q 198 913 167 903 q 268 922 229 922 z "},"⁄":{"ha":233,"x_min":-294,"x_max":526,"o":"m -294 46 l 94 514 l 467 993 l 526 942 l 142 476 l -236 -7 l -294 46 z "},"₅":{"ha":528,"x_min":40,"x_max":485,"o":"m 268 250 q 353 237 314 250 q 422 200 393 224 q 468 143 451 176 q 485 69 485 110 q 467 -7 485 28 q 417 -66 449 -42 q 343 -104 386 -90 q 251 -118 300 -118 q 124 -90 181 -118 q 40 -17 68 -62 l 89 31 q 158 -25 115 -4 q 256 -46 201 -46 q 363 -14 319 -46 q 406 72 406 18 q 393 124 406 101 q 360 160 381 146 q 313 183 339 175 q 261 190 288 190 q 183 172 221 190 q 124 125 144 154 l 54 125 q 71 201 60 154 q 94 296 82 247 q 115 388 106 344 q 129 453 125 431 l 447 453 l 447 376 l 186 376 l 144 214 q 198 240 167 231 q 268 250 229 250 z "},"ƒ":{"ha":742,"x_min":42,"x_max":693,"o":"m 208 -258 q 118 -244 161 -258 q 42 -200 75 -231 l 99 -118 q 144 -143 118 -136 q 194 -150 169 -150 q 238 -141 217 -150 q 275 -117 258 -132 q 301 -79 292 -101 q 311 -32 311 -57 l 311 544 l 213 544 l 213 640 l 311 640 l 311 740 q 371 951 311 875 q 533 1028 431 1028 q 617 1016 575 1028 q 693 983 660 1004 l 663 893 q 614 915 643 907 q 557 924 585 924 q 465 878 496 924 q 433 744 433 832 l 433 640 l 626 640 l 626 544 l 433 544 l 433 -29 q 415 -122 433 -79 q 365 -194 396 -164 q 292 -242 333 -225 q 208 -258 251 -258 z "},"₄":{"ha":543,"x_min":32,"x_max":504,"o":"m 346 -111 l 346 28 l 32 28 l 32 101 l 369 453 l 422 453 l 422 103 l 504 103 l 504 28 l 422 28 l 422 -111 l 346 -111 m 111 103 l 349 103 l 349 353 l 111 103 z "},"⁴":{"ha":544,"x_min":32,"x_max":504,"o":"m 346 563 l 346 700 l 32 700 l 32 774 l 369 1125 l 422 1125 l 422 775 l 504 775 l 504 700 l 422 700 l 422 563 l 346 563 m 111 775 l 349 775 l 349 1025 l 111 775 z "},"g":{"ha":867,"x_min":53,"x_max":768,"o":"m 388 -8 q 252 22 314 -8 q 146 104 190 53 q 77 222 101 156 q 53 361 53 289 q 77 506 53 438 q 146 626 101 575 q 252 708 190 678 q 389 738 314 738 q 547 693 481 738 q 660 581 614 649 l 660 725 l 768 725 l 768 8 q 739 -128 768 -69 q 660 -228 710 -187 q 542 -289 610 -268 q 399 -310 475 -310 q 198 -267 275 -310 q 69 -150 121 -225 l 140 -87 q 251 -183 183 -151 q 399 -215 319 -215 q 494 -201 449 -215 q 572 -160 539 -187 q 626 -90 606 -132 q 646 8 646 -49 l 646 136 q 597 76 625 103 q 535 30 568 49 q 464 1 501 11 q 388 -8 426 -8 m 425 92 q 500 106 464 92 q 567 142 536 119 q 618 194 597 165 q 646 254 639 224 l 646 463 q 606 531 631 500 q 551 584 582 561 q 485 619 521 607 q 414 632 450 632 q 315 608 358 632 q 240 546 271 585 q 193 458 210 507 q 176 358 176 408 q 196 256 176 304 q 249 171 215 207 q 327 113 282 135 q 425 92 372 92 z "},"ğ":{"ha":865,"x_min":51,"x_max":767,"o":"m 386 -8 q 251 22 313 -8 q 144 104 189 53 q 76 222 100 156 q 51 361 51 289 q 76 506 51 438 q 144 626 100 575 q 251 708 189 678 q 388 738 313 738 q 546 693 479 738 q 658 581 613 649 l 658 725 l 767 725 l 767 8 q 738 -128 767 -69 q 658 -228 708 -187 q 541 -289 608 -268 q 397 -310 474 -310 q 197 -267 274 -310 q 68 -150 119 -225 l 139 -87 q 250 -183 182 -151 q 397 -215 318 -215 q 492 -201 447 -215 q 571 -160 538 -187 q 624 -90 604 -132 q 644 8 644 -49 l 644 136 q 595 76 624 103 q 533 30 567 49 q 463 1 500 11 q 386 -8 425 -8 m 424 92 q 499 106 463 92 q 565 142 535 119 q 617 194 596 165 q 644 254 638 224 l 644 463 q 605 531 629 500 q 550 584 581 561 q 484 619 519 607 q 413 632 449 632 q 313 608 357 632 q 239 546 269 585 q 192 458 208 507 q 175 358 175 408 q 194 256 175 304 q 247 171 214 207 q 326 113 281 135 q 424 92 371 92 m 458 919 q 512 947 489 919 q 539 1014 535 974 l 608 1014 q 597 953 608 981 q 565 904 585 925 q 517 872 544 883 q 458 860 490 860 q 399 872 426 860 q 352 904 372 883 q 320 953 332 925 q 308 1014 308 981 l 379 1014 q 403 948 379 976 q 458 919 426 919 z "},"ĝ":{"ha":865,"x_min":51,"x_max":767,"o":"m 274 889 l 414 1014 l 503 1014 l 643 889 l 576 856 l 458 943 l 340 856 l 274 889 m 386 -8 q 251 22 313 -8 q 144 104 189 53 q 76 222 100 156 q 51 361 51 289 q 76 506 51 438 q 144 626 100 575 q 251 708 189 678 q 388 738 313 738 q 546 693 479 738 q 658 581 613 649 l 658 725 l 767 725 l 767 8 q 738 -128 767 -69 q 658 -228 708 -187 q 541 -289 608 -268 q 397 -310 474 -310 q 197 -267 274 -310 q 68 -150 119 -225 l 139 -87 q 250 -183 182 -151 q 397 -215 318 -215 q 492 -201 447 -215 q 571 -160 538 -187 q 624 -90 604 -132 q 644 8 644 -49 l 644 136 q 595 76 624 103 q 533 30 567 49 q 463 1 500 11 q 386 -8 425 -8 m 424 92 q 499 106 463 92 q 565 142 535 119 q 617 194 596 165 q 644 254 638 224 l 644 463 q 605 531 629 500 q 550 584 581 561 q 484 619 519 607 q 413 632 449 632 q 313 608 357 632 q 239 546 269 585 q 192 458 208 507 q 175 358 175 408 q 194 256 175 304 q 247 171 214 207 q 326 113 281 135 q 424 92 371 92 z "},"ģ":{"ha":865,"x_min":51,"x_max":767,"o":"m 386 -8 q 251 22 313 -8 q 144 104 189 53 q 76 222 100 156 q 51 361 51 289 q 76 506 51 438 q 144 626 100 575 q 251 708 189 678 q 388 738 313 738 q 546 693 479 738 q 658 581 613 649 l 658 725 l 767 725 l 767 8 q 738 -128 767 -69 q 658 -228 708 -187 q 541 -289 608 -268 q 397 -310 474 -310 q 197 -267 274 -310 q 68 -150 119 -225 l 139 -87 q 250 -183 182 -151 q 397 -215 318 -215 q 492 -201 447 -215 q 571 -160 538 -187 q 624 -90 604 -132 q 644 8 644 -49 l 644 136 q 595 76 624 103 q 533 30 567 49 q 463 1 500 11 q 386 -8 425 -8 m 424 92 q 499 106 463 92 q 565 142 535 119 q 617 194 596 165 q 644 254 638 224 l 644 463 q 605 531 629 500 q 550 584 581 561 q 484 619 519 607 q 413 632 449 632 q 313 608 357 632 q 239 546 269 585 q 192 458 208 507 q 175 358 175 408 q 194 256 175 304 q 247 171 214 207 q 326 113 281 135 q 424 92 371 92 m 482 1035 l 454 922 l 489 922 l 489 806 l 381 806 l 381 922 l 422 1035 l 482 1035 z "},"ġ":{"ha":865,"x_min":51,"x_max":767,"o":"m 386 -8 q 251 22 313 -8 q 144 104 189 53 q 76 222 100 156 q 51 361 51 289 q 76 506 51 438 q 144 626 100 575 q 251 708 189 678 q 388 738 313 738 q 546 693 479 738 q 658 581 613 649 l 658 725 l 767 725 l 767 8 q 738 -128 767 -69 q 658 -228 708 -187 q 541 -289 608 -268 q 397 -310 474 -310 q 197 -267 274 -310 q 68 -150 119 -225 l 139 -87 q 250 -183 182 -151 q 397 -215 318 -215 q 492 -201 447 -215 q 571 -160 538 -187 q 624 -90 604 -132 q 644 8 644 -49 l 644 136 q 595 76 624 103 q 533 30 567 49 q 463 1 500 11 q 386 -8 425 -8 m 424 92 q 499 106 463 92 q 565 142 535 119 q 617 194 596 165 q 644 254 638 224 l 644 463 q 605 531 629 500 q 550 584 581 561 q 484 619 519 607 q 413 632 449 632 q 313 608 357 632 q 239 546 269 585 q 192 458 208 507 q 175 358 175 408 q 194 256 175 304 q 247 171 214 207 q 326 113 281 135 q 424 92 371 92 m 403 867 l 403 1014 l 514 1014 l 514 867 l 403 867 z "},"ß":{"ha":768,"x_min":99,"x_max":719,"o":"m 335 104 q 439 117 392 106 q 521 151 486 128 q 574 212 556 175 q 593 299 593 249 q 535 442 593 389 q 383 496 478 496 l 357 496 l 357 607 l 382 607 q 490 646 449 607 q 532 750 532 685 q 519 810 532 785 q 486 853 507 836 q 438 878 465 869 q 382 886 411 886 q 308 871 339 886 q 256 829 276 856 q 225 769 235 803 q 215 699 215 736 l 215 0 l 99 0 l 99 718 q 120 828 99 778 q 180 915 142 879 q 271 972 218 951 q 386 992 324 992 q 490 976 442 992 q 573 930 538 960 q 628 859 608 900 q 649 768 649 818 q 638 697 649 731 q 608 634 626 663 q 564 586 589 606 q 510 558 539 567 q 599 523 560 547 q 665 463 638 499 q 706 383 692 428 q 719 289 719 339 q 691 163 719 218 q 611 72 663 108 q 489 15 560 35 q 335 -8 418 -6 l 335 104 z "},">":{"ha":708,"x_min":79,"x_max":663,"o":"m 663 325 l 79 -22 l 79 114 l 485 360 l 79 610 l 79 740 l 663 389 l 663 325 z "},"«":{"ha":828,"x_min":56,"x_max":743,"o":"m 56 389 l 407 640 l 407 538 l 154 360 l 407 186 l 407 83 l 56 325 l 56 389 m 392 389 l 743 640 l 743 538 l 490 360 l 743 186 l 743 83 l 392 325 l 392 389 z "},"»":{"ha":828,"x_min":85,"x_max":772,"o":"m 772 325 l 421 83 l 421 186 l 674 360 l 421 538 l 421 640 l 772 389 l 772 325 m 436 325 l 85 83 l 85 186 l 338 360 l 85 538 l 85 640 l 436 389 l 436 325 z "},"‹":{"ha":492,"x_min":56,"x_max":407,"o":"m 56 389 l 407 640 l 407 538 l 154 360 l 407 186 l 407 83 l 56 325 l 56 389 z "},"›":{"ha":492,"x_min":85,"x_max":436,"o":"m 436 325 l 85 83 l 85 186 l 338 360 l 85 538 l 85 640 l 436 389 l 436 325 z "},"h":{"ha":819,"x_min":99,"x_max":728,"o":"m 728 0 l 606 0 l 606 406 q 567 573 606 518 q 453 628 528 628 q 381 613 417 628 q 313 574 344 599 q 258 514 282 549 q 221 438 233 479 l 221 0 l 99 0 l 99 1014 l 221 1014 l 221 569 q 338 693 264 649 q 499 738 411 738 q 607 714 563 738 q 678 650 651 690 q 716 553 704 610 q 728 433 728 497 l 728 0 z "},"ħ":{"ha":819,"x_min":21,"x_max":728,"o":"m 728 0 l 606 0 l 606 406 q 567 573 606 518 q 453 628 528 628 q 381 613 417 628 q 313 574 344 599 q 258 514 282 549 q 221 438 233 479 l 221 0 l 99 0 l 99 849 l 21 849 l 21 926 l 99 926 l 99 1014 l 221 1014 l 221 926 l 390 926 l 390 849 l 221 849 l 221 569 q 338 693 264 649 q 499 738 411 738 q 607 714 563 738 q 678 650 651 690 q 716 553 704 610 q 728 433 728 497 l 728 0 z "},"ĥ":{"ha":819,"x_min":99,"x_max":728,"o":"m 315 889 l 446 1013 l 528 1013 l 658 889 l 596 856 l 488 942 l 378 856 l 315 889 m 728 0 l 606 0 l 606 406 q 567 573 606 518 q 453 628 528 628 q 381 613 417 628 q 313 574 344 599 q 258 514 282 549 q 221 438 233 479 l 221 0 l 99 0 l 99 1014 l 221 1014 l 221 569 q 338 693 264 649 q 499 738 411 738 q 607 714 563 738 q 678 650 651 690 q 716 553 704 610 q 728 433 728 497 l 728 0 z "},"-":{"ha":588,"x_min":89,"x_max":499,"o":"m 89 324 l 89 435 l 499 435 l 499 324 l 89 324 z "},"i":{"ha":319,"x_min":99,"x_max":221,"o":"m 99 0 l 99 725 l 221 725 l 221 0 l 99 0 m 99 861 l 99 1014 l 221 1014 l 221 861 l 99 861 z "},"í":{"ha":319,"x_min":99,"x_max":303,"o":"m 181 846 l 100 874 l 181 1014 l 303 1014 l 181 846 m 99 0 l 99 725 l 221 725 l 221 0 l 99 0 z "},"ĭ":{"ha":319,"x_min":10,"x_max":310,"o":"m 99 0 l 99 725 l 221 725 l 221 0 l 99 0 m 160 919 q 213 947 190 919 q 240 1014 236 974 l 310 1014 q 298 953 310 981 q 266 904 286 925 q 219 872 246 883 q 160 860 192 860 q 101 872 128 860 q 53 904 74 883 q 22 953 33 925 q 10 1014 10 981 l 81 1014 q 104 948 81 976 q 160 919 128 919 z "},"î":{"ha":319,"x_min":-25,"x_max":344,"o":"m -25 889 l 115 1014 l 204 1014 l 344 889 l 278 856 l 160 943 l 42 856 l -25 889 m 99 0 l 99 725 l 221 725 l 221 0 l 99 0 z "},"ï":{"ha":319,"x_min":-4,"x_max":324,"o":"m -4 867 l -4 1008 l 99 1008 l 99 867 l -4 867 m 221 867 l 221 1008 l 324 1008 l 324 867 l 221 867 m 99 0 l 99 725 l 221 725 l 221 0 l 99 0 z "},"ì":{"ha":319,"x_min":15,"x_max":221,"o":"m 99 0 l 99 725 l 221 725 l 221 0 l 99 0 m 15 1014 l 136 1014 l 218 874 l 139 846 l 15 1014 z "},"ĳ":{"ha":649,"x_min":99,"x_max":550,"o":"m 99 0 l 99 725 l 221 725 l 221 0 l 99 0 m 99 861 l 99 1014 l 221 1014 l 221 861 l 99 861 m 325 -258 q 234 -244 276 -258 q 158 -200 192 -231 l 215 -118 q 260 -143 235 -136 q 311 -150 286 -150 q 354 -141 333 -150 q 392 -117 375 -132 q 418 -79 408 -101 q 428 -32 428 -57 l 428 725 l 550 725 l 550 -24 q 531 -118 550 -75 q 481 -192 513 -161 q 410 -241 450 -224 q 325 -258 369 -258 m 428 861 l 428 1014 l 550 1014 l 550 861 l 428 861 z "},"j":{"ha":329,"x_min":-161,"x_max":231,"o":"m 6 -258 q -85 -244 -43 -258 q -161 -200 -128 -231 l -104 -118 q -59 -143 -85 -136 q -8 -150 -33 -150 q 35 -141 14 -150 q 72 -117 56 -132 q 99 -79 89 -101 q 108 -32 108 -57 l 108 725 l 231 725 l 231 -24 q 212 -118 231 -75 q 162 -192 193 -161 q 90 -241 131 -224 q 6 -258 50 -258 m 108 861 l 108 1014 l 231 1014 l 231 861 l 108 861 z "},"ī":{"ha":319,"x_min":-42,"x_max":364,"o":"m 99 0 l 99 725 l 221 725 l 221 0 l 99 0 m -42 908 l -42 989 l 364 989 l 364 908 l -42 908 z "},"į":{"ha":319,"x_min":36,"x_max":221,"o":"m 153 -251 q 65 -212 94 -240 q 36 -144 36 -183 q 62 -72 36 -108 q 143 0 88 -36 l 99 0 l 99 725 l 221 725 l 221 0 q 133 -67 160 -37 q 107 -128 107 -97 q 183 -187 107 -179 l 153 -251 m 99 861 l 99 1014 l 221 1014 l 221 861 l 99 861 z "},"ĩ":{"ha":319,"x_min":-74,"x_max":393,"o":"m 99 0 l 99 725 l 221 725 l 221 0 l 99 0 m 246 871 q 191 880 214 871 q 148 900 168 889 q 108 920 128 911 q 67 929 89 929 q 30 919 43 929 q 10 898 17 910 q 1 875 3 886 q -1 863 -1 864 l -74 863 q -67 894 -74 871 q -46 943 -61 918 q -4 987 -31 968 q 64 1006 22 1006 q 115 997 93 1006 q 158 976 138 988 q 198 955 178 964 q 243 946 218 946 q 285 956 269 946 q 308 978 300 965 q 319 1001 317 990 q 321 1014 321 1011 l 393 1014 q 387 983 393 1006 q 364 935 381 960 q 319 890 347 910 q 246 871 290 871 z "},"ĵ":{"ha":319,"x_min":-171,"x_max":344,"o":"m -4 -258 q -95 -244 -53 -258 q -171 -200 -137 -231 l -114 -118 q -69 -143 -94 -136 q -18 -150 -43 -150 q 25 -141 4 -150 q 63 -117 46 -132 q 89 -79 79 -101 q 99 -32 99 -57 l 99 725 l 221 725 l 221 -24 q 202 -118 221 -75 q 152 -192 183 -161 q 81 -241 121 -224 q -4 -258 40 -258 m -25 889 l 115 1014 l 204 1014 l 344 889 l 278 856 l 160 943 l 42 856 l -25 889 z "},"k":{"ha":749,"x_min":99,"x_max":742,"o":"m 610 0 l 360 354 l 221 224 l 221 0 l 99 0 l 99 1014 l 221 1014 l 221 347 l 593 724 l 728 724 l 439 424 l 742 0 l 610 0 z "},"ķ":{"ha":749,"x_min":99,"x_max":742,"o":"m 338 -296 l 365 -183 l 331 -183 l 331 -67 l 439 -67 l 439 -183 l 397 -296 l 338 -296 m 610 0 l 360 354 l 221 224 l 221 0 l 99 0 l 99 1014 l 221 1014 l 221 347 l 593 724 l 728 724 l 439 424 l 742 0 l 610 0 z "},"ĸ":{"ha":749,"x_min":99,"x_max":742,"o":"m 610 0 l 360 354 l 221 224 l 221 0 l 99 0 l 99 725 l 221 725 l 221 347 l 593 724 l 728 724 l 439 424 l 742 0 l 610 0 z "},"l":{"ha":397,"x_min":101,"x_max":400,"o":"m 101 1014 l 224 1014 l 224 188 q 245 124 224 147 q 306 101 267 101 q 342 106 321 101 q 381 118 363 111 l 400 19 q 328 -1 369 7 q 254 -10 286 -10 q 142 31 183 -10 q 101 143 101 71 l 101 1014 z "},"ĺ":{"ha":397,"x_min":94,"x_max":400,"o":"m 175 1069 l 94 1097 l 175 1238 l 297 1238 l 175 1069 m 101 1014 l 224 1014 l 224 188 q 245 124 224 147 q 306 101 267 101 q 342 106 321 101 q 381 118 363 111 l 400 19 q 328 -1 369 7 q 254 -10 286 -10 q 142 31 183 -10 q 101 143 101 71 l 101 1014 z "},"ľ":{"ha":397,"x_min":101,"x_max":488,"o":"m 365 846 l 285 874 l 365 1014 l 488 1014 l 365 846 m 101 1014 l 224 1014 l 224 188 q 245 124 224 147 q 306 101 267 101 q 342 106 321 101 q 381 118 363 111 l 400 19 q 328 -1 369 7 q 254 -10 286 -10 q 142 31 183 -10 q 101 143 101 71 l 101 1014 z "},"ļ":{"ha":397,"x_min":101,"x_max":400,"o":"m 197 -296 l 225 -183 l 190 -183 l 190 -67 l 299 -67 l 299 -183 l 257 -296 l 197 -296 m 101 1014 l 224 1014 l 224 188 q 245 124 224 147 q 306 101 267 101 q 342 106 321 101 q 381 118 363 111 l 400 19 q 328 -1 369 7 q 254 -10 286 -10 q 142 31 183 -10 q 101 143 101 71 l 101 1014 z "},"ŀ":{"ha":471,"x_min":101,"x_max":449,"o":"m 101 1014 l 224 1014 l 224 188 q 245 124 224 147 q 306 101 267 101 q 342 106 321 101 q 381 118 363 111 l 400 19 q 328 -1 369 7 q 254 -10 286 -10 q 142 31 183 -10 q 101 143 101 71 l 101 1014 m 346 374 l 346 546 l 449 546 l 449 374 l 346 374 z "},"<":{"ha":708,"x_min":46,"x_max":629,"o":"m 46 389 l 629 740 l 629 610 l 224 360 l 629 114 l 629 -22 l 46 325 l 46 389 z "},"¬":{"ha":821,"x_min":93,"x_max":724,"o":"m 724 521 l 724 167 l 618 167 l 618 410 l 93 410 l 93 521 l 724 521 z "},"ł":{"ha":428,"x_min":11,"x_max":429,"o":"m 131 453 l 47 393 l 11 461 l 131 547 l 131 1014 l 253 1014 l 253 636 l 375 725 l 413 657 l 253 542 l 253 188 q 274 124 253 147 q 335 101 296 101 q 371 106 350 101 q 410 118 392 111 l 429 19 q 357 -1 399 7 q 283 -10 315 -10 q 172 31 213 -10 q 131 143 131 71 l 131 453 z "},"m":{"ha":1283,"x_min":99,"x_max":1192,"o":"m 1192 0 l 1069 0 l 1069 406 q 1033 574 1069 519 q 924 628 996 628 q 790 574 849 628 q 706 436 731 521 l 706 0 l 583 0 l 583 406 q 547 575 583 522 q 439 628 511 628 q 306 576 365 628 q 221 438 246 524 l 221 0 l 99 0 l 99 725 l 210 725 l 210 569 q 325 694 254 650 q 485 738 396 738 q 630 688 576 738 q 696 561 683 639 q 972 738 793 738 q 1077 715 1035 738 q 1144 651 1119 692 q 1181 554 1169 610 q 1192 433 1192 499 l 1192 0 z "},"−":{"ha":746,"x_min":93,"x_max":653,"o":"m 93 374 l 93 474 l 653 474 l 653 374 l 93 374 z "},"µ":{"ha":872,"x_min":108,"x_max":786,"o":"m 108 725 l 231 725 l 231 314 q 388 92 231 92 q 460 104 424 92 q 527 140 496 117 q 583 196 558 163 q 625 271 608 229 l 625 725 l 747 725 l 747 150 q 786 106 747 107 l 786 0 q 753 -3 765 -3 q 729 -4 740 -4 q 666 22 690 -4 q 642 79 642 47 l 642 156 q 597 92 625 122 q 535 38 569 61 q 462 0 501 14 q 381 -14 422 -14 q 278 17 317 -14 q 224 93 239 49 l 224 -294 l 108 -294 l 108 725 z "},"×":{"ha":644,"x_min":85,"x_max":561,"o":"m 561 218 l 483 142 l 322 303 l 161 142 l 85 219 l 244 379 l 88 538 l 165 614 l 322 457 l 481 615 l 557 538 l 400 379 l 561 218 z "},"n":{"ha":819,"x_min":99,"x_max":728,"o":"m 728 0 l 606 0 l 606 406 q 570 575 606 522 q 463 628 535 628 q 388 613 425 628 q 317 574 350 599 q 258 514 283 549 q 221 438 233 479 l 221 0 l 99 0 l 99 725 l 210 725 l 210 569 q 334 692 253 646 q 511 738 415 738 q 615 715 574 738 q 682 651 657 692 q 717 554 707 610 q 728 433 728 499 l 728 0 z "},"ń":{"ha":819,"x_min":99,"x_max":728,"o":"m 442 846 l 361 874 l 442 1014 l 564 1014 l 442 846 m 728 0 l 606 0 l 606 406 q 570 575 606 522 q 463 628 535 628 q 388 613 425 628 q 317 574 350 599 q 258 514 283 549 q 221 438 233 479 l 221 0 l 99 0 l 99 725 l 210 725 l 210 569 q 334 692 253 646 q 511 738 415 738 q 615 715 574 738 q 682 651 657 692 q 717 554 707 610 q 728 433 728 499 l 728 0 z "},"ŉ":{"ha":819,"x_min":-12,"x_max":728,"o":"m 67 846 l -12 874 l 39 961 l 35 1014 l 190 1014 l 67 846 m 728 0 l 606 0 l 606 406 q 570 575 606 522 q 463 628 535 628 q 388 613 425 628 q 317 574 350 599 q 258 514 283 549 q 221 438 233 479 l 221 0 l 99 0 l 99 725 l 210 725 l 210 569 q 334 692 253 646 q 511 738 415 738 q 615 715 574 738 q 682 651 657 692 q 717 554 707 610 q 728 433 728 499 l 728 0 z "},"ň":{"ha":819,"x_min":99,"x_max":728,"o":"m 303 1014 l 421 926 l 539 1014 l 606 981 l 465 856 l 376 856 l 236 981 l 303 1014 m 728 0 l 606 0 l 606 406 q 570 575 606 522 q 463 628 535 628 q 388 613 425 628 q 317 574 350 599 q 258 514 283 549 q 221 438 233 479 l 221 0 l 99 0 l 99 725 l 210 725 l 210 569 q 334 692 253 646 q 511 738 415 738 q 615 715 574 738 q 682 651 657 692 q 717 554 707 610 q 728 433 728 499 l 728 0 z "},"ņ":{"ha":819,"x_min":99,"x_max":728,"o":"m 356 -296 l 383 -183 l 349 -183 l 349 -67 l 457 -67 l 457 -183 l 415 -296 l 356 -296 m 728 0 l 606 0 l 606 406 q 570 575 606 522 q 463 628 535 628 q 388 613 425 628 q 317 574 350 599 q 258 514 283 549 q 221 438 233 479 l 221 0 l 99 0 l 99 725 l 210 725 l 210 569 q 334 692 253 646 q 511 738 415 738 q 615 715 574 738 q 682 651 657 692 q 717 554 707 610 q 728 433 728 499 l 728 0 z "},"ṅ":{"ha":819,"x_min":99,"x_max":728,"o":"m 365 867 l 365 1014 l 476 1014 l 476 867 l 365 867 m 728 0 l 606 0 l 606 406 q 570 575 606 522 q 463 628 535 628 q 388 613 425 628 q 317 574 350 599 q 258 514 283 549 q 221 438 233 479 l 221 0 l 99 0 l 99 725 l 210 725 l 210 569 q 334 692 253 646 q 511 738 415 738 q 615 715 574 738 q 682 651 657 692 q 717 554 707 610 q 728 433 728 499 l 728 0 z "},"₉":{"ha":571,"x_min":44,"x_max":517,"o":"m 44 263 q 63 338 44 303 q 113 400 81 374 q 187 442 144 426 q 279 457 229 457 q 451 392 385 457 q 517 208 517 326 q 449 -37 517 44 q 269 -118 382 -118 q 154 -93 207 -118 q 74 -22 101 -68 l 121 29 q 181 -26 140 -6 q 272 -46 222 -46 q 396 6 349 -46 q 444 153 443 57 q 375 94 424 117 q 274 72 326 72 q 183 87 225 72 q 110 127 140 101 q 62 188 79 153 q 44 263 44 222 m 278 386 q 216 376 244 386 q 165 349 188 367 q 131 310 143 332 q 118 263 118 288 q 131 215 118 238 q 166 176 144 193 q 217 150 188 160 q 279 140 246 140 q 341 150 313 140 q 392 176 369 160 q 426 215 414 193 q 439 263 439 238 q 426 310 439 288 q 391 349 413 332 q 340 376 369 367 q 278 386 311 386 z "},"⁹":{"ha":568,"x_min":43,"x_max":515,"o":"m 43 929 q 61 1006 43 971 q 111 1068 79 1042 q 185 1110 143 1094 q 278 1125 228 1125 q 449 1060 383 1125 q 515 876 515 994 q 448 631 515 713 q 268 549 381 549 q 153 574 206 549 q 72 646 100 600 l 119 696 q 180 641 139 661 q 271 621 221 621 q 394 673 347 621 q 443 821 442 725 q 374 763 422 785 q 272 740 325 740 q 181 755 224 740 q 108 795 139 769 q 60 855 78 821 q 43 929 43 889 m 276 1054 q 215 1044 243 1054 q 164 1017 186 1035 q 129 978 142 1000 q 117 931 117 956 q 130 883 117 906 q 165 844 143 861 q 215 818 186 828 q 278 808 244 808 q 340 818 311 808 q 390 844 368 828 q 425 883 413 861 q 438 929 438 904 q 424 977 438 954 q 390 1017 411 1000 q 339 1044 368 1035 q 276 1054 310 1054 z "},"ñ":{"ha":819,"x_min":99,"x_max":728,"o":"m 728 0 l 606 0 l 606 406 q 570 575 606 522 q 463 628 535 628 q 388 613 425 628 q 317 574 350 599 q 258 514 283 549 q 221 438 233 479 l 221 0 l 99 0 l 99 725 l 210 725 l 210 569 q 334 692 253 646 q 511 738 415 738 q 615 715 574 738 q 682 651 657 692 q 717 554 707 610 q 728 433 728 499 l 728 0 m 507 871 q 452 880 475 871 q 409 900 429 889 q 369 920 389 911 q 328 929 350 929 q 291 919 304 929 q 271 898 278 910 q 262 875 264 886 q 260 863 260 864 l 188 863 q 194 894 188 871 q 215 943 200 918 q 257 987 231 968 q 325 1006 283 1006 q 376 997 354 1006 q 419 976 399 988 q 459 955 439 964 q 504 946 479 946 q 546 956 531 946 q 569 978 561 965 q 580 1001 578 990 q 582 1014 582 1011 l 654 1014 q 648 983 654 1006 q 625 935 642 960 q 580 890 608 910 q 507 871 551 871 z "},"#":{"ha":961,"x_min":51,"x_max":910,"o":"m 910 621 l 724 621 l 664 374 l 849 374 l 849 279 l 642 279 l 574 0 l 472 0 l 542 279 l 308 279 l 240 0 l 139 0 l 208 279 l 51 279 l 51 374 l 231 374 l 290 621 l 113 621 l 113 710 l 313 710 l 379 986 l 481 986 l 413 710 l 646 710 l 713 986 l 814 986 l 746 710 l 910 710 l 910 621 m 564 374 l 624 621 l 390 621 l 331 374 l 564 374 z "},"o":{"ha":832,"x_min":50,"x_max":782,"o":"m 415 -14 q 266 17 333 -14 q 151 99 199 47 q 76 218 103 150 q 50 361 50 286 q 77 506 50 438 q 152 625 104 574 q 267 707 200 676 q 415 738 335 738 q 564 707 496 738 q 680 625 632 676 q 755 506 728 574 q 782 361 782 438 q 756 218 782 286 q 681 99 729 150 q 565 17 632 47 q 415 -14 497 -14 m 175 360 q 194 254 175 303 q 245 169 213 206 q 322 113 278 133 q 415 92 365 92 q 509 113 465 92 q 586 170 553 133 q 638 256 619 207 q 657 363 657 306 q 638 467 657 418 q 586 553 619 517 q 509 611 553 590 q 415 632 465 632 q 322 610 365 632 q 245 552 278 589 q 194 466 213 515 q 175 360 175 417 z "},"ó":{"ha":832,"x_min":50,"x_max":782,"o":"m 436 846 l 356 874 l 436 1014 l 558 1014 l 436 846 m 415 -14 q 266 17 333 -14 q 151 99 199 47 q 76 218 103 150 q 50 361 50 286 q 77 506 50 438 q 152 625 104 574 q 267 707 200 676 q 415 738 335 738 q 564 707 496 738 q 680 625 632 676 q 755 506 728 574 q 782 361 782 438 q 756 218 782 286 q 681 99 729 150 q 565 17 632 47 q 415 -14 497 -14 m 175 360 q 194 254 175 303 q 245 169 213 206 q 322 113 278 133 q 415 92 365 92 q 509 113 465 92 q 586 170 553 133 q 638 256 619 207 q 657 363 657 306 q 638 467 657 418 q 586 553 619 517 q 509 611 553 590 q 415 632 465 632 q 322 610 365 632 q 245 552 278 589 q 194 466 213 515 q 175 360 175 417 z "},"ŏ":{"ha":832,"x_min":50,"x_max":782,"o":"m 415 -14 q 266 17 333 -14 q 151 99 199 47 q 76 218 103 150 q 50 361 50 286 q 77 506 50 438 q 152 625 104 574 q 267 707 200 676 q 415 738 335 738 q 564 707 496 738 q 680 625 632 676 q 755 506 728 574 q 782 361 782 438 q 756 218 782 286 q 681 99 729 150 q 565 17 632 47 q 415 -14 497 -14 m 175 360 q 194 254 175 303 q 245 169 213 206 q 322 113 278 133 q 415 92 365 92 q 509 113 465 92 q 586 170 553 133 q 638 256 619 207 q 657 363 657 306 q 638 467 657 418 q 586 553 619 517 q 509 611 553 590 q 415 632 465 632 q 322 610 365 632 q 245 552 278 589 q 194 466 213 515 q 175 360 175 417 m 415 919 q 469 947 446 919 q 496 1014 492 974 l 565 1014 q 553 953 565 981 q 522 904 542 925 q 474 872 501 883 q 415 860 447 860 q 356 872 383 860 q 309 904 329 883 q 277 953 289 925 q 265 1014 265 981 l 336 1014 q 360 948 336 976 q 415 919 383 919 z "},"ô":{"ha":832,"x_min":50,"x_max":782,"o":"m 231 889 l 371 1014 l 460 1014 l 600 889 l 533 856 l 415 943 l 297 856 l 231 889 m 415 -14 q 266 17 333 -14 q 151 99 199 47 q 76 218 103 150 q 50 361 50 286 q 77 506 50 438 q 152 625 104 574 q 267 707 200 676 q 415 738 335 738 q 564 707 496 738 q 680 625 632 676 q 755 506 728 574 q 782 361 782 438 q 756 218 782 286 q 681 99 729 150 q 565 17 632 47 q 415 -14 497 -14 m 175 360 q 194 254 175 303 q 245 169 213 206 q 322 113 278 133 q 415 92 365 92 q 509 113 465 92 q 586 170 553 133 q 638 256 619 207 q 657 363 657 306 q 638 467 657 418 q 586 553 619 517 q 509 611 553 590 q 415 632 465 632 q 322 610 365 632 q 245 552 278 589 q 194 466 213 515 q 175 360 175 417 z "},"ö":{"ha":832,"x_min":50,"x_max":782,"o":"m 251 867 l 251 1008 l 354 1008 l 354 867 l 251 867 m 476 867 l 476 1008 l 579 1008 l 579 867 l 476 867 m 415 -14 q 266 17 333 -14 q 151 99 199 47 q 76 218 103 150 q 50 361 50 286 q 77 506 50 438 q 152 625 104 574 q 267 707 200 676 q 415 738 335 738 q 564 707 496 738 q 680 625 632 676 q 755 506 728 574 q 782 361 782 438 q 756 218 782 286 q 681 99 729 150 q 565 17 632 47 q 415 -14 497 -14 m 175 360 q 194 254 175 303 q 245 169 213 206 q 322 113 278 133 q 415 92 365 92 q 509 113 465 92 q 586 170 553 133 q 638 256 619 207 q 657 363 657 306 q 638 467 657 418 q 586 553 619 517 q 509 611 553 590 q 415 632 465 632 q 322 610 365 632 q 245 552 278 589 q 194 466 213 515 q 175 360 175 417 z "},"œ":{"ha":1428,"x_min":50,"x_max":1389,"o":"m 414 -14 q 269 15 336 -14 q 154 94 203 43 q 78 213 106 144 q 50 360 50 281 q 78 509 50 440 q 155 628 106 578 q 271 708 204 679 q 415 738 338 738 q 598 681 518 738 q 718 526 678 625 q 840 683 761 628 q 1025 738 918 738 q 1167 710 1103 738 q 1280 634 1232 683 q 1356 516 1328 585 q 1389 363 1385 447 q 1389 341 1389 354 q 1388 321 1389 328 l 786 321 q 812 225 790 269 q 867 147 833 181 q 946 95 901 114 q 1040 76 990 76 q 1108 85 1075 76 q 1169 110 1142 94 q 1217 149 1197 126 q 1249 199 1238 171 l 1351 169 q 1300 94 1332 128 q 1226 37 1268 61 q 1135 -1 1185 13 q 1035 -14 1086 -14 q 853 42 935 -14 q 719 193 771 97 q 590 40 668 94 q 414 -14 513 -14 m 415 92 q 510 113 467 92 q 587 169 554 133 q 638 255 619 206 q 657 361 657 304 q 638 467 657 418 q 588 553 619 517 q 511 611 556 590 q 417 632 467 632 q 322 610 367 632 q 245 552 278 589 q 194 465 213 515 q 175 358 175 415 q 194 253 175 301 q 244 168 213 204 q 321 112 276 132 q 415 92 365 92 m 1271 400 q 1246 499 1267 454 q 1192 577 1225 544 q 1115 628 1158 610 q 1022 646 1071 646 q 931 628 974 646 q 857 577 889 610 q 806 499 825 544 q 783 400 786 454 l 1271 400 z "},"ò":{"ha":832,"x_min":50,"x_max":782,"o":"m 415 -14 q 266 17 333 -14 q 151 99 199 47 q 76 218 103 150 q 50 361 50 286 q 77 506 50 438 q 152 625 104 574 q 267 707 200 676 q 415 738 335 738 q 564 707 496 738 q 680 625 632 676 q 755 506 728 574 q 782 361 782 438 q 756 218 782 286 q 681 99 729 150 q 565 17 632 47 q 415 -14 497 -14 m 175 360 q 194 254 175 303 q 245 169 213 206 q 322 113 278 133 q 415 92 365 92 q 509 113 465 92 q 586 170 553 133 q 638 256 619 207 q 657 363 657 306 q 638 467 657 418 q 586 553 619 517 q 509 611 553 590 q 415 632 465 632 q 322 610 365 632 q 245 552 278 589 q 194 466 213 515 q 175 360 175 417 m 272 1014 l 393 1014 l 475 874 l 396 846 l 272 1014 z "},"ő":{"ha":832,"x_min":50,"x_max":782,"o":"m 328 846 l 264 874 l 339 1014 l 444 1014 l 328 846 m 517 846 l 453 874 l 528 1014 l 633 1014 l 517 846 m 415 -14 q 266 17 333 -14 q 151 99 199 47 q 76 218 103 150 q 50 361 50 286 q 77 506 50 438 q 152 625 104 574 q 267 707 200 676 q 415 738 335 738 q 564 707 496 738 q 680 625 632 676 q 755 506 728 574 q 782 361 782 438 q 756 218 782 286 q 681 99 729 150 q 565 17 632 47 q 415 -14 497 -14 m 175 360 q 194 254 175 303 q 245 169 213 206 q 322 113 278 133 q 415 92 365 92 q 509 113 465 92 q 586 170 553 133 q 638 256 619 207 q 657 363 657 306 q 638 467 657 418 q 586 553 619 517 q 509 611 553 590 q 415 632 465 632 q 322 610 365 632 q 245 552 278 589 q 194 466 213 515 q 175 360 175 417 z "},"ō":{"ha":832,"x_min":50,"x_max":782,"o":"m 214 908 l 214 989 l 619 989 l 619 908 l 214 908 m 415 -14 q 266 17 333 -14 q 151 99 199 47 q 76 218 103 150 q 50 361 50 286 q 77 506 50 438 q 152 625 104 574 q 267 707 200 676 q 415 738 335 738 q 564 707 496 738 q 680 625 632 676 q 755 506 728 574 q 782 361 782 438 q 756 218 782 286 q 681 99 729 150 q 565 17 632 47 q 415 -14 497 -14 m 175 360 q 194 254 175 303 q 245 169 213 206 q 322 113 278 133 q 415 92 365 92 q 509 113 465 92 q 586 170 553 133 q 638 256 619 207 q 657 363 657 306 q 638 467 657 418 q 586 553 619 517 q 509 611 553 590 q 415 632 465 632 q 322 610 365 632 q 245 552 278 589 q 194 466 213 515 q 175 360 175 417 z "},"⅛":{"ha":1232,"x_min":63,"x_max":1183,"o":"m 1183 160 q 1165 92 1183 122 q 1114 40 1146 61 q 1040 6 1082 18 q 951 -7 999 -7 q 860 6 901 -7 q 788 42 818 19 q 740 97 757 65 q 722 163 722 128 q 733 211 722 189 q 760 251 743 233 q 801 281 778 268 q 847 303 824 294 q 776 346 807 318 q 744 417 744 374 q 763 478 744 450 q 811 524 782 506 q 878 553 840 543 q 953 564 915 564 q 1028 553 990 564 q 1094 524 1065 543 q 1142 478 1124 506 q 1161 418 1161 451 q 1131 347 1161 376 q 1057 303 1101 318 q 1147 248 1111 283 q 1183 160 1183 213 m 1106 168 q 1092 210 1106 192 q 1056 242 1078 229 q 1007 261 1035 254 q 953 268 979 268 q 896 261 924 268 q 847 240 868 254 q 813 208 826 226 q 800 167 800 189 q 814 125 800 143 q 850 94 828 107 q 899 76 872 82 q 954 69 926 69 q 1009 76 982 69 q 1058 97 1036 83 q 1092 128 1079 110 q 1106 168 1106 146 m 822 410 q 834 376 822 390 q 865 351 846 361 q 906 336 883 342 q 953 331 929 331 q 999 336 975 331 q 1042 352 1022 342 q 1073 377 1061 363 q 1085 411 1085 392 q 1074 444 1085 429 q 1044 469 1063 458 q 1001 485 1025 479 q 953 490 978 490 q 861 469 900 490 q 822 410 822 447 m 375 521 l 375 444 l 83 444 l 83 521 l 194 521 l 194 929 q 172 909 188 921 q 138 887 157 897 q 99 869 119 876 q 63 861 79 861 l 63 938 q 108 949 85 938 q 150 975 131 961 q 182 1001 169 989 q 194 1015 194 1014 l 272 1015 l 272 521 l 375 521 m 172 46 l 561 514 l 933 993 l 993 942 l 608 476 l 231 -7 l 172 46 z "},"¹":{"ha":389,"x_min":47,"x_max":360,"o":"m 360 632 l 360 556 l 68 556 l 68 632 l 179 632 l 179 1040 q 157 1020 172 1032 q 123 998 142 1008 q 84 980 104 988 q 47 972 64 972 l 47 1049 q 92 1060 69 1049 q 135 1086 115 1072 q 167 1113 154 1100 q 179 1126 179 1125 l 257 1126 l 257 632 l 360 632 z "},"½":{"ha":1239,"x_min":61,"x_max":1182,"o":"m 746 0 q 756 95 746 54 q 786 167 765 136 q 840 220 807 197 q 917 261 872 243 q 979 285 947 274 q 1038 313 1011 297 q 1081 349 1064 328 q 1097 400 1097 369 q 1065 469 1097 442 q 968 496 1032 496 q 910 489 936 496 q 863 471 883 482 q 826 447 842 460 q 799 421 810 433 l 751 476 q 776 502 758 486 q 822 533 793 518 q 890 560 850 549 q 979 571 929 571 q 1130 523 1079 571 q 1181 399 1181 475 q 1162 325 1181 354 q 1116 276 1143 296 q 1056 243 1089 256 q 997 222 1024 231 q 929 190 956 208 q 888 153 903 172 q 869 113 874 133 q 864 75 864 93 l 1182 75 l 1182 0 l 746 0 m 374 521 l 374 444 l 82 444 l 82 521 l 193 521 l 193 929 q 171 909 186 921 q 137 887 156 897 q 98 869 118 876 q 61 861 78 861 l 61 938 q 106 949 83 938 q 149 975 129 961 q 181 1001 168 989 q 193 1015 193 1014 l 271 1015 l 271 521 l 374 521 m 153 46 l 542 514 l 914 993 l 974 942 l 589 476 l 211 -7 l 153 46 z "},"₂":{"ha":556,"x_min":47,"x_max":500,"o":"m 47 -111 q 58 -16 47 -57 q 90 56 68 25 q 145 109 111 86 q 225 150 179 132 q 290 174 257 163 q 351 201 324 186 q 395 238 378 217 q 413 289 413 258 q 378 358 413 331 q 278 385 344 385 q 217 378 244 385 q 168 360 190 371 q 130 335 146 349 q 103 310 114 322 l 53 365 q 78 391 60 375 q 126 422 97 407 q 197 449 156 438 q 289 460 238 460 q 446 412 393 460 q 499 288 499 364 q 479 214 499 243 q 431 165 460 185 q 369 132 403 144 q 308 111 336 119 q 238 79 265 97 q 196 42 211 61 q 175 2 181 22 q 169 -36 169 -18 l 500 -36 l 500 -111 l 47 -111 z "},"₁":{"ha":418,"x_min":47,"x_max":390,"o":"m 390 -36 l 390 -111 l 68 -111 l 68 -36 l 194 -36 l 194 374 q 169 352 186 364 q 132 330 153 340 q 88 313 111 319 q 47 306 65 306 l 47 382 q 98 394 72 382 q 145 419 124 406 q 181 446 167 433 q 194 460 194 458 l 272 460 l 272 -36 l 390 -36 z "},"¼":{"ha":1192,"x_min":61,"x_max":1143,"o":"m 985 0 l 985 139 l 671 139 l 671 213 l 1008 564 l 1061 564 l 1061 214 l 1143 214 l 1143 139 l 1061 139 l 1061 0 l 985 0 m 750 214 l 988 214 l 988 464 l 750 214 m 374 521 l 374 444 l 82 444 l 82 521 l 193 521 l 193 929 q 171 909 186 921 q 137 887 156 897 q 98 869 118 876 q 61 861 78 861 l 61 938 q 106 949 83 938 q 149 975 129 961 q 181 1001 168 989 q 193 1015 193 1014 l 271 1015 l 271 521 l 374 521 m 204 46 l 593 514 l 965 993 l 1025 942 l 640 476 l 263 -7 l 204 46 z "},"⅓":{"ha":1235,"x_min":64,"x_max":1185,"o":"m 953 -7 q 806 24 865 -7 q 733 113 747 56 l 778 164 q 792 133 779 149 q 828 102 806 117 q 883 78 851 88 q 951 69 914 69 q 1062 94 1017 69 q 1107 160 1107 118 q 1051 231 1107 206 q 900 256 996 256 l 868 256 l 868 325 l 900 325 q 1038 346 988 325 q 1088 411 1088 367 q 1045 476 1088 453 q 949 500 1003 500 q 851 479 892 500 q 789 425 811 458 l 738 485 q 824 548 765 525 q 949 571 882 571 q 1036 559 996 571 q 1106 526 1076 547 q 1153 478 1136 506 q 1169 417 1169 450 q 1137 337 1169 368 q 1042 293 1104 306 q 1147 243 1108 283 q 1185 149 1185 203 q 1166 82 1185 111 q 1115 33 1147 53 q 1040 3 1082 13 q 953 -7 999 -7 m 376 521 l 376 444 l 85 444 l 85 521 l 196 521 l 196 929 q 174 909 189 921 q 140 887 158 897 q 101 869 121 876 q 64 861 81 861 l 64 938 q 109 949 86 938 q 151 975 132 961 q 183 1001 171 989 q 196 1015 196 1014 l 274 1015 l 274 521 l 376 521 m 156 46 l 544 514 l 917 993 l 976 942 l 592 476 l 214 -7 l 156 46 z "},"₃":{"ha":549,"x_min":44,"x_max":496,"o":"m 264 -118 q 117 -87 176 -118 q 44 1 58 -56 l 89 53 q 103 22 90 38 q 140 -9 117 6 q 194 -33 163 -24 q 263 -42 225 -42 q 373 -17 328 -42 q 418 49 418 7 q 363 119 418 94 q 211 144 307 144 l 179 144 l 179 214 l 211 214 q 349 235 299 214 q 399 300 399 256 q 356 365 399 342 q 260 389 314 389 q 163 368 203 389 q 100 314 122 347 l 49 374 q 135 437 76 414 q 260 460 193 460 q 347 448 307 460 q 417 415 388 436 q 464 367 447 394 q 481 306 481 339 q 448 226 481 257 q 353 182 415 194 q 458 132 419 172 q 496 38 496 92 q 477 -29 496 0 q 426 -78 458 -58 q 351 -108 393 -99 q 264 -118 310 -118 z "},"ǫ":{"ha":832,"x_min":50,"x_max":782,"o":"m 413 -258 q 325 -219 354 -247 q 296 -151 296 -190 q 393 -12 296 -82 q 252 23 315 -8 q 144 106 189 54 q 75 222 100 157 q 50 361 50 288 q 77 506 50 438 q 152 625 104 574 q 267 707 200 676 q 415 738 335 738 q 564 707 496 738 q 680 625 632 676 q 755 506 728 574 q 782 361 782 438 q 760 231 782 293 q 698 119 738 168 q 601 35 658 69 q 476 -8 544 1 q 392 -74 418 -44 q 367 -135 367 -104 q 443 -194 367 -186 l 413 -258 m 175 360 q 194 254 175 303 q 245 169 213 206 q 322 113 278 133 q 415 92 365 92 q 509 113 465 92 q 586 170 553 133 q 638 256 619 207 q 657 363 657 306 q 638 467 657 418 q 586 553 619 517 q 509 611 553 590 q 415 632 465 632 q 322 610 365 632 q 245 552 278 589 q 194 466 213 515 q 175 360 175 417 z "},"ª":{"ha":608,"x_min":64,"x_max":532,"o":"m 229 478 q 164 490 194 478 q 111 522 133 501 q 76 571 89 543 q 64 632 64 599 q 122 744 64 701 q 271 788 179 788 q 342 781 307 788 q 404 764 376 775 l 404 799 q 372 886 404 854 q 281 918 340 918 q 203 903 242 918 q 124 861 165 889 l 92 924 q 289 988 189 988 q 446 936 389 988 q 503 788 503 885 l 503 606 q 532 572 503 574 l 532 486 q 509 483 518 483 q 489 482 500 482 q 441 497 458 482 q 421 536 424 513 l 419 568 q 335 501 385 524 q 229 478 286 478 m 257 551 q 332 566 297 551 q 386 604 367 581 q 404 640 404 621 l 404 707 q 347 723 378 718 q 288 728 317 728 q 193 704 229 728 q 157 640 157 681 q 185 577 157 603 q 257 551 214 551 z "},"º":{"ha":622,"x_min":58,"x_max":564,"o":"m 311 478 q 208 499 254 478 q 128 554 161 519 q 76 635 94 589 q 58 732 58 682 q 76 830 58 783 q 128 912 94 876 q 208 967 161 947 q 311 988 254 988 q 415 967 368 988 q 494 912 461 947 q 546 830 528 876 q 564 732 564 783 q 546 635 564 682 q 494 554 528 589 q 415 499 461 519 q 311 478 368 478 m 158 731 q 170 664 158 694 q 203 611 182 633 q 251 576 224 589 q 311 563 279 563 q 371 576 343 563 q 419 612 399 589 q 452 666 440 635 q 464 733 464 697 q 452 800 464 769 q 419 853 440 831 q 371 889 399 876 q 311 901 343 901 q 251 888 279 901 q 203 852 224 875 q 170 798 182 829 q 158 731 158 767 z "},"ø":{"ha":832,"x_min":50,"x_max":782,"o":"m 111 -3 l 174 75 q 83 202 115 128 q 50 361 50 276 q 77 506 50 438 q 152 625 104 574 q 267 707 200 676 q 415 738 335 738 q 518 724 469 738 q 607 685 567 710 l 640 728 l 718 728 l 656 649 q 749 521 715 596 q 782 361 782 446 q 756 218 782 286 q 681 99 729 150 q 565 17 632 47 q 415 -14 497 -14 q 221 40 307 -14 l 188 -3 l 111 -3 m 415 92 q 509 113 465 92 q 586 170 553 133 q 638 256 619 207 q 657 363 657 306 q 637 470 657 421 q 583 556 617 519 l 289 131 q 415 92 344 92 m 175 360 q 194 252 175 301 q 247 167 214 203 l 540 593 q 481 622 513 611 q 415 632 450 632 q 322 610 365 632 q 245 552 278 589 q 194 466 213 515 q 175 360 175 417 z "},"ǿ":{"ha":832,"x_min":50,"x_max":782,"o":"m 436 846 l 356 874 l 436 1014 l 558 1014 l 436 846 m 111 -3 l 174 75 q 83 202 115 128 q 50 361 50 276 q 77 506 50 438 q 152 625 104 574 q 267 707 200 676 q 415 738 335 738 q 518 724 469 738 q 607 685 567 710 l 640 728 l 718 728 l 656 649 q 749 521 715 596 q 782 361 782 446 q 756 218 782 286 q 681 99 729 150 q 565 17 632 47 q 415 -14 497 -14 q 221 40 307 -14 l 188 -3 l 111 -3 m 415 92 q 509 113 465 92 q 586 170 553 133 q 638 256 619 207 q 657 363 657 306 q 637 470 657 421 q 583 556 617 519 l 289 131 q 415 92 344 92 m 175 360 q 194 252 175 301 q 247 167 214 203 l 540 593 q 481 622 513 611 q 415 632 450 632 q 322 610 365 632 q 245 552 278 589 q 194 466 213 515 q 175 360 175 417 z "},"õ":{"ha":832,"x_min":50,"x_max":782,"o":"m 415 -14 q 266 17 333 -14 q 151 99 199 47 q 76 218 103 150 q 50 361 50 286 q 77 506 50 438 q 152 625 104 574 q 267 707 200 676 q 415 738 335 738 q 564 707 496 738 q 680 625 632 676 q 755 506 728 574 q 782 361 782 438 q 756 218 782 286 q 681 99 729 150 q 565 17 632 47 q 415 -14 497 -14 m 175 360 q 194 254 175 303 q 245 169 213 206 q 322 113 278 133 q 415 92 365 92 q 509 113 465 92 q 586 170 553 133 q 638 256 619 207 q 657 363 657 306 q 638 467 657 418 q 586 553 619 517 q 509 611 553 590 q 415 632 465 632 q 322 610 365 632 q 245 552 278 589 q 194 466 213 515 q 175 360 175 417 m 503 871 q 448 880 471 871 q 405 900 425 889 q 365 920 385 911 q 324 929 346 929 q 287 919 300 929 q 267 898 274 910 q 258 875 260 886 q 256 863 256 864 l 183 863 q 190 894 183 871 q 211 943 196 918 q 253 987 226 968 q 321 1006 279 1006 q 372 997 350 1006 q 415 976 394 988 q 455 955 435 964 q 500 946 475 946 q 542 956 526 946 q 565 978 557 965 q 576 1001 574 990 q 578 1014 578 1011 l 650 1014 q 644 983 650 1006 q 621 935 638 960 q 576 890 604 910 q 503 871 547 871 z "},"p":{"ha":865,"x_min":99,"x_max":814,"o":"m 489 -14 q 330 31 399 -14 q 221 143 261 75 l 221 -296 l 99 -296 l 99 725 l 207 725 l 207 589 q 319 697 250 656 q 471 738 388 738 q 608 707 546 738 q 717 624 671 676 q 788 504 763 572 q 814 363 814 436 q 790 216 814 285 q 724 97 767 147 q 621 16 681 46 q 489 -14 561 -14 m 451 92 q 549 115 506 92 q 624 176 593 138 q 672 263 656 214 q 689 363 689 311 q 669 466 689 417 q 617 552 650 515 q 538 610 583 589 q 440 632 493 632 q 372 619 407 632 q 305 584 336 606 q 251 533 274 563 q 221 469 228 503 l 221 263 q 260 195 236 226 q 314 141 283 164 q 379 105 344 118 q 451 92 414 92 z "},"¶":{"ha":858,"x_min":49,"x_max":797,"o":"m 49 646 q 151 897 49 807 q 440 986 254 986 l 797 986 l 797 892 l 700 892 l 700 -111 l 594 -111 l 594 311 l 501 311 l 501 -111 l 396 -111 l 396 311 q 252 336 317 313 q 142 403 188 360 q 73 508 97 446 q 49 646 49 569 m 153 649 q 172 545 153 589 q 225 471 192 501 q 302 424 258 440 q 396 406 346 408 l 396 892 q 215 824 278 889 q 153 649 153 760 m 594 892 l 501 892 l 501 406 l 594 406 l 594 892 z "},"(":{"ha":393,"x_min":58,"x_max":350,"o":"m 58 481 q 74 621 58 551 q 116 759 89 690 q 178 896 143 828 q 256 1033 214 964 l 350 992 q 292 892 324 951 q 235 763 261 832 q 190 619 208 693 q 172 476 172 544 q 219 241 172 367 q 347 -11 267 115 l 257 -58 q 114 209 169 72 q 58 481 58 346 z "},")":{"ha":393,"x_min":43,"x_max":335,"o":"m 335 481 q 279 209 335 346 q 136 -58 224 72 l 46 -11 q 174 241 126 115 q 221 476 221 367 q 203 619 221 544 q 158 763 185 693 q 101 892 132 832 q 43 992 69 951 l 138 1033 q 215 896 179 964 q 277 759 250 828 q 319 621 304 690 q 335 481 335 551 z "},"%":{"ha":1018,"x_min":51,"x_max":967,"o":"m 265 594 q 182 610 221 594 q 114 653 143 626 q 68 718 85 681 q 51 797 51 756 q 68 876 51 839 q 114 941 85 914 q 182 984 143 968 q 265 1000 221 1000 q 349 984 310 1000 q 417 941 388 968 q 463 876 446 914 q 479 797 479 839 q 463 718 479 756 q 417 653 446 681 q 349 610 388 626 q 265 594 310 594 m 265 661 q 315 672 292 661 q 354 702 338 683 q 381 745 371 721 q 390 797 390 769 q 380 850 390 825 q 353 894 369 875 q 313 923 336 913 q 265 933 290 933 q 216 922 239 933 q 176 892 193 911 q 150 849 160 874 q 140 797 140 824 q 150 744 140 769 q 177 701 160 719 q 217 672 194 682 q 265 661 240 661 m 753 -14 q 669 2 708 -14 q 601 45 631 18 q 556 110 572 72 q 539 189 539 147 q 556 268 539 231 q 601 333 572 306 q 669 376 631 360 q 753 392 708 392 q 836 376 797 392 q 904 333 875 360 q 950 268 933 306 q 967 189 967 231 q 950 110 967 147 q 904 45 933 72 q 836 2 875 18 q 753 -14 797 -14 m 753 53 q 802 64 779 53 q 842 94 825 75 q 868 137 858 113 q 878 189 878 161 q 867 242 878 217 q 840 285 857 267 q 801 315 824 304 q 753 325 778 325 q 703 314 726 325 q 664 284 681 303 q 638 240 647 265 q 628 189 628 215 q 638 136 628 161 q 665 92 647 111 q 705 63 682 74 q 753 53 728 53 m 99 46 l 488 514 l 860 993 l 919 942 l 535 476 l 157 -7 l 99 46 z "},".":{"ha":281,"x_min":89,"x_max":192,"o":"m 89 0 l 89 156 l 192 156 l 192 0 l 89 0 z "},"‰":{"ha":1522,"x_min":60,"x_max":1476,"o":"m 274 594 q 190 610 229 594 q 122 653 151 626 q 76 718 93 681 q 60 797 60 756 q 76 876 60 839 q 122 941 93 914 q 190 984 151 968 q 274 1000 229 1000 q 357 984 318 1000 q 425 941 396 968 q 471 876 454 914 q 488 797 488 839 q 471 718 488 756 q 425 653 454 681 q 357 610 396 626 q 274 594 318 594 m 274 661 q 323 672 300 661 q 363 702 346 683 q 389 745 379 721 q 399 797 399 769 q 388 850 399 825 q 361 894 378 875 q 322 923 344 913 q 274 933 299 933 q 224 922 247 933 q 185 892 201 911 q 158 849 168 874 q 149 797 149 824 q 159 744 149 769 q 186 701 169 719 q 226 672 203 682 q 274 661 249 661 m 761 -14 q 678 2 717 -14 q 610 45 639 18 q 564 110 581 72 q 547 189 547 147 q 564 268 547 231 q 610 333 581 306 q 678 376 639 360 q 761 392 717 392 q 844 376 806 392 q 913 333 883 360 q 958 268 942 306 q 975 189 975 231 q 958 110 975 147 q 913 45 942 72 q 844 2 883 18 q 761 -14 806 -14 m 761 53 q 810 64 788 53 q 850 94 833 75 q 876 137 867 113 q 886 189 886 161 q 876 242 886 217 q 849 285 865 267 q 809 315 832 304 q 761 325 786 325 q 712 314 735 325 q 672 284 689 303 q 646 240 656 265 q 636 189 636 215 q 646 136 636 161 q 673 92 656 111 q 713 63 690 74 q 761 53 736 53 m 1263 -14 q 1179 2 1218 -14 q 1111 45 1140 18 q 1065 110 1082 72 q 1049 189 1049 147 q 1065 268 1049 231 q 1111 333 1082 306 q 1179 376 1140 360 q 1263 392 1218 392 q 1346 376 1307 392 q 1414 333 1385 360 q 1460 268 1443 306 q 1476 189 1476 231 q 1460 110 1476 147 q 1414 45 1443 72 q 1346 2 1385 18 q 1263 -14 1307 -14 m 1263 53 q 1312 64 1289 53 q 1351 94 1335 75 q 1378 137 1368 113 q 1388 189 1388 161 q 1377 242 1388 217 q 1350 285 1367 267 q 1310 315 1333 304 q 1263 325 1288 325 q 1213 314 1236 325 q 1174 284 1190 303 q 1147 240 1157 265 q 1138 189 1138 215 q 1147 136 1138 161 q 1174 92 1157 111 q 1215 63 1192 74 q 1263 53 1238 53 m 107 46 l 496 514 l 868 993 l 928 942 l 543 476 l 165 -7 l 107 46 z "},"+":{"ha":578,"x_min":69,"x_max":508,"o":"m 508 543 l 508 443 l 344 443 l 344 265 l 233 265 l 233 443 l 69 443 l 69 543 l 233 543 l 233 721 l 344 721 l 344 543 l 508 543 z "},"±":{"ha":647,"x_min":93,"x_max":554,"o":"m 93 71 l 93 171 l 554 171 l 554 71 l 93 71 m 554 561 l 554 461 l 379 461 l 379 272 l 268 272 l 268 461 l 93 461 l 93 561 l 268 561 l 268 750 l 379 750 l 379 561 l 554 561 z "},"q":{"ha":865,"x_min":51,"x_max":806,"o":"m 376 -14 q 244 17 304 -14 q 142 99 185 47 q 75 219 99 151 q 51 363 51 288 q 78 507 51 439 q 151 626 104 575 q 260 708 197 678 q 394 738 322 738 q 549 696 479 738 q 658 588 618 654 l 658 725 l 767 725 l 767 -140 q 806 -185 767 -183 l 806 -290 q 740 -294 772 -294 q 673 -266 701 -294 q 644 -197 644 -237 l 644 143 q 376 -14 544 -14 m 418 92 q 552 137 496 92 q 644 247 608 182 l 644 456 q 615 523 638 490 q 562 579 593 556 q 494 617 531 603 q 421 632 457 632 q 322 609 367 632 q 245 548 278 586 q 194 460 213 510 q 176 360 176 411 q 194 256 176 306 q 244 171 213 207 q 321 113 276 135 q 418 92 365 92 z "},"?":{"ha":665,"x_min":47,"x_max":614,"o":"m 200 293 q 226 424 200 368 q 317 521 253 481 q 374 556 342 538 q 436 598 407 574 q 485 656 465 622 q 506 738 506 690 q 491 806 506 776 q 453 856 476 836 q 399 887 429 876 q 335 897 368 897 q 269 887 300 897 q 211 858 238 876 q 164 816 185 840 q 129 765 143 792 l 47 819 q 96 896 65 863 q 165 952 126 929 q 248 987 204 975 q 338 999 292 999 q 439 983 389 999 q 528 933 489 967 q 590 850 567 900 q 614 732 614 800 q 599 642 614 679 q 561 576 585 604 q 506 528 538 549 q 439 488 474 507 q 389 458 414 474 q 345 422 364 443 q 315 369 326 400 q 303 293 303 339 l 200 293 m 203 0 l 203 161 l 306 161 l 306 0 l 203 0 z "},"¿":{"ha":657,"x_min":46,"x_max":613,"o":"m 460 410 q 433 278 460 335 q 343 182 407 222 q 285 147 318 165 q 224 105 253 129 q 174 47 194 81 q 154 -35 154 13 q 169 -103 154 -74 q 207 -153 183 -133 q 261 -184 231 -174 q 325 -194 292 -194 q 391 -184 360 -194 q 449 -156 422 -174 q 496 -113 475 -137 q 531 -62 517 -89 l 613 -117 q 563 -193 593 -160 q 494 -249 533 -226 q 412 -284 456 -272 q 322 -296 368 -296 q 221 -280 271 -296 q 132 -231 171 -264 q 69 -147 93 -197 q 46 -29 46 -97 q 60 61 46 24 q 99 126 75 99 q 154 175 122 154 q 221 215 186 196 q 271 244 246 229 q 315 281 296 260 q 345 333 333 303 q 357 410 357 364 l 460 410 m 457 703 l 457 542 l 354 542 l 354 703 l 457 703 z "},"\"":{"ha":450,"x_min":93,"x_max":357,"o":"m 93 697 l 93 997 l 199 997 l 199 697 l 93 697 m 251 697 l 251 997 l 357 997 l 357 697 l 251 697 z "},"„":{"ha":485,"x_min":89,"x_max":396,"o":"m 103 -160 l 131 0 l 89 0 l 89 158 l 204 158 l 204 0 l 163 -160 l 103 -160 m 294 -160 l 322 0 l 281 0 l 281 158 l 396 158 l 396 0 l 354 -160 l 294 -160 z "},"‚":{"ha":293,"x_min":89,"x_max":204,"o":"m 103 -160 l 131 0 l 89 0 l 89 158 l 204 158 l 204 0 l 163 -160 l 103 -160 z "},"“":{"ha":479,"x_min":86,"x_max":393,"o":"m 188 1014 l 160 854 l 201 854 l 201 696 l 86 696 l 86 854 l 128 1014 l 188 1014 m 379 1014 l 351 854 l 393 854 l 393 696 l 278 696 l 278 854 l 319 1014 l 379 1014 z "},"‘":{"ha":288,"x_min":86,"x_max":201,"o":"m 188 1014 l 160 854 l 201 854 l 201 696 l 86 696 l 86 854 l 128 1014 l 188 1014 z "},"”":{"ha":469,"x_min":85,"x_max":392,"o":"m 99 696 l 126 856 l 85 856 l 85 1014 l 200 1014 l 200 856 l 158 696 l 99 696 m 290 696 l 318 856 l 276 856 l 276 1014 l 392 1014 l 392 856 l 350 696 l 290 696 z "},"’":{"ha":278,"x_min":85,"x_max":200,"o":"m 99 696 l 126 856 l 85 856 l 85 1014 l 200 1014 l 200 856 l 158 696 l 99 696 z "},"'":{"ha":292,"x_min":93,"x_max":199,"o":"m 93 696 l 93 997 l 199 997 l 199 696 l 93 696 z "},"r":{"ha":504,"x_min":99,"x_max":482,"o":"m 482 618 q 320 571 390 615 q 221 447 250 526 l 221 0 l 99 0 l 99 725 l 213 725 l 213 557 q 311 678 250 632 q 442 731 372 725 q 465 731 456 731 q 482 729 475 731 l 482 618 z "},"ŕ":{"ha":504,"x_min":99,"x_max":482,"o":"m 314 846 l 233 874 l 314 1014 l 436 1014 l 314 846 m 482 618 q 320 571 390 615 q 221 447 250 526 l 221 0 l 99 0 l 99 725 l 213 725 l 213 557 q 311 678 250 632 q 442 731 372 725 q 465 731 456 731 q 482 729 475 731 l 482 618 z "},"ř":{"ha":504,"x_min":99,"x_max":482,"o":"m 175 1014 l 293 926 l 411 1014 l 478 981 l 338 856 l 249 856 l 108 981 l 175 1014 m 482 618 q 320 571 390 615 q 221 447 250 526 l 221 0 l 99 0 l 99 725 l 213 725 l 213 557 q 311 678 250 632 q 442 731 372 725 q 465 731 456 731 q 482 729 475 731 l 482 618 z "},"ŗ":{"ha":504,"x_min":97,"x_max":482,"o":"m 104 -296 l 132 -183 l 97 -183 l 97 -67 l 206 -67 l 206 -183 l 164 -296 l 104 -296 m 482 618 q 320 571 390 615 q 221 447 250 526 l 221 0 l 99 0 l 99 725 l 213 725 l 213 557 q 311 678 250 632 q 442 731 372 725 q 465 731 456 731 q 482 729 475 731 l 482 618 z "},"®":{"ha":1161,"x_min":65,"x_max":1096,"o":"m 579 -10 q 374 28 468 -10 q 212 134 281 67 q 104 293 143 201 q 65 493 65 385 q 104 692 65 600 q 212 850 143 783 q 374 955 281 917 q 579 993 468 993 q 785 955 690 993 q 949 850 879 917 q 1057 692 1018 783 q 1096 493 1096 600 q 1057 293 1096 385 q 949 134 1018 201 q 785 28 879 67 q 579 -10 690 -10 m 579 42 q 760 74 676 42 q 905 167 843 107 q 1002 309 967 226 q 1038 492 1038 392 q 1003 669 1038 588 q 907 812 968 751 q 762 906 846 872 q 579 940 678 940 q 397 906 481 940 q 252 812 313 872 q 158 669 192 751 q 124 493 124 588 q 158 315 124 397 q 252 172 192 232 q 397 76 313 111 q 579 42 481 42 m 364 804 l 631 804 q 707 787 672 804 q 767 741 742 769 q 806 676 792 713 q 819 604 819 640 q 783 487 819 539 q 686 419 746 435 l 838 181 l 736 181 l 594 406 l 454 406 l 454 181 l 364 181 l 364 804 m 626 485 q 703 518 676 485 q 731 604 731 551 q 699 690 731 657 q 622 722 668 722 l 454 722 l 454 485 l 626 485 z "},"s":{"ha":686,"x_min":35,"x_max":640,"o":"m 353 -14 q 181 13 265 -14 q 35 92 96 40 l 88 174 q 215 101 151 125 q 350 76 279 76 q 476 108 429 76 q 522 196 522 139 q 510 241 522 222 q 472 274 497 260 q 408 299 447 288 q 318 322 369 310 q 206 354 253 339 q 128 390 158 369 q 83 440 97 411 q 69 513 69 469 q 91 609 69 567 q 150 680 113 651 q 238 723 188 708 q 347 738 289 738 q 500 711 429 738 q 619 642 571 685 l 564 568 q 461 628 518 608 q 344 649 404 649 q 231 620 278 649 q 185 529 185 592 q 194 488 185 504 q 224 458 203 471 q 277 436 244 446 q 356 415 310 426 q 481 381 428 399 q 570 340 535 364 q 623 285 606 317 q 640 207 640 253 q 563 46 640 106 q 353 -14 485 -14 z "},"ﬆ":{"ha":1150,"x_min":43,"x_max":1135,"o":"m 1135 36 q 1105 23 1124 31 q 1063 8 1086 15 q 1014 -5 1040 0 q 961 -10 988 -10 q 844 27 892 -10 q 796 142 796 64 l 796 629 l 697 629 l 697 725 l 796 725 q 792 845 796 797 q 774 921 788 893 q 735 960 760 949 q 672 972 711 972 q 602 962 631 972 q 556 933 574 951 q 531 891 539 915 q 522 839 522 867 q 532 770 522 803 q 554 711 542 738 q 578 667 567 685 q 594 643 590 649 l 540 569 q 439 632 492 615 q 338 649 386 649 q 276 642 306 649 q 224 623 247 636 q 186 587 200 610 q 172 531 172 564 q 190 472 172 494 q 234 438 207 450 q 294 419 261 425 q 357 408 326 413 q 463 388 413 400 q 552 354 514 376 q 613 297 590 332 q 635 207 635 261 q 611 107 635 149 q 548 38 588 65 q 457 -1 508 11 q 351 -14 406 -14 q 180 16 263 -14 q 43 89 97 46 l 93 172 q 350 76 221 76 q 412 83 381 76 q 467 103 443 89 q 507 140 492 117 q 522 194 522 163 q 503 253 522 232 q 456 286 485 274 q 391 304 426 299 q 322 315 356 310 q 218 338 265 325 q 136 372 171 350 q 82 428 101 394 q 63 513 63 461 q 86 614 63 571 q 148 684 110 657 q 234 724 186 711 q 331 738 282 738 q 422 728 374 738 q 506 694 469 718 q 476 763 488 731 q 464 840 464 794 q 476 915 464 879 q 517 976 489 950 q 589 1018 544 1003 q 699 1033 633 1033 q 820 1014 776 1033 q 886 956 864 994 q 913 859 908 917 q 918 725 918 801 l 1079 725 l 1079 629 l 918 629 l 918 179 q 942 121 918 139 q 1001 103 967 103 q 1065 115 1035 103 q 1107 133 1096 126 l 1135 36 z "},"ś":{"ha":686,"x_min":35,"x_max":640,"o":"m 365 846 l 285 874 l 365 1014 l 488 1014 l 365 846 m 353 -14 q 181 13 265 -14 q 35 92 96 40 l 88 174 q 215 101 151 125 q 350 76 279 76 q 476 108 429 76 q 522 196 522 139 q 510 241 522 222 q 472 274 497 260 q 408 299 447 288 q 318 322 369 310 q 206 354 253 339 q 128 390 158 369 q 83 440 97 411 q 69 513 69 469 q 91 609 69 567 q 150 680 113 651 q 238 723 188 708 q 347 738 289 738 q 500 711 429 738 q 619 642 571 685 l 564 568 q 461 628 518 608 q 344 649 404 649 q 231 620 278 649 q 185 529 185 592 q 194 488 185 504 q 224 458 203 471 q 277 436 244 446 q 356 415 310 426 q 481 381 428 399 q 570 340 535 364 q 623 285 606 317 q 640 207 640 253 q 563 46 640 106 q 353 -14 485 -14 z "},"š":{"ha":686,"x_min":35,"x_max":640,"o":"m 226 1014 l 344 926 l 463 1014 l 529 981 l 389 856 l 300 856 l 160 981 l 226 1014 m 353 -14 q 181 13 265 -14 q 35 92 96 40 l 88 174 q 215 101 151 125 q 350 76 279 76 q 476 108 429 76 q 522 196 522 139 q 510 241 522 222 q 472 274 497 260 q 408 299 447 288 q 318 322 369 310 q 206 354 253 339 q 128 390 158 369 q 83 440 97 411 q 69 513 69 469 q 91 609 69 567 q 150 680 113 651 q 238 723 188 708 q 347 738 289 738 q 500 711 429 738 q 619 642 571 685 l 564 568 q 461 628 518 608 q 344 649 404 649 q 231 620 278 649 q 185 529 185 592 q 194 488 185 504 q 224 458 203 471 q 277 436 244 446 q 356 415 310 426 q 481 381 428 399 q 570 340 535 364 q 623 285 606 317 q 640 207 640 253 q 563 46 640 106 q 353 -14 485 -14 z "},"ə":{"ha":821,"x_min":38,"x_max":771,"o":"m 406 -14 q 256 16 324 -14 q 140 97 189 46 q 65 217 92 149 q 38 361 38 285 q 38 383 38 369 q 40 403 39 396 l 642 403 q 617 501 638 457 q 563 578 596 546 q 487 627 529 610 q 397 644 444 644 q 332 635 364 644 q 272 611 300 626 q 223 574 244 596 q 190 525 201 551 l 85 554 q 134 627 103 593 q 206 685 165 661 q 297 724 247 710 q 403 738 347 738 q 551 708 483 738 q 668 626 619 678 q 744 505 717 574 q 771 358 771 436 q 744 215 771 282 q 670 97 718 147 q 555 16 622 46 q 406 -14 488 -14 m 407 78 q 497 96 456 78 q 570 147 539 114 q 621 224 601 179 q 644 322 640 269 l 156 322 q 181 223 160 268 q 237 146 203 178 q 315 96 271 114 q 407 78 358 78 z "},"ŝ":{"ha":686,"x_min":35,"x_max":640,"o":"m 160 889 l 300 1014 l 389 1014 l 529 889 l 463 856 l 344 943 l 226 856 l 160 889 m 353 -14 q 181 13 265 -14 q 35 92 96 40 l 88 174 q 215 101 151 125 q 350 76 279 76 q 476 108 429 76 q 522 196 522 139 q 510 241 522 222 q 472 274 497 260 q 408 299 447 288 q 318 322 369 310 q 206 354 253 339 q 128 390 158 369 q 83 440 97 411 q 69 513 69 469 q 91 609 69 567 q 150 680 113 651 q 238 723 188 708 q 347 738 289 738 q 500 711 429 738 q 619 642 571 685 l 564 568 q 461 628 518 608 q 344 649 404 649 q 231 620 278 649 q 185 529 185 592 q 194 488 185 504 q 224 458 203 471 q 277 436 244 446 q 356 415 310 426 q 481 381 428 399 q 570 340 535 364 q 623 285 606 317 q 640 207 640 253 q 563 46 640 106 q 353 -14 485 -14 z "},"§":{"ha":718,"x_min":65,"x_max":657,"o":"m 597 279 q 657 135 657 239 q 629 19 657 68 q 559 -60 601 -29 q 466 -107 517 -92 q 368 -122 415 -122 q 274 -110 318 -122 q 195 -78 231 -97 q 132 -35 160 -58 q 85 10 104 -11 l 164 85 q 260 16 213 38 q 364 -6 308 -6 q 424 3 394 -6 q 478 30 454 13 q 516 73 501 47 q 531 131 531 99 q 517 187 531 165 q 480 219 503 208 q 429 235 457 231 q 375 242 401 240 q 262 262 313 246 q 175 307 211 278 q 119 378 139 336 q 99 474 99 419 q 109 542 99 513 q 132 588 119 571 q 85 650 106 608 q 65 747 65 692 q 89 845 65 800 q 151 923 113 890 q 239 974 189 956 q 343 993 289 993 q 440 980 397 993 q 515 946 482 967 q 571 899 547 925 q 611 849 594 874 l 517 804 q 446 865 493 847 q 350 883 399 883 q 290 874 318 883 q 238 847 261 865 q 202 804 215 829 q 189 749 189 779 q 201 689 189 713 q 235 651 214 665 q 287 630 257 636 q 351 624 317 624 q 453 612 401 624 q 544 574 504 600 q 610 506 585 547 q 636 403 636 464 q 624 330 636 363 q 597 279 613 297 m 218 458 q 248 375 218 400 q 320 340 278 350 q 408 327 363 329 q 483 313 453 325 q 510 351 500 326 q 519 400 519 375 q 503 459 519 435 q 464 497 488 483 q 411 517 440 511 q 356 524 382 524 q 249 542 292 524 q 226 505 235 528 q 218 458 218 482 z "},";":{"ha":307,"x_min":96,"x_max":211,"o":"m 96 564 l 96 719 l 197 719 l 197 564 l 96 564 m 110 -112 l 138 11 l 96 11 l 96 156 l 211 156 l 211 11 l 169 -112 l 110 -112 z "},"⅞":{"ha":1214,"x_min":57,"x_max":1164,"o":"m 1164 160 q 1145 92 1164 122 q 1094 40 1126 61 q 1021 6 1063 18 q 932 -7 979 -7 q 840 6 882 -7 q 768 42 799 19 q 720 97 738 65 q 703 163 703 128 q 713 211 703 189 q 741 251 724 233 q 781 281 758 268 q 828 303 804 294 q 756 346 788 318 q 725 417 725 374 q 744 478 725 450 q 792 524 763 506 q 858 553 821 543 q 933 564 896 564 q 1008 553 971 564 q 1075 524 1046 543 q 1123 478 1104 506 q 1142 418 1142 451 q 1112 347 1142 376 q 1038 303 1082 318 q 1128 248 1092 283 q 1164 160 1164 213 m 1086 168 q 1072 210 1086 192 q 1037 242 1058 229 q 988 261 1015 254 q 933 268 960 268 q 876 261 904 268 q 828 240 849 254 q 794 208 807 226 q 781 167 781 189 q 794 125 781 143 q 831 94 808 107 q 880 76 853 82 q 935 69 907 69 q 990 76 963 69 q 1038 97 1017 83 q 1073 128 1060 110 q 1086 168 1086 146 m 803 410 q 815 376 803 390 q 845 351 826 361 q 887 336 864 342 q 933 331 910 331 q 979 336 956 331 q 1022 352 1003 342 q 1053 377 1042 363 q 1065 411 1065 392 q 1054 444 1065 429 q 1024 469 1043 458 q 982 485 1006 479 q 933 490 958 490 q 842 469 881 490 q 803 410 803 447 m 106 46 l 494 514 l 867 993 l 926 942 l 542 476 l 164 -7 l 106 46 m 399 938 l 57 938 l 57 1014 l 521 1014 l 189 451 l 101 451 l 399 938 z "},"⁷":{"ha":507,"x_min":35,"x_max":499,"o":"m 376 1049 l 35 1049 l 35 1125 l 499 1125 l 167 563 l 79 563 l 376 1049 z "},"₇":{"ha":507,"x_min":35,"x_max":499,"o":"m 378 376 l 35 376 l 35 453 l 499 453 l 167 -111 l 79 -111 l 378 376 z "},"₆":{"ha":569,"x_min":54,"x_max":526,"o":"m 526 76 q 508 1 526 36 q 458 -61 490 -35 q 383 -103 426 -87 q 290 -118 340 -118 q 119 -53 185 -118 q 54 131 54 13 q 122 375 54 293 q 301 457 189 457 q 416 432 364 457 q 496 361 468 407 l 450 310 q 389 365 431 344 q 299 385 347 385 q 174 333 221 385 q 126 185 128 281 q 195 244 147 222 q 296 265 243 265 q 388 251 346 265 q 460 210 429 236 q 509 150 492 185 q 526 76 526 115 m 293 -49 q 355 -39 326 -49 q 406 -12 383 -29 q 440 28 428 6 q 453 75 453 50 q 440 123 453 100 q 406 163 428 146 q 354 189 383 179 q 292 199 325 199 q 229 189 258 199 q 178 163 200 179 q 143 124 156 146 q 131 76 131 101 q 144 28 131 51 q 179 -12 157 6 q 231 -39 201 -29 q 293 -49 260 -49 z "},"⁶":{"ha":568,"x_min":53,"x_max":525,"o":"m 525 744 q 507 667 525 703 q 457 606 489 632 q 382 564 425 579 q 289 549 339 549 q 118 614 183 549 q 53 797 53 679 q 120 1043 53 961 q 300 1125 188 1125 q 415 1100 363 1125 q 494 1029 467 1075 l 449 978 q 388 1032 429 1011 q 297 1053 346 1053 q 173 1001 219 1053 q 125 853 126 949 q 194 912 146 890 q 294 933 242 933 q 386 919 344 933 q 459 878 428 904 q 508 818 490 853 q 525 744 525 783 m 292 619 q 353 629 325 619 q 404 656 382 639 q 439 696 426 674 q 451 743 451 718 q 439 791 451 768 q 404 831 426 814 q 353 857 382 847 q 290 867 324 867 q 228 857 257 867 q 176 831 199 847 q 142 792 154 814 q 129 744 129 769 q 142 697 129 719 q 178 656 156 674 q 229 629 200 639 q 292 619 258 619 z "},"Æ":{"ha":1335,"x_min":-35,"x_max":1285,"o":"m 594 986 l 1272 986 l 1272 875 l 751 875 l 751 558 l 1197 558 l 1197 447 l 751 447 l 751 111 l 1285 111 l 1285 0 l 628 0 l 628 289 l 282 289 l 101 0 l -35 0 l 594 986 m 619 400 l 619 840 l 338 400 l 619 400 z "},"£":{"ha":711,"x_min":74,"x_max":656,"o":"m 74 521 l 194 521 q 165 578 181 550 q 137 633 150 606 q 115 691 124 661 q 107 753 107 721 q 128 847 107 803 q 184 923 149 890 q 267 974 219 956 q 369 993 315 993 q 518 954 449 993 q 632 847 588 915 l 564 772 q 476 859 531 826 q 367 892 422 892 q 308 880 335 892 q 262 849 282 868 q 231 801 242 829 q 219 743 219 774 q 228 688 219 715 q 251 634 238 661 q 280 579 264 607 q 310 521 296 551 l 558 521 l 558 426 l 340 426 q 344 397 343 411 q 346 367 346 382 q 315 238 346 299 q 210 96 285 176 q 313 110 261 110 q 413 97 368 110 q 507 85 458 85 q 562 91 535 85 q 625 110 589 97 l 656 17 q 580 -11 619 -1 q 501 -21 540 -21 q 441 -15 469 -21 q 383 -3 413 -10 q 324 8 354 3 q 263 14 294 14 q 185 7 228 14 q 104 -11 142 0 l 74 78 q 201 228 163 163 q 239 361 239 293 q 231 426 239 394 l 74 426 l 74 521 z "},"t":{"ha":489,"x_min":35,"x_max":474,"o":"m 474 36 q 444 23 463 31 q 403 8 426 15 q 353 -5 381 0 q 297 -10 326 -10 q 182 27 231 -10 q 133 142 133 64 l 133 629 l 35 629 l 35 725 l 133 725 l 133 967 l 256 967 l 256 725 l 418 725 l 418 629 l 256 629 l 256 179 q 282 121 258 139 q 338 103 306 103 q 403 115 374 103 q 444 133 433 126 l 474 36 z "},"ŧ":{"ha":490,"x_min":36,"x_max":475,"o":"m 475 36 q 446 23 464 31 q 405 8 428 15 q 355 -5 382 0 q 299 -10 328 -10 q 183 27 232 -10 q 135 142 135 64 l 135 408 l 36 408 l 36 486 l 135 486 l 135 629 l 36 629 l 36 725 l 135 725 l 135 967 l 257 967 l 257 725 l 419 725 l 419 629 l 257 629 l 257 486 l 419 486 l 419 408 l 257 408 l 257 179 q 283 121 260 139 q 339 103 307 103 q 405 115 375 103 q 446 133 435 126 l 475 36 z "},"ť":{"ha":489,"x_min":35,"x_max":542,"o":"m 419 846 l 339 874 l 419 1014 l 542 1014 l 419 846 m 474 36 q 444 23 463 31 q 403 8 426 15 q 353 -5 381 0 q 297 -10 326 -10 q 182 27 231 -10 q 133 142 133 64 l 133 629 l 35 629 l 35 725 l 133 725 l 133 967 l 256 967 l 256 725 l 418 725 l 418 629 l 256 629 l 256 179 q 282 121 258 139 q 338 103 306 103 q 403 115 374 103 q 444 133 433 126 l 474 36 z "},"þ":{"ha":838,"x_min":99,"x_max":789,"o":"m 789 357 q 760 213 788 282 q 683 90 732 143 q 570 6 635 38 q 431 -25 506 -25 q 304 8 358 -25 q 224 83 250 40 l 224 -296 l 99 -296 l 99 986 l 224 986 l 224 624 q 309 706 257 671 q 443 742 361 742 q 588 708 524 742 q 696 618 651 674 q 765 494 740 563 q 789 357 789 425 m 664 358 q 648 462 664 413 q 602 549 632 511 q 530 608 572 586 q 436 631 488 631 q 367 618 399 631 q 308 585 335 606 q 260 536 282 564 q 224 478 239 508 l 224 240 q 243 183 224 211 q 293 134 263 156 q 359 99 324 113 q 428 86 394 86 q 523 109 479 86 q 598 169 567 132 q 647 256 629 207 q 664 358 664 306 z "},"⅜":{"ha":1239,"x_min":57,"x_max":1190,"o":"m 276 436 q 130 468 189 436 q 57 556 71 500 l 101 608 q 116 577 103 593 q 152 547 129 561 q 206 523 175 532 q 275 514 238 514 q 385 538 340 514 q 431 604 431 563 q 375 674 431 650 q 224 699 319 699 l 192 699 l 192 769 l 224 769 q 361 790 311 769 q 411 856 411 811 q 369 921 411 897 q 272 944 326 944 q 175 924 215 944 q 113 869 135 903 l 61 929 q 147 992 89 969 q 272 1015 206 1015 q 360 1003 319 1015 q 430 971 400 992 q 476 922 460 950 q 493 860 493 893 q 460 781 493 811 q 365 738 428 750 q 470 688 432 728 q 508 593 508 647 q 490 526 508 556 q 438 476 471 496 q 364 447 406 457 q 276 436 322 436 m 1190 160 q 1172 92 1190 122 q 1121 40 1153 61 q 1047 6 1089 18 q 958 -7 1006 -7 q 867 6 908 -7 q 794 42 825 19 q 747 97 764 65 q 729 163 729 128 q 740 211 729 189 q 767 251 750 233 q 808 281 785 268 q 854 303 831 294 q 783 346 814 318 q 751 417 751 374 q 770 478 751 450 q 818 524 789 506 q 885 553 847 543 q 960 564 922 564 q 1035 553 997 564 q 1101 524 1072 543 q 1149 478 1131 506 q 1168 418 1168 451 q 1138 347 1168 376 q 1064 303 1108 318 q 1154 248 1118 283 q 1190 160 1190 213 m 1113 168 q 1099 210 1113 192 q 1063 242 1085 229 q 1014 261 1042 254 q 960 268 986 268 q 903 261 931 268 q 854 240 875 254 q 820 208 833 226 q 807 167 807 189 q 821 125 807 143 q 857 94 835 107 q 906 76 879 82 q 961 69 933 69 q 1016 76 989 69 q 1065 97 1043 83 q 1099 128 1086 110 q 1113 168 1113 146 m 829 410 q 841 376 829 390 q 872 351 853 361 q 913 336 890 342 q 960 331 936 331 q 1006 336 982 331 q 1049 352 1029 342 q 1080 377 1068 363 q 1092 411 1092 392 q 1081 444 1092 429 q 1051 469 1069 458 q 1008 485 1032 479 q 960 490 985 490 q 868 469 907 490 q 829 410 829 447 m 208 46 l 597 514 l 969 993 l 1029 942 l 644 476 l 267 -7 l 208 46 z "},"³":{"ha":547,"x_min":44,"x_max":496,"o":"m 264 547 q 117 579 176 547 q 44 667 58 611 l 89 719 q 103 688 90 704 q 140 658 117 672 q 194 634 163 643 q 263 625 225 625 q 373 649 328 625 q 418 715 418 674 q 363 785 418 761 q 211 810 307 810 l 179 810 l 179 881 l 211 881 q 349 901 299 881 q 399 967 399 922 q 356 1032 399 1008 q 260 1056 314 1056 q 163 1035 203 1056 q 100 981 122 1014 l 49 1040 q 135 1103 76 1081 q 260 1126 193 1126 q 347 1115 307 1126 q 417 1082 388 1103 q 464 1033 447 1061 q 481 971 481 1004 q 448 892 481 922 q 353 849 415 861 q 458 799 419 839 q 496 704 496 758 q 477 637 496 667 q 426 588 458 607 q 351 558 393 568 q 264 547 310 547 z "},"¾":{"ha":1203,"x_min":56,"x_max":1153,"o":"m 275 436 q 128 468 188 436 q 56 556 69 500 l 100 608 q 115 577 101 593 q 151 547 128 561 q 205 523 174 532 q 274 514 236 514 q 384 538 339 514 q 429 604 429 563 q 374 674 429 650 q 222 699 318 699 l 190 699 l 190 769 l 222 769 q 360 790 310 769 q 410 856 410 811 q 367 921 410 897 q 271 944 325 944 q 174 924 214 944 q 111 869 133 903 l 60 929 q 146 992 88 969 q 271 1015 204 1015 q 358 1003 318 1015 q 428 971 399 992 q 475 922 458 950 q 492 860 492 893 q 459 781 492 811 q 364 738 426 750 q 469 688 431 728 q 507 593 507 647 q 488 526 507 556 q 437 476 469 496 q 363 447 404 457 q 275 436 321 436 m 994 0 l 994 139 l 681 139 l 681 213 l 1018 564 l 1071 564 l 1071 214 l 1153 214 l 1153 139 l 1071 139 l 1071 0 l 994 0 m 760 214 l 997 214 l 997 464 l 760 214 m 247 46 l 636 514 l 1008 993 l 1068 942 l 683 476 l 306 -7 l 247 46 z "},"™":{"ha":1056,"x_min":88,"x_max":950,"o":"m 435 906 l 303 906 l 303 583 l 219 583 l 219 906 l 88 906 l 88 989 l 435 989 l 435 906 m 831 986 l 950 986 l 950 583 l 867 583 l 867 872 l 758 642 l 690 642 l 582 872 l 582 583 l 499 583 l 499 986 l 617 986 l 724 739 l 831 986 z "},"²":{"ha":550,"x_min":47,"x_max":499,"o":"m 47 556 q 58 651 47 610 q 90 722 68 692 q 144 776 111 753 q 224 817 178 799 q 290 841 256 829 q 351 869 324 853 q 395 906 378 885 q 413 957 413 926 q 378 1024 413 997 q 278 1051 344 1051 q 168 1026 211 1051 q 103 978 125 1001 l 53 1032 q 78 1058 60 1042 q 126 1089 96 1074 q 197 1115 156 1104 q 289 1126 238 1126 q 446 1078 393 1126 q 499 956 499 1031 q 479 881 499 911 q 431 831 460 851 q 368 799 401 811 q 307 778 335 786 q 237 746 264 764 q 194 708 210 728 q 174 669 179 689 q 168 631 168 649 l 489 631 l 489 556 l 47 556 z "},"⅔":{"ha":1249,"x_min":58,"x_max":1200,"o":"m 968 -7 q 822 24 881 -7 q 749 113 763 56 l 793 164 q 808 133 794 149 q 844 102 821 117 q 898 78 867 88 q 967 69 929 69 q 1077 94 1032 69 q 1122 160 1122 118 q 1067 231 1122 206 q 915 256 1011 256 l 883 256 l 883 325 l 915 325 q 1053 346 1003 325 q 1103 411 1103 367 q 1060 476 1103 453 q 964 500 1018 500 q 867 479 907 500 q 804 425 826 458 l 753 485 q 839 548 781 525 q 964 571 897 571 q 1051 559 1011 571 q 1122 526 1092 547 q 1168 478 1151 506 q 1185 417 1185 450 q 1152 337 1185 368 q 1057 293 1119 306 q 1162 243 1124 283 q 1200 149 1200 203 q 1181 82 1200 111 q 1130 33 1163 53 q 1056 3 1097 13 q 968 -7 1014 -7 m 58 444 q 68 540 58 499 q 99 611 78 581 q 151 665 119 642 q 228 706 183 688 q 291 730 258 718 q 351 758 324 742 q 394 794 378 774 q 411 846 411 815 q 378 913 411 886 q 281 940 346 940 q 222 933 249 940 q 175 915 196 926 q 138 891 154 904 q 111 867 122 878 l 64 921 q 88 947 69 931 q 134 978 106 963 q 202 1004 163 993 q 292 1015 242 1015 q 442 967 392 1015 q 493 844 493 919 q 474 770 493 800 q 428 720 456 740 q 367 688 400 700 q 308 667 335 675 q 241 635 267 653 q 201 597 215 617 q 181 558 186 578 q 175 519 175 538 l 485 519 l 485 444 l 58 444 m 226 46 l 615 514 l 988 993 l 1047 942 l 663 476 l 285 -7 l 226 46 z "},"u":{"ha":835,"x_min":92,"x_max":768,"o":"m 322 -14 q 150 63 208 -14 q 92 290 92 139 l 92 725 l 214 725 l 214 314 q 368 92 214 92 q 509 140 443 92 q 607 271 575 188 l 607 725 l 729 725 l 729 150 q 768 106 729 107 l 768 0 q 735 -3 747 -3 q 713 -4 724 -4 q 652 17 676 -4 q 626 71 628 39 l 624 156 q 496 30 575 74 q 322 -14 417 -14 z "},"ú":{"ha":835,"x_min":92,"x_max":768,"o":"m 429 846 l 349 874 l 429 1014 l 551 1014 l 429 846 m 322 -14 q 150 63 208 -14 q 92 290 92 139 l 92 725 l 214 725 l 214 314 q 368 92 214 92 q 509 140 443 92 q 607 271 575 188 l 607 725 l 729 725 l 729 150 q 768 106 729 107 l 768 0 q 735 -3 747 -3 q 713 -4 724 -4 q 652 17 676 -4 q 626 71 628 39 l 624 156 q 496 30 575 74 q 322 -14 417 -14 z "},"ŭ":{"ha":835,"x_min":92,"x_max":768,"o":"m 322 -14 q 150 63 208 -14 q 92 290 92 139 l 92 725 l 214 725 l 214 314 q 368 92 214 92 q 509 140 443 92 q 607 271 575 188 l 607 725 l 729 725 l 729 150 q 768 106 729 107 l 768 0 q 735 -3 747 -3 q 713 -4 724 -4 q 652 17 676 -4 q 626 71 628 39 l 624 156 q 496 30 575 74 q 322 -14 417 -14 m 408 919 q 462 947 439 919 q 489 1014 485 974 l 558 1014 q 547 953 558 981 q 515 904 535 925 q 467 872 494 883 q 408 860 440 860 q 349 872 376 860 q 302 904 322 883 q 270 953 282 925 q 258 1014 258 981 l 329 1014 q 353 948 329 976 q 408 919 376 919 z "},"û":{"ha":835,"x_min":92,"x_max":768,"o":"m 224 889 l 364 1014 l 453 1014 l 593 889 l 526 856 l 408 943 l 290 856 l 224 889 m 322 -14 q 150 63 208 -14 q 92 290 92 139 l 92 725 l 214 725 l 214 314 q 368 92 214 92 q 509 140 443 92 q 607 271 575 188 l 607 725 l 729 725 l 729 150 q 768 106 729 107 l 768 0 q 735 -3 747 -3 q 713 -4 724 -4 q 652 17 676 -4 q 626 71 628 39 l 624 156 q 496 30 575 74 q 322 -14 417 -14 z "},"ü":{"ha":835,"x_min":92,"x_max":768,"o":"m 244 867 l 244 1008 l 347 1008 l 347 867 l 244 867 m 469 867 l 469 1008 l 572 1008 l 572 867 l 469 867 m 322 -14 q 150 63 208 -14 q 92 290 92 139 l 92 725 l 214 725 l 214 314 q 368 92 214 92 q 509 140 443 92 q 607 271 575 188 l 607 725 l 729 725 l 729 150 q 768 106 729 107 l 768 0 q 735 -3 747 -3 q 713 -4 724 -4 q 652 17 676 -4 q 626 71 628 39 l 624 156 q 496 30 575 74 q 322 -14 417 -14 z "},"ù":{"ha":835,"x_min":92,"x_max":768,"o":"m 322 -14 q 150 63 208 -14 q 92 290 92 139 l 92 725 l 214 725 l 214 314 q 368 92 214 92 q 509 140 443 92 q 607 271 575 188 l 607 725 l 729 725 l 729 150 q 768 106 729 107 l 768 0 q 735 -3 747 -3 q 713 -4 724 -4 q 652 17 676 -4 q 626 71 628 39 l 624 156 q 496 30 575 74 q 322 -14 417 -14 m 265 1014 l 386 1014 l 468 874 l 389 846 l 265 1014 z "},"ű":{"ha":835,"x_min":92,"x_max":768,"o":"m 322 -14 q 150 63 208 -14 q 92 290 92 139 l 92 725 l 214 725 l 214 314 q 368 92 214 92 q 509 140 443 92 q 607 271 575 188 l 607 725 l 729 725 l 729 150 q 768 106 729 107 l 768 0 q 735 -3 747 -3 q 713 -4 724 -4 q 652 17 676 -4 q 626 71 628 39 l 624 156 q 496 30 575 74 q 322 -14 417 -14 m 321 846 l 257 874 l 332 1014 l 438 1014 l 321 846 m 510 846 l 446 874 l 521 1014 l 626 1014 l 510 846 z "},"ū":{"ha":835,"x_min":92,"x_max":768,"o":"m 322 -14 q 150 63 208 -14 q 92 290 92 139 l 92 725 l 214 725 l 214 314 q 368 92 214 92 q 509 140 443 92 q 607 271 575 188 l 607 725 l 729 725 l 729 150 q 768 106 729 107 l 768 0 q 735 -3 747 -3 q 713 -4 724 -4 q 652 17 676 -4 q 626 71 628 39 l 624 156 q 496 30 575 74 q 322 -14 417 -14 m 207 908 l 207 989 l 613 989 l 613 908 l 207 908 z "},"_":{"ha":699,"x_min":88,"x_max":611,"o":"m 88 -111 l 88 0 l 611 0 l 611 -111 l 88 -111 z "}," ":{"ha":351,"x_min":0,"x_max":0,"o":""},"­":{"ha":808,"x_min":89,"x_max":719,"o":"m 89 324 l 89 435 l 719 435 l 719 324 l 89 324 z "},"Ş":{"ha":846,"x_min":40,"x_max":800,"o":"m 338 -175 q 390 -193 356 -185 q 460 -201 424 -201 q 518 -190 497 -201 q 539 -153 539 -179 q 519 -115 539 -125 q 468 -104 500 -104 q 407 -110 439 -104 q 357 -122 375 -117 l 417 -8 q 215 29 310 -6 q 40 129 119 64 l 100 235 q 158 188 122 211 q 238 145 193 164 q 335 115 283 126 q 444 103 388 103 q 608 140 550 103 q 667 253 667 178 q 648 323 667 294 q 593 372 629 351 q 503 409 557 393 q 382 442 450 425 q 250 481 307 460 q 155 531 193 501 q 97 601 117 560 q 78 701 78 643 q 104 826 78 772 q 178 918 131 881 q 290 974 225 956 q 432 993 356 993 q 613 963 532 993 q 756 881 693 932 l 697 779 q 653 817 681 799 q 590 849 625 835 q 515 873 556 864 q 429 882 474 882 q 260 839 314 882 q 207 721 207 796 q 222 654 207 681 q 270 609 238 628 q 351 576 303 590 q 467 547 400 563 q 605 509 543 531 q 710 456 667 488 q 777 378 754 424 q 800 265 800 332 q 776 149 800 199 q 708 65 751 99 q 606 14 665 32 q 479 -8 547 -4 l 443 -67 q 468 -61 454 -62 q 493 -60 482 -60 q 572 -82 542 -60 q 603 -149 603 -104 q 564 -225 603 -197 q 450 -253 525 -253 q 373 -245 408 -253 q 310 -226 338 -237 l 338 -175 z "},"ş":{"ha":686,"x_min":35,"x_max":640,"o":"m 244 -175 q 297 -193 263 -185 q 367 -201 331 -201 q 425 -190 404 -201 q 446 -153 446 -179 q 426 -115 446 -125 q 375 -104 407 -104 q 314 -110 346 -104 q 264 -122 282 -117 l 322 -12 q 166 19 242 -7 q 35 92 90 44 l 88 174 q 215 101 151 125 q 350 76 279 76 q 476 108 429 76 q 522 196 522 139 q 510 241 522 222 q 472 274 497 260 q 408 299 447 288 q 318 322 369 310 q 206 354 253 339 q 128 390 158 369 q 83 440 97 411 q 69 513 69 469 q 91 609 69 567 q 150 680 113 651 q 238 723 188 708 q 347 738 289 738 q 500 711 429 738 q 619 642 571 685 l 564 568 q 461 628 518 608 q 344 649 404 649 q 231 620 278 649 q 185 529 185 592 q 194 488 185 504 q 224 458 203 471 q 277 436 244 446 q 356 415 310 426 q 481 381 428 399 q 570 340 535 364 q 623 285 606 317 q 640 207 640 253 q 571 53 640 111 q 383 -12 501 -6 l 350 -67 q 375 -61 361 -62 q 400 -60 389 -60 q 479 -82 449 -60 q 510 -149 510 -104 q 471 -225 510 -197 q 357 -253 432 -253 q 280 -245 315 -253 q 217 -226 244 -237 l 244 -175 z "},"Ţ":{"ha":851,"x_min":22,"x_max":828,"o":"m 319 -175 q 372 -193 338 -185 q 442 -201 406 -201 q 500 -190 479 -201 q 521 -153 521 -179 q 501 -115 521 -125 q 450 -104 482 -104 q 389 -110 421 -104 q 339 -122 357 -117 l 404 0 l 363 0 l 363 875 l 22 875 l 22 986 l 828 986 l 828 875 l 488 875 l 488 0 l 467 0 l 425 -67 q 450 -61 436 -62 q 475 -60 464 -60 q 554 -82 524 -60 q 585 -149 585 -104 q 546 -225 585 -197 q 432 -253 507 -253 q 355 -245 390 -253 q 292 -226 319 -237 l 319 -175 z "},"ţ":{"ha":489,"x_min":35,"x_max":474,"o":"m 189 -175 q 241 -193 207 -185 q 311 -201 275 -201 q 369 -190 349 -201 q 390 -153 390 -179 q 371 -115 390 -125 q 319 -104 351 -104 q 258 -110 290 -104 q 208 -122 226 -117 l 268 -8 q 172 35 211 -1 q 133 142 133 71 l 133 629 l 35 629 l 35 725 l 133 725 l 133 967 l 256 967 l 256 725 l 418 725 l 418 629 l 256 629 l 256 179 q 282 121 258 139 q 338 103 306 103 q 403 115 374 103 q 444 133 433 126 l 474 36 q 417 13 454 26 q 332 -7 379 -1 l 294 -67 q 319 -61 306 -62 q 344 -60 333 -60 q 424 -82 393 -60 q 454 -149 454 -104 q 415 -225 454 -197 q 301 -253 376 -253 q 224 -245 260 -253 q 161 -226 189 -237 l 189 -175 z "},"Ș":{"ha":846,"x_min":40,"x_max":800,"o":"m 393 -296 l 421 -183 l 386 -183 l 386 -67 l 494 -67 l 494 -183 l 453 -296 l 393 -296 m 697 779 q 653 817 681 799 q 590 849 625 835 q 515 873 556 864 q 429 882 474 882 q 260 839 314 882 q 207 721 207 796 q 222 654 207 681 q 270 609 238 628 q 351 576 303 590 q 467 547 400 563 q 605 509 543 531 q 710 456 667 488 q 777 378 754 424 q 800 265 800 332 q 772 142 800 194 q 697 56 744 90 q 583 6 649 22 q 442 -10 518 -10 q 226 26 328 -10 q 40 129 124 61 l 100 235 q 158 188 122 211 q 238 145 193 164 q 335 115 283 126 q 444 103 388 103 q 608 140 550 103 q 667 253 667 178 q 648 323 667 294 q 593 372 629 351 q 503 409 557 393 q 382 442 450 425 q 250 481 307 460 q 155 531 193 501 q 97 601 117 560 q 78 701 78 643 q 104 826 78 772 q 178 918 131 881 q 290 974 225 956 q 432 993 356 993 q 613 963 532 993 q 756 881 693 932 l 697 779 z "},"ș":{"ha":686,"x_min":35,"x_max":640,"o":"m 300 -296 l 328 -183 l 293 -183 l 293 -67 l 401 -67 l 401 -183 l 360 -296 l 300 -296 m 353 -14 q 181 13 265 -14 q 35 92 96 40 l 88 174 q 215 101 151 125 q 350 76 279 76 q 476 108 429 76 q 522 196 522 139 q 510 241 522 222 q 472 274 497 260 q 408 299 447 288 q 318 322 369 310 q 206 354 253 339 q 128 390 158 369 q 83 440 97 411 q 69 513 69 469 q 91 609 69 567 q 150 680 113 651 q 238 723 188 708 q 347 738 289 738 q 500 711 429 738 q 619 642 571 685 l 564 568 q 461 628 518 608 q 344 649 404 649 q 231 620 278 649 q 185 529 185 592 q 194 488 185 504 q 224 458 203 471 q 277 436 244 446 q 356 415 310 426 q 481 381 428 399 q 570 340 535 364 q 623 285 606 317 q 640 207 640 253 q 563 46 640 106 q 353 -14 485 -14 z "},"Ț":{"ha":853,"x_min":24,"x_max":829,"o":"m 379 -296 l 407 -183 l 372 -183 l 372 -67 l 481 -67 l 481 -183 l 439 -296 l 379 -296 m 829 875 l 489 875 l 489 0 l 364 0 l 364 875 l 24 875 l 24 986 l 829 986 l 829 875 z "},"ț":{"ha":489,"x_min":35,"x_max":474,"o":"m 244 -296 l 272 -183 l 238 -183 l 238 -67 l 346 -67 l 346 -183 l 304 -296 l 244 -296 m 474 36 q 444 23 463 31 q 403 8 426 15 q 353 -5 381 0 q 297 -10 326 -10 q 182 27 231 -10 q 133 142 133 64 l 133 629 l 35 629 l 35 725 l 133 725 l 133 967 l 256 967 l 256 725 l 418 725 l 418 629 l 256 629 l 256 179 q 282 121 258 139 q 338 103 306 103 q 403 115 374 103 q 444 133 433 126 l 474 36 z "},"μ":{"ha":843,"x_min":99,"x_max":776,"o":"m 99 725 l 221 725 l 221 314 q 378 92 221 92 q 450 104 414 92 q 517 140 486 117 q 574 196 549 163 q 615 271 599 229 l 615 725 l 738 725 l 738 150 q 776 106 738 107 l 776 0 q 743 -3 756 -3 q 719 -4 731 -4 q 656 22 681 -4 q 632 79 632 47 l 632 156 q 588 92 615 122 q 526 38 560 61 q 452 0 492 14 q 371 -14 413 -14 q 268 17 307 -14 q 214 93 229 49 l 214 -294 l 99 -294 l 99 725 z "},"∕":{"ha":832,"x_min":-12,"x_max":846,"o":"m -12 53 l 774 993 l 846 933 l 60 -7 l -12 53 z "},"∙":{"ha":281,"x_min":89,"x_max":192,"o":"m 89 340 l 89 513 l 192 513 l 192 340 l 89 340 z "},"ų":{"ha":835,"x_min":92,"x_max":768,"o":"m 322 -14 q 150 63 208 -14 q 92 290 92 139 l 92 725 l 214 725 l 214 314 q 368 92 214 92 q 509 140 443 92 q 607 271 575 188 l 607 725 l 729 725 l 729 150 q 768 106 729 107 l 768 0 q 681 -67 707 -37 q 654 -128 654 -97 q 731 -187 654 -179 l 700 -251 q 613 -212 642 -240 q 583 -144 583 -183 q 689 -1 583 -72 q 644 24 661 6 q 626 71 628 43 l 624 156 q 496 30 575 74 q 322 -14 417 -14 z "},"ů":{"ha":835,"x_min":92,"x_max":768,"o":"m 296 918 q 328 988 296 963 q 408 1014 360 1014 q 490 988 458 1014 q 521 918 521 963 q 490 848 521 874 q 408 822 458 822 q 328 848 360 822 q 296 918 296 874 m 408 971 q 369 956 385 971 q 353 918 353 942 q 369 881 353 896 q 408 865 385 865 q 448 880 431 865 q 465 918 465 894 q 449 956 465 942 q 408 971 432 971 m 322 -14 q 150 63 208 -14 q 92 290 92 139 l 92 725 l 214 725 l 214 314 q 368 92 214 92 q 509 140 443 92 q 607 271 575 188 l 607 725 l 729 725 l 729 150 q 768 106 729 107 l 768 0 q 735 -3 747 -3 q 713 -4 724 -4 q 652 17 676 -4 q 626 71 628 39 l 624 156 q 496 30 575 74 q 322 -14 417 -14 z "},"ũ":{"ha":835,"x_min":92,"x_max":768,"o":"m 322 -14 q 150 63 208 -14 q 92 290 92 139 l 92 725 l 214 725 l 214 314 q 368 92 214 92 q 509 140 443 92 q 607 271 575 188 l 607 725 l 729 725 l 729 150 q 768 106 729 107 l 768 0 q 735 -3 747 -3 q 713 -4 724 -4 q 652 17 676 -4 q 626 71 628 39 l 624 156 q 496 30 575 74 q 322 -14 417 -14 m 496 871 q 441 880 464 871 q 398 900 418 889 q 358 920 378 911 q 317 929 339 929 q 280 919 293 929 q 260 898 267 910 q 251 875 253 886 q 249 863 249 864 l 176 863 q 183 894 176 871 q 204 943 189 918 q 246 987 219 968 q 314 1006 272 1006 q 365 997 343 1006 q 408 976 388 988 q 448 955 428 964 q 493 946 468 946 q 535 956 519 946 q 558 978 550 965 q 569 1001 567 990 q 571 1014 571 1011 l 643 1014 q 637 983 643 1006 q 614 935 631 960 q 569 890 597 910 q 496 871 540 871 z "},"v":{"ha":747,"x_min":22,"x_max":725,"o":"m 308 0 l 22 725 l 149 725 l 378 107 l 608 725 l 725 725 l 439 0 l 308 0 z "},"w":{"ha":1140,"x_min":15,"x_max":1125,"o":"m 1007 725 l 1125 725 l 817 0 l 715 0 l 569 354 l 425 0 l 324 0 l 15 725 l 132 725 l 382 121 l 504 422 l 379 724 l 481 724 l 569 492 l 658 724 l 760 724 l 636 422 l 758 121 l 1007 725 z "},"ẃ":{"ha":1140,"x_min":15,"x_max":1125,"o":"m 590 846 l 510 874 l 590 1014 l 713 1014 l 590 846 m 1007 725 l 1125 725 l 817 0 l 715 0 l 569 354 l 425 0 l 324 0 l 15 725 l 132 725 l 382 121 l 504 422 l 379 724 l 481 724 l 569 492 l 658 724 l 760 724 l 636 422 l 758 121 l 1007 725 z "},"ŵ":{"ha":1140,"x_min":15,"x_max":1125,"o":"m 385 889 l 525 1014 l 614 1014 l 754 889 l 688 856 l 569 943 l 451 856 l 385 889 m 1007 725 l 1125 725 l 817 0 l 715 0 l 569 354 l 425 0 l 324 0 l 15 725 l 132 725 l 382 121 l 504 422 l 379 724 l 481 724 l 569 492 l 658 724 l 760 724 l 636 422 l 758 121 l 1007 725 z "},"ẅ":{"ha":1140,"x_min":15,"x_max":1125,"o":"m 406 867 l 406 1008 l 508 1008 l 508 867 l 406 867 m 631 867 l 631 1008 l 733 1008 l 733 867 l 631 867 m 1007 725 l 1125 725 l 817 0 l 715 0 l 569 354 l 425 0 l 324 0 l 15 725 l 132 725 l 382 121 l 504 422 l 379 724 l 481 724 l 569 492 l 658 724 l 760 724 l 636 422 l 758 121 l 1007 725 z "},"ẁ":{"ha":1140,"x_min":15,"x_max":1125,"o":"m 1007 725 l 1125 725 l 817 0 l 715 0 l 569 354 l 425 0 l 324 0 l 15 725 l 132 725 l 382 121 l 504 422 l 379 724 l 481 724 l 569 492 l 658 724 l 760 724 l 636 422 l 758 121 l 1007 725 m 426 1014 l 547 1014 l 629 874 l 550 846 l 426 1014 z "},"x":{"ha":713,"x_min":17,"x_max":696,"o":"m 146 725 l 344 458 l 356 436 l 368 458 l 565 725 l 694 725 l 424 361 l 696 0 l 567 0 l 368 265 l 356 286 l 344 265 l 146 0 l 17 0 l 289 361 l 18 725 l 146 725 z "},"y":{"ha":757,"x_min":17,"x_max":732,"o":"m 132 -197 q 168 -201 150 -200 q 196 -203 186 -203 q 226 -195 213 -203 q 252 -165 239 -187 q 282 -103 265 -143 q 324 0 299 -64 l 17 725 l 143 725 l 390 110 l 615 725 l 732 725 l 379 -190 q 315 -276 360 -239 q 190 -312 269 -312 q 165 -311 178 -312 q 132 -306 151 -310 l 132 -197 z "},"ý":{"ha":757,"x_min":17,"x_max":732,"o":"m 132 -197 q 168 -201 150 -200 q 196 -203 186 -203 q 226 -195 213 -203 q 252 -165 239 -187 q 282 -103 265 -143 q 324 0 299 -64 l 17 725 l 143 725 l 390 110 l 615 725 l 732 725 l 379 -190 q 315 -276 360 -239 q 190 -312 269 -312 q 165 -311 178 -312 q 132 -306 151 -310 l 132 -197 m 411 846 l 331 874 l 411 1014 l 533 1014 l 411 846 z "},"ŷ":{"ha":757,"x_min":17,"x_max":732,"o":"m 132 -197 q 168 -201 150 -200 q 196 -203 186 -203 q 226 -195 213 -203 q 252 -165 239 -187 q 282 -103 265 -143 q 324 0 299 -64 l 17 725 l 143 725 l 390 110 l 615 725 l 732 725 l 379 -190 q 315 -276 360 -239 q 190 -312 269 -312 q 165 -311 178 -312 q 132 -306 151 -310 l 132 -197 m 206 889 l 346 1014 l 435 1014 l 575 889 l 508 856 l 390 943 l 272 856 l 206 889 z "},"ÿ":{"ha":757,"x_min":17,"x_max":732,"o":"m 132 -197 q 168 -201 150 -200 q 196 -203 186 -203 q 226 -195 213 -203 q 252 -165 239 -187 q 282 -103 265 -143 q 324 0 299 -64 l 17 725 l 143 725 l 390 110 l 615 725 l 732 725 l 379 -190 q 315 -276 360 -239 q 190 -312 269 -312 q 165 -311 178 -312 q 132 -306 151 -310 l 132 -197 m 226 867 l 226 1008 l 329 1008 l 329 867 l 226 867 m 451 867 l 451 1008 l 554 1008 l 554 867 l 451 867 z "},"¥":{"ha":954,"x_min":40,"x_max":914,"o":"m 631 524 l 743 524 l 743 440 l 585 440 l 538 360 l 538 321 l 744 321 l 744 238 l 538 238 l 538 0 l 413 0 l 413 238 l 208 238 l 208 321 l 413 321 l 413 363 l 368 440 l 208 440 l 208 524 l 324 524 l 40 986 l 176 986 l 475 472 l 776 986 l 914 986 l 631 524 z "},"ỳ":{"ha":757,"x_min":17,"x_max":732,"o":"m 132 -197 q 168 -201 150 -200 q 196 -203 186 -203 q 226 -195 213 -203 q 252 -165 239 -187 q 282 -103 265 -143 q 324 0 299 -64 l 17 725 l 143 725 l 390 110 l 615 725 l 732 725 l 379 -190 q 315 -276 360 -239 q 190 -312 269 -312 q 165 -311 178 -312 q 132 -306 151 -310 l 132 -197 m 246 1014 l 367 1014 l 449 874 l 369 846 l 246 1014 z "},"ỹ":{"ha":757,"x_min":17,"x_max":732,"o":"m 132 -197 q 168 -201 150 -200 q 196 -203 186 -203 q 226 -195 213 -203 q 252 -165 239 -187 q 282 -103 265 -143 q 324 0 299 -64 l 17 725 l 143 725 l 390 110 l 615 725 l 732 725 l 379 -190 q 315 -276 360 -239 q 190 -312 269 -312 q 165 -311 178 -312 q 132 -306 151 -310 l 132 -197 m 476 871 q 422 880 444 871 q 378 900 399 889 q 339 920 358 911 q 297 929 319 929 q 260 919 274 929 q 240 898 247 910 q 231 875 233 886 q 229 863 229 864 l 157 863 q 163 894 157 871 q 185 943 169 918 q 226 987 200 968 q 294 1006 253 1006 q 346 997 324 1006 q 388 976 368 988 q 428 955 408 964 q 474 946 449 946 q 515 956 500 946 q 539 978 531 965 q 549 1001 547 990 q 551 1014 551 1011 l 624 1014 q 617 983 624 1006 q 594 935 611 960 q 549 890 578 910 q 476 871 521 871 z "},"z":{"ha":685,"x_min":42,"x_max":638,"o":"m 42 79 l 506 636 l 54 636 l 54 725 l 636 725 l 636 646 l 175 89 l 638 89 l 638 0 l 42 0 l 42 79 z "},"ź":{"ha":685,"x_min":42,"x_max":638,"o":"m 375 846 l 294 874 l 375 1014 l 497 1014 l 375 846 m 42 79 l 506 636 l 54 636 l 54 725 l 636 725 l 636 646 l 175 89 l 638 89 l 638 0 l 42 0 l 42 79 z "},"ž":{"ha":685,"x_min":42,"x_max":638,"o":"m 235 1014 l 353 926 l 471 1014 l 538 981 l 397 856 l 308 856 l 168 981 l 235 1014 m 42 79 l 506 636 l 54 636 l 54 725 l 636 725 l 636 646 l 175 89 l 638 89 l 638 0 l 42 0 l 42 79 z "},"ż":{"ha":685,"x_min":42,"x_max":638,"o":"m 42 79 l 506 636 l 54 636 l 54 725 l 636 725 l 636 646 l 175 89 l 638 89 l 638 0 l 42 0 l 42 79 m 297 867 l 297 1014 l 408 1014 l 408 867 l 297 867 z "},"₀":{"ha":649,"x_min":50,"x_max":599,"o":"m 325 -118 q 206 -92 257 -118 q 119 -24 154 -65 q 67 69 85 18 q 50 167 50 119 q 69 269 50 218 q 124 360 89 319 q 210 427 160 401 q 325 453 261 453 q 444 426 393 453 q 529 356 494 399 q 581 263 564 314 q 599 167 599 213 q 580 65 599 115 q 526 -27 561 14 q 440 -93 490 -68 q 325 -118 389 -118 m 129 167 q 142 93 129 131 q 179 26 154 56 q 240 -23 204 -4 q 325 -42 276 -42 q 412 -22 375 -42 q 473 30 449 -1 q 509 97 497 61 q 521 167 521 133 q 508 241 521 204 q 469 308 494 278 q 408 358 444 339 q 325 376 372 376 q 238 356 275 376 q 177 305 201 336 q 141 237 153 274 q 129 167 129 200 z "},"⁰":{"ha":649,"x_min":50,"x_max":599,"o":"m 325 554 q 206 581 257 554 q 119 649 154 607 q 67 741 85 690 q 50 839 50 792 q 69 941 50 890 q 124 1033 89 992 q 210 1099 160 1074 q 325 1125 261 1125 q 444 1098 393 1125 q 529 1028 494 1071 q 581 935 564 986 q 599 839 599 885 q 580 737 599 788 q 526 645 561 686 q 440 579 490 604 q 325 554 389 554 m 129 839 q 142 765 129 803 q 179 698 154 728 q 240 649 204 668 q 325 631 276 631 q 412 651 375 631 q 473 702 449 671 q 509 769 497 733 q 521 839 521 806 q 508 913 521 876 q 469 981 494 950 q 408 1030 444 1011 q 325 1049 372 1049 q 238 1028 275 1049 q 177 977 201 1008 q 141 909 153 946 q 129 839 129 872 z "}," ":{"ha":1278,"x_min":0,"x_max":0,"o":""}," ":{"ha":814,"x_min":0,"x_max":0,"o":""},"₤":{"ha":694,"x_min":71,"x_max":653,"o":"m 71 561 l 171 561 q 125 653 146 607 q 104 753 104 700 q 125 847 104 803 q 181 923 146 890 q 265 974 217 956 q 367 993 313 993 q 515 954 446 993 q 629 847 585 915 l 561 772 q 474 859 528 826 q 364 892 419 892 q 306 880 332 892 q 259 849 279 868 q 228 801 239 829 q 217 743 217 774 q 239 653 217 696 q 286 561 261 610 l 556 561 l 556 489 l 319 489 q 340 407 335 449 l 556 407 l 556 335 l 340 335 q 304 222 335 276 q 207 96 274 167 q 310 110 258 110 q 410 97 365 110 q 504 85 456 85 q 559 91 532 85 q 622 110 586 97 l 653 17 q 577 -11 617 -1 q 499 -21 538 -21 q 438 -15 467 -21 q 381 -3 410 -10 q 322 8 351 3 q 260 14 292 14 q 182 7 225 14 q 101 -11 139 0 l 71 78 q 190 214 151 154 q 235 335 228 274 l 71 335 l 71 407 l 232 407 q 222 449 229 429 q 207 489 215 469 l 71 489 l 71 561 z "},"₦":{"ha":1186,"x_min":51,"x_max":1133,"o":"m 1133 522 l 1011 522 l 1011 440 l 1133 440 l 1133 368 l 1011 368 l 1011 0 l 906 0 l 610 368 l 303 368 l 303 0 l 178 0 l 178 368 l 51 368 l 51 440 l 178 440 l 178 522 l 51 522 l 51 594 l 178 594 l 178 986 l 275 986 l 586 594 l 886 594 l 886 985 l 1011 985 l 1011 594 l 1133 594 l 1133 522 m 303 440 l 553 440 l 488 522 l 303 522 l 303 440 m 710 440 l 886 440 l 886 522 l 644 522 l 710 440 m 303 594 l 429 594 l 303 753 l 303 594 m 886 218 l 886 368 l 767 368 l 886 218 z "},"₩":{"ha":1578,"x_min":53,"x_max":1524,"o":"m 53 496 l 276 496 l 236 592 l 53 592 l 53 664 l 206 664 l 72 986 l 207 986 l 335 664 l 665 664 l 539 981 l 657 981 l 788 638 l 919 981 l 1038 981 l 911 664 l 1242 664 l 1369 986 l 1506 986 l 1371 664 l 1524 664 l 1524 592 l 1340 592 l 1300 496 l 1524 496 l 1524 424 l 1269 424 l 1093 0 l 985 0 l 789 465 l 592 0 l 483 0 l 306 424 l 53 424 l 53 496 m 1036 144 l 1146 424 l 919 424 l 1036 144 m 542 144 l 657 424 l 431 424 l 542 144 m 867 551 l 889 496 l 1175 496 l 1213 592 l 882 592 l 867 551 m 693 592 l 364 592 l 401 496 l 686 496 l 710 551 l 693 592 z "},"₣":{"ha":850,"x_min":40,"x_max":818,"o":"m 167 0 l 167 176 l 40 176 l 40 271 l 167 271 l 167 986 l 818 986 l 818 875 l 292 875 l 292 546 l 735 546 l 735 442 l 292 442 l 292 271 l 456 271 l 456 176 l 292 176 l 292 0 l 167 0 z "},"₡":{"ha":774,"x_min":53,"x_max":732,"o":"m 317 0 q 208 52 257 17 q 125 135 160 88 q 72 242 90 183 q 53 364 53 300 q 71 485 53 428 q 124 591 89 543 q 207 673 158 639 q 317 724 256 707 l 317 896 l 378 896 l 378 735 q 399 737 389 736 q 421 738 410 738 q 441 738 432 738 q 461 735 450 738 l 461 896 l 522 896 l 522 725 q 644 663 593 706 q 726 561 696 621 l 607 524 q 529 603 579 575 q 418 632 479 632 q 324 612 368 632 q 247 556 279 592 q 197 471 215 519 q 178 364 178 422 q 197 257 178 307 q 249 170 217 207 q 326 113 282 133 q 419 92 369 92 q 483 101 451 92 q 540 125 514 110 q 585 160 565 140 q 613 204 604 181 l 732 168 q 652 63 707 107 q 522 -1 597 18 l 522 -167 l 461 -167 l 461 -11 q 442 -13 451 -12 q 422 -14 432 -14 q 400 -13 411 -14 q 378 -11 389 -12 l 378 -167 l 317 -167 l 317 0 z "},"̏":{"ha":469,"x_min":44,"x_max":414,"o":"m 233 1014 l 339 1014 l 414 874 l 350 846 l 233 1014 m 44 1014 l 150 1014 l 225 874 l 161 846 l 44 1014 z "},"̑":{"ha":411,"x_min":56,"x_max":356,"o":"m 206 954 q 150 926 174 954 q 126 860 126 897 l 56 860 q 67 921 56 893 q 99 969 79 949 q 147 1002 119 990 q 206 1014 174 1014 q 265 1002 238 1014 q 312 969 292 990 q 344 921 332 949 q 356 860 356 893 l 286 860 q 259 927 282 900 q 206 954 236 954 z "}}}
